{"glyphs":{"0":{"ha":803,"x_min":69,"x_max":733,"o":"m 401 0 q 156 143 243 0 q 69 543 69 286 q 156 943 69 800 q 401 1086 243 1086 q 581 1021 506 1086 q 694 833 656 956 q 733 543 733 711 q 694 253 733 375 q 581 65 656 131 q 401 0 506 0 m 401 144 q 542 254 494 144 q 590 543 590 364 q 542 832 590 721 q 401 943 493 943 q 260 833 308 943 q 213 543 213 722 q 261 253 213 363 q 401 144 310 144 z "},"1":{"ha":546,"x_min":49,"x_max":407,"o":"m 335 0 q 286 21 307 0 q 265 71 265 42 l 265 918 l 164 875 q 119 865 140 865 q 69 885 89 865 q 49 935 49 904 q 60 976 49 958 q 94 1001 71 993 l 311 1079 q 338 1085 328 1085 q 388 1065 368 1085 q 407 1013 407 1044 l 407 71 q 386 21 407 42 q 335 0 365 0 z "},"2":{"ha":817,"x_min":90,"x_max":747,"o":"m 161 0 q 110 21 131 0 q 90 71 90 42 q 110 121 90 101 l 504 582 q 592 756 592 682 q 545 900 592 846 q 418 954 499 954 q 324 927 367 954 q 256 854 281 900 q 232 756 232 808 q 212 707 232 728 q 161 686 192 686 q 111 707 132 686 q 90 756 90 728 q 133 924 90 849 q 251 1042 176 999 q 418 1085 325 1085 q 581 1044 511 1085 q 690 930 651 1004 q 728 756 728 856 q 692 628 728 694 q 604 503 657 563 l 286 142 l 675 142 q 726 121 706 142 q 747 71 747 100 q 726 21 747 42 q 675 0 706 0 l 161 0 z "},"3":{"ha":832,"x_min":76,"x_max":769,"o":"m 433 0 q 249 44 331 0 q 122 163 168 88 q 76 333 76 239 q 94 385 76 364 q 140 406 113 406 q 186 385 168 406 q 204 333 204 364 q 233 228 204 276 q 313 152 263 181 q 425 124 364 124 q 574 175 518 124 q 629 317 629 226 q 604 422 629 374 q 535 497 579 469 q 439 524 492 524 q 388 544 408 524 q 368 596 368 565 q 388 647 368 626 q 439 667 408 667 q 515 687 478 667 q 574 742 551 707 q 597 818 597 776 q 553 921 597 879 q 439 963 508 963 q 342 942 386 963 q 273 886 299 921 q 247 808 247 851 q 229 755 247 776 q 183 733 211 733 q 138 753 156 733 q 119 804 119 774 q 161 948 119 883 q 275 1049 203 1013 q 436 1086 347 1086 q 583 1051 517 1086 q 688 954 650 1015 q 726 818 726 893 q 679 688 726 743 q 561 601 632 633 q 718 491 667 565 q 769 315 769 417 q 724 154 769 226 q 601 41 678 82 q 433 0 524 0 z "},"4":{"ha":907,"x_min":28,"x_max":851,"o":"m 781 374 q 832 358 813 374 q 851 310 851 343 q 831 265 851 283 q 781 246 810 246 l 697 246 l 697 71 q 677 21 697 42 q 628 0 657 0 q 581 21 600 0 q 561 71 561 42 l 561 246 l 99 246 q 47 267 67 246 q 28 315 28 288 q 42 357 28 339 l 574 1054 q 632 1085 597 1085 q 679 1064 661 1085 q 697 1013 697 1043 l 697 374 l 781 374 m 211 374 l 561 374 l 561 833 l 211 374 z "},"5":{"ha":874,"x_min":90,"x_max":797,"o":"m 443 0 q 263 47 344 0 q 136 174 182 93 q 90 354 90 254 q 110 405 90 385 q 160 425 129 425 q 211 405 190 425 q 232 354 232 385 q 260 246 232 294 q 335 169 288 197 q 443 142 383 142 q 551 169 503 142 q 628 246 600 197 q 656 354 656 294 q 628 463 656 414 q 551 539 600 511 q 443 567 503 567 l 211 567 q 161 587 181 567 q 142 638 142 607 l 142 1013 q 161 1064 142 1043 q 211 1085 181 1085 l 675 1085 q 725 1063 704 1085 q 746 1013 746 1042 q 726 964 746 985 q 675 943 706 943 l 282 943 l 282 708 l 443 708 q 623 662 542 708 q 751 534 704 615 q 797 354 797 453 q 751 174 797 256 q 623 47 704 93 q 443 0 542 0 z "},"6":{"ha":807,"x_min":90,"x_max":744,"o":"m 418 660 q 587 617 513 660 q 703 500 661 575 q 744 329 744 425 q 703 160 744 235 q 587 42 661 85 q 418 0 513 0 q 248 42 322 0 q 132 160 174 85 q 90 329 90 235 q 143 519 90 436 l 458 1044 q 522 1083 483 1083 q 575 1063 554 1083 q 596 1013 596 1042 q 585 975 596 992 l 394 660 l 418 660 m 417 125 q 557 182 503 125 q 611 329 611 239 q 557 477 611 419 q 417 535 503 535 q 278 477 332 535 q 224 329 224 419 q 277 182 224 239 q 417 125 331 125 z "},"7":{"ha":760,"x_min":47,"x_max":718,"o":"m 199 0 q 150 21 171 0 q 129 71 129 42 q 142 115 129 90 l 540 943 l 118 943 q 67 963 88 943 q 47 1014 47 983 q 67 1065 47 1044 q 118 1085 88 1085 l 647 1085 q 697 1064 676 1085 q 718 1014 718 1043 q 708 976 718 999 l 264 39 q 236 10 254 21 q 199 0 218 0 z "},"8":{"ha":807,"x_min":83,"x_max":724,"o":"m 575 610 q 684 497 644 567 q 724 339 724 426 q 682 167 724 244 q 567 46 640 90 q 404 1 494 1 q 240 45 314 1 q 125 165 167 89 q 83 335 83 240 q 123 494 83 422 q 232 608 163 565 q 156 699 183 644 q 129 817 129 753 q 165 958 129 894 q 265 1057 201 1021 q 407 1093 328 1093 q 545 1058 483 1093 q 642 960 607 1022 q 678 819 678 897 q 651 700 678 754 q 575 610 624 646 m 267 818 q 306 713 267 756 q 404 669 346 669 q 501 715 463 669 q 540 824 540 760 q 501 924 540 885 q 404 964 463 964 q 306 923 344 964 q 267 818 267 882 m 585 338 q 533 474 585 419 q 404 529 482 529 q 274 473 325 529 q 222 332 222 417 q 246 230 222 276 q 311 156 269 183 q 404 129 353 129 q 497 157 456 129 q 561 233 538 185 q 585 338 585 281 z "},"9":{"ha":807,"x_min":63,"x_max":717,"o":"m 717 757 q 664 567 717 650 l 349 42 q 285 3 324 3 q 232 24 253 3 q 211 74 211 44 q 222 111 211 94 l 413 426 l 389 426 q 220 469 294 426 q 104 586 146 511 q 63 757 63 661 q 104 926 63 851 q 220 1044 146 1001 q 389 1086 294 1086 q 559 1044 485 1086 q 675 926 633 1001 q 717 757 717 851 m 196 757 q 250 609 196 667 q 390 551 304 551 q 529 609 475 551 q 583 757 583 667 q 530 904 583 847 q 390 961 476 961 q 250 904 304 961 q 196 757 196 847 z "},"\u0000":{"ha":0,"x_min":0,"x_max":0,"o":""},"\r":{"ha":407,"x_min":0,"x_max":0,"o":""}," ":{"ha":407,"x_min":0,"x_max":0,"o":""},"A":{"ha":976,"x_min":25,"x_max":957,"o":"m 950 101 q 957 71 957 83 q 936 21 957 42 q 885 0 915 0 q 845 12 864 0 q 818 44 826 24 l 740 239 l 242 239 l 163 44 q 135 12 153 24 q 96 0 117 0 q 45 22 65 0 q 25 72 25 43 q 32 104 25 86 l 422 1036 q 490 1085 443 1085 q 558 1036 540 1085 l 950 101 m 290 358 l 692 358 l 493 853 l 290 358 z "},"Á":{"ha":976,"x_min":25,"x_max":957,"o":"m 950 101 q 957 71 957 83 q 936 21 957 42 q 885 0 915 0 q 845 12 864 0 q 818 44 826 24 l 740 239 l 242 239 l 163 44 q 135 12 153 24 q 96 0 117 0 q 45 22 65 0 q 25 72 25 43 q 32 104 25 86 l 422 1036 q 490 1085 443 1085 q 558 1036 540 1085 l 950 101 m 290 358 l 692 358 l 493 853 l 290 358 m 494 1204 q 443 1224 463 1204 q 424 1275 424 1244 q 440 1322 424 1304 l 576 1458 q 626 1479 597 1479 q 677 1458 657 1479 q 697 1407 697 1438 q 678 1358 697 1376 l 543 1224 q 494 1204 524 1204 z "},"Ă":{"ha":976,"x_min":25,"x_max":957,"o":"m 950 101 q 957 71 957 83 q 936 21 957 42 q 885 0 915 0 q 845 12 864 0 q 818 44 826 24 l 740 239 l 242 239 l 163 44 q 135 12 153 24 q 96 0 117 0 q 45 22 65 0 q 25 72 25 43 q 32 104 25 86 l 422 1036 q 490 1085 443 1085 q 558 1036 540 1085 l 950 101 m 290 358 l 692 358 l 493 853 l 290 358 m 489 1165 q 376 1188 428 1165 q 293 1251 324 1211 q 263 1339 263 1290 q 281 1390 263 1369 q 329 1410 300 1410 q 376 1394 356 1410 q 396 1353 396 1378 q 425 1301 396 1322 q 489 1279 454 1279 q 556 1299 531 1279 q 581 1353 581 1319 q 601 1394 581 1378 q 649 1410 621 1410 q 696 1390 678 1410 q 714 1339 714 1369 q 683 1251 714 1290 q 601 1188 653 1211 q 489 1165 550 1165 z "},"Ắ":{"ha":976,"x_min":25,"x_max":957,"o":"m 950 101 q 957 71 957 83 q 936 21 957 42 q 885 0 915 0 q 845 12 864 0 q 818 44 826 24 l 740 239 l 242 239 l 163 44 q 135 12 153 24 q 96 0 117 0 q 45 22 65 0 q 25 72 25 43 q 32 104 25 86 l 422 1036 q 490 1085 443 1085 q 558 1036 540 1085 l 950 101 m 290 358 l 692 358 l 493 853 l 290 358 m 489 1165 q 376 1188 428 1165 q 293 1251 324 1211 q 263 1339 263 1290 q 281 1390 263 1369 q 329 1410 300 1410 q 376 1394 356 1410 q 396 1353 396 1378 q 425 1301 396 1322 q 489 1279 454 1279 q 556 1299 531 1279 q 581 1353 581 1319 q 601 1394 581 1378 q 649 1410 621 1410 q 696 1390 678 1410 q 714 1339 714 1369 q 683 1251 714 1290 q 601 1188 653 1211 q 489 1165 550 1165 m 494 1446 q 443 1466 463 1446 q 424 1517 424 1486 q 440 1564 424 1546 l 576 1700 q 626 1721 597 1721 q 677 1700 657 1721 q 697 1649 697 1679 q 678 1600 697 1618 l 543 1465 q 494 1446 524 1446 z "},"Ặ":{"ha":976,"x_min":25,"x_max":957,"o":"m 950 101 q 957 71 957 83 q 936 21 957 42 q 885 0 915 0 q 845 12 864 0 q 818 44 826 24 l 740 239 l 242 239 l 163 44 q 135 12 153 24 q 96 0 117 0 q 45 22 65 0 q 25 72 25 43 q 32 104 25 86 l 422 1036 q 490 1085 443 1085 q 558 1036 540 1085 l 950 101 m 290 358 l 692 358 l 493 853 l 290 358 m 489 1165 q 376 1188 428 1165 q 293 1251 324 1211 q 263 1339 263 1290 q 281 1390 263 1369 q 329 1410 300 1410 q 376 1394 356 1410 q 396 1353 396 1378 q 425 1301 396 1322 q 489 1279 454 1279 q 556 1299 531 1279 q 581 1353 581 1319 q 601 1394 581 1378 q 649 1410 621 1410 q 696 1390 678 1410 q 714 1339 714 1369 q 683 1251 714 1290 q 601 1188 653 1211 q 489 1165 550 1165 m 489 -311 q 424 -284 451 -311 q 397 -219 397 -257 q 424 -155 397 -182 q 489 -128 451 -128 q 553 -155 526 -128 q 581 -219 581 -182 q 553 -284 581 -257 q 489 -311 526 -311 z "},"Ằ":{"ha":976,"x_min":25,"x_max":957,"o":"m 950 101 q 957 71 957 83 q 936 21 957 42 q 885 0 915 0 q 845 12 864 0 q 818 44 826 24 l 740 239 l 242 239 l 163 44 q 135 12 153 24 q 96 0 117 0 q 45 22 65 0 q 25 72 25 43 q 32 104 25 86 l 422 1036 q 490 1085 443 1085 q 558 1036 540 1085 l 950 101 m 290 358 l 692 358 l 493 853 l 290 358 m 489 1165 q 376 1188 428 1165 q 293 1251 324 1211 q 263 1339 263 1290 q 281 1390 263 1369 q 329 1410 300 1410 q 376 1394 356 1410 q 396 1353 396 1378 q 425 1301 396 1322 q 489 1279 454 1279 q 556 1299 531 1279 q 581 1353 581 1319 q 601 1394 581 1378 q 649 1410 621 1410 q 696 1390 678 1410 q 714 1339 714 1369 q 683 1251 714 1290 q 601 1188 653 1211 q 489 1165 550 1165 m 485 1446 q 436 1465 454 1446 l 300 1600 q 282 1649 282 1618 q 301 1700 282 1679 q 351 1721 321 1721 q 403 1700 381 1721 l 538 1564 q 556 1517 556 1546 q 535 1466 556 1486 q 485 1446 515 1446 z "},"Ẳ":{"ha":976,"x_min":25,"x_max":957,"o":"m 950 101 q 957 71 957 83 q 936 21 957 42 q 885 0 915 0 q 845 12 864 0 q 818 44 826 24 l 740 239 l 242 239 l 163 44 q 135 12 153 24 q 96 0 117 0 q 45 22 65 0 q 25 72 25 43 q 32 104 25 86 l 422 1036 q 490 1085 443 1085 q 558 1036 540 1085 l 950 101 m 290 358 l 692 358 l 493 853 l 290 358 m 489 1165 q 376 1188 428 1165 q 293 1251 324 1211 q 263 1339 263 1290 q 281 1390 263 1369 q 329 1410 300 1410 q 376 1394 356 1410 q 396 1353 396 1378 q 425 1301 396 1322 q 489 1279 454 1279 q 556 1299 531 1279 q 581 1353 581 1319 q 601 1394 581 1378 q 649 1410 621 1410 q 696 1390 678 1410 q 714 1339 714 1369 q 683 1251 714 1290 q 601 1188 653 1211 q 489 1165 550 1165 m 489 1401 q 444 1419 463 1401 q 426 1464 426 1438 l 426 1494 q 482 1563 426 1550 l 518 1571 q 559 1591 543 1576 q 575 1626 575 1606 q 559 1666 575 1653 q 515 1679 543 1679 q 479 1673 497 1679 q 450 1657 461 1667 q 429 1646 442 1650 q 404 1642 417 1642 q 367 1654 382 1642 q 353 1690 353 1667 q 375 1739 353 1721 q 513 1785 432 1785 q 635 1741 588 1785 q 682 1631 682 1697 q 525 1489 683 1510 l 551 1492 q 534 1424 551 1447 q 489 1401 517 1401 z "},"Ẵ":{"ha":976,"x_min":25,"x_max":957,"o":"m 950 101 q 957 71 957 83 q 936 21 957 42 q 885 0 915 0 q 845 12 864 0 q 818 44 826 24 l 740 239 l 242 239 l 163 44 q 135 12 153 24 q 96 0 117 0 q 45 22 65 0 q 25 72 25 43 q 32 104 25 86 l 422 1036 q 490 1085 443 1085 q 558 1036 540 1085 l 950 101 m 290 358 l 692 358 l 493 853 l 290 358 m 490 1165 q 377 1188 429 1165 q 294 1251 325 1211 q 264 1339 264 1290 q 283 1390 264 1369 q 331 1410 301 1410 q 377 1394 357 1410 q 397 1353 397 1378 q 426 1301 397 1322 q 490 1279 456 1279 q 557 1299 532 1279 q 582 1353 582 1319 q 602 1394 582 1378 q 650 1410 622 1410 q 697 1390 679 1410 q 715 1339 715 1369 q 685 1251 715 1290 q 603 1188 654 1211 q 490 1165 551 1165 m 588 1439 q 467 1496 526 1439 q 436 1522 446 1515 q 414 1529 426 1529 q 391 1520 400 1529 q 369 1490 382 1511 q 344 1466 360 1475 q 313 1457 329 1457 q 289 1461 301 1457 q 263 1482 272 1468 q 253 1513 253 1496 q 261 1542 253 1528 q 403 1643 318 1643 q 465 1628 440 1643 q 506 1600 490 1614 q 525 1582 521 1586 q 572 1557 554 1557 q 603 1578 588 1557 q 664 1614 628 1614 q 686 1610 675 1614 q 714 1588 704 1601 q 724 1557 724 1574 q 714 1526 724 1543 q 656 1460 688 1481 q 588 1439 625 1439 z "},"Â":{"ha":976,"x_min":25,"x_max":957,"o":"m 950 101 q 957 71 957 83 q 936 21 957 42 q 885 0 915 0 q 845 12 864 0 q 818 44 826 24 l 740 239 l 242 239 l 163 44 q 135 12 153 24 q 96 0 117 0 q 45 22 65 0 q 25 72 25 43 q 32 104 25 86 l 422 1036 q 490 1085 443 1085 q 558 1036 540 1085 l 950 101 m 290 358 l 692 358 l 493 853 l 290 358 m 335 1179 q 284 1195 304 1179 q 264 1236 264 1211 q 297 1297 264 1272 l 453 1399 q 489 1410 471 1410 q 526 1399 510 1410 l 681 1297 q 714 1236 714 1272 q 694 1195 714 1211 q 644 1179 675 1179 q 599 1194 619 1179 l 489 1272 l 379 1194 q 335 1179 360 1179 z "},"Ấ":{"ha":976,"x_min":25,"x_max":957,"o":"m 950 101 q 957 71 957 83 q 936 21 957 42 q 885 0 915 0 q 845 12 864 0 q 818 44 826 24 l 740 239 l 242 239 l 163 44 q 135 12 153 24 q 96 0 117 0 q 45 22 65 0 q 25 72 25 43 q 32 104 25 86 l 422 1036 q 490 1085 443 1085 q 558 1036 540 1085 l 950 101 m 290 358 l 692 358 l 493 853 l 290 358 m 335 1179 q 284 1195 304 1179 q 264 1236 264 1211 q 297 1297 264 1272 l 453 1399 q 489 1410 471 1410 q 526 1399 510 1410 l 681 1297 q 714 1236 714 1272 q 694 1195 714 1211 q 644 1179 675 1179 q 599 1194 619 1179 l 489 1272 l 379 1194 q 335 1179 360 1179 m 639 1404 q 588 1424 607 1404 q 568 1475 568 1444 q 585 1522 568 1504 l 721 1658 q 771 1679 742 1679 q 822 1658 801 1679 q 842 1607 842 1638 q 822 1558 842 1576 l 688 1424 q 639 1404 668 1404 z "},"Ậ":{"ha":976,"x_min":25,"x_max":957,"o":"m 950 101 q 957 71 957 83 q 936 21 957 42 q 885 0 915 0 q 845 12 864 0 q 818 44 826 24 l 740 239 l 242 239 l 163 44 q 135 12 153 24 q 96 0 117 0 q 45 22 65 0 q 25 72 25 43 q 32 104 25 86 l 422 1036 q 490 1085 443 1085 q 558 1036 540 1085 l 950 101 m 290 358 l 692 358 l 493 853 l 290 358 m 335 1179 q 284 1195 304 1179 q 264 1236 264 1211 q 297 1297 264 1272 l 453 1399 q 489 1410 471 1410 q 526 1399 510 1410 l 681 1297 q 714 1236 714 1272 q 694 1195 714 1211 q 644 1179 675 1179 q 599 1194 619 1179 l 489 1272 l 379 1194 q 335 1179 360 1179 m 489 -311 q 424 -284 451 -311 q 397 -219 397 -257 q 424 -155 397 -182 q 489 -128 451 -128 q 553 -155 526 -128 q 581 -219 581 -182 q 553 -284 581 -257 q 489 -311 526 -311 z "},"Ầ":{"ha":976,"x_min":25,"x_max":957,"o":"m 950 101 q 957 71 957 83 q 936 21 957 42 q 885 0 915 0 q 845 12 864 0 q 818 44 826 24 l 740 239 l 242 239 l 163 44 q 135 12 153 24 q 96 0 117 0 q 45 22 65 0 q 25 72 25 43 q 32 104 25 86 l 422 1036 q 490 1085 443 1085 q 558 1036 540 1085 l 950 101 m 290 358 l 692 358 l 493 853 l 290 358 m 335 1179 q 284 1195 304 1179 q 264 1236 264 1211 q 297 1297 264 1272 l 453 1399 q 489 1410 471 1410 q 526 1399 510 1410 l 681 1297 q 714 1236 714 1272 q 694 1195 714 1211 q 644 1179 675 1179 q 599 1194 619 1179 l 489 1272 l 379 1194 q 335 1179 360 1179 m 629 1404 q 581 1424 599 1404 l 444 1558 q 426 1607 426 1576 q 446 1658 426 1638 q 496 1679 465 1679 q 547 1658 525 1679 l 682 1522 q 700 1475 700 1504 q 680 1424 700 1444 q 629 1404 660 1404 z "},"Ẩ":{"ha":976,"x_min":25,"x_max":957,"o":"m 950 101 q 957 71 957 83 q 936 21 957 42 q 885 0 915 0 q 845 12 864 0 q 818 44 826 24 l 740 239 l 242 239 l 163 44 q 135 12 153 24 q 96 0 117 0 q 45 22 65 0 q 25 72 25 43 q 32 104 25 86 l 422 1036 q 490 1085 443 1085 q 558 1036 540 1085 l 950 101 m 290 358 l 692 358 l 493 853 l 290 358 m 342 1179 q 291 1195 311 1179 q 271 1236 271 1211 q 304 1297 271 1272 l 460 1399 q 496 1410 478 1410 q 533 1399 517 1410 l 688 1297 q 721 1236 721 1272 q 701 1195 721 1211 q 651 1179 682 1179 q 606 1194 626 1179 l 496 1272 l 386 1194 q 342 1179 367 1179 m 640 1360 q 596 1378 614 1360 q 578 1422 578 1396 l 578 1453 q 633 1521 578 1508 l 669 1529 q 710 1549 694 1535 q 726 1585 726 1564 q 710 1624 726 1611 q 667 1638 694 1638 q 631 1631 649 1638 q 601 1615 613 1625 q 581 1604 593 1608 q 556 1600 568 1600 q 519 1613 533 1600 q 504 1649 504 1625 q 526 1697 504 1679 q 664 1743 583 1743 q 786 1699 739 1743 q 833 1589 833 1656 q 676 1447 835 1468 l 703 1450 q 685 1383 703 1406 q 640 1360 668 1360 z "},"Ẫ":{"ha":976,"x_min":25,"x_max":957,"o":"m 950 101 q 957 71 957 83 q 936 21 957 42 q 885 0 915 0 q 845 12 864 0 q 818 44 826 24 l 740 239 l 242 239 l 163 44 q 135 12 153 24 q 96 0 117 0 q 45 22 65 0 q 25 72 25 43 q 32 104 25 86 l 422 1036 q 490 1085 443 1085 q 558 1036 540 1085 l 950 101 m 290 358 l 692 358 l 493 853 l 290 358 m 342 1179 q 291 1195 311 1179 q 271 1236 271 1211 q 304 1297 271 1272 l 460 1399 q 496 1410 478 1410 q 533 1399 517 1410 l 688 1297 q 721 1236 721 1272 q 701 1195 721 1211 q 651 1179 682 1179 q 606 1194 626 1179 l 496 1272 l 386 1194 q 342 1179 367 1179 m 576 1444 q 456 1501 515 1444 q 425 1528 435 1521 q 403 1535 415 1535 q 380 1526 389 1535 q 358 1496 371 1517 q 333 1472 349 1481 q 301 1463 318 1463 q 278 1467 290 1463 q 251 1488 261 1474 q 242 1518 242 1501 q 250 1547 242 1533 q 392 1649 307 1649 q 454 1634 429 1649 q 494 1606 479 1619 q 514 1588 510 1592 q 561 1563 543 1563 q 592 1583 576 1563 q 653 1619 617 1619 q 675 1615 664 1619 q 703 1593 693 1607 q 713 1563 713 1579 q 703 1532 713 1549 q 645 1465 676 1486 q 576 1444 614 1444 z "},"Ȁ":{"ha":976,"x_min":25,"x_max":957,"o":"m 950 101 q 957 71 957 83 q 936 21 957 42 q 885 0 915 0 q 845 12 864 0 q 818 44 826 24 l 740 239 l 242 239 l 163 44 q 135 12 153 24 q 96 0 117 0 q 45 22 65 0 q 25 72 25 43 q 32 104 25 86 l 422 1036 q 490 1085 443 1085 q 558 1036 540 1085 l 950 101 m 290 358 l 692 358 l 493 853 l 290 358 m 429 1182 q 375 1218 394 1182 l 299 1382 q 293 1397 294 1389 q 292 1408 292 1406 q 313 1458 292 1438 q 364 1479 333 1479 q 405 1466 386 1479 q 429 1435 424 1453 l 483 1263 l 486 1240 q 469 1198 486 1214 q 429 1182 451 1182 m 628 1182 q 575 1218 592 1182 l 497 1382 q 492 1408 492 1394 q 513 1458 492 1438 q 564 1479 533 1479 q 605 1466 586 1479 q 629 1435 624 1453 l 682 1263 q 686 1240 686 1250 q 668 1198 686 1214 q 628 1182 650 1182 z "},"Ä":{"ha":976,"x_min":25,"x_max":957,"o":"m 950 101 q 957 71 957 83 q 936 21 957 42 q 885 0 915 0 q 845 12 864 0 q 818 44 826 24 l 740 239 l 242 239 l 163 44 q 135 12 153 24 q 96 0 117 0 q 45 22 65 0 q 25 72 25 43 q 32 104 25 86 l 422 1036 q 490 1085 443 1085 q 558 1036 540 1085 l 950 101 m 290 358 l 692 358 l 493 853 l 290 358 m 335 1201 q 274 1226 299 1201 q 250 1285 250 1250 q 275 1343 250 1318 q 335 1368 300 1368 q 393 1343 368 1368 q 418 1285 418 1318 q 393 1226 418 1250 q 335 1201 368 1201 m 643 1201 q 583 1226 607 1201 q 560 1285 560 1250 q 584 1343 560 1318 q 643 1368 608 1368 q 701 1343 676 1368 q 726 1285 726 1318 q 701 1226 726 1250 q 643 1201 676 1201 z "},"Ạ":{"ha":976,"x_min":25,"x_max":957,"o":"m 950 101 q 957 71 957 83 q 936 21 957 42 q 885 0 915 0 q 845 12 864 0 q 818 44 826 24 l 740 239 l 242 239 l 163 44 q 135 12 153 24 q 96 0 117 0 q 45 22 65 0 q 25 72 25 43 q 32 104 25 86 l 422 1036 q 490 1085 443 1085 q 558 1036 540 1085 l 950 101 m 290 358 l 692 358 l 493 853 l 290 358 m 489 -311 q 424 -284 451 -311 q 397 -219 397 -257 q 424 -155 397 -182 q 489 -128 451 -128 q 553 -155 526 -128 q 581 -219 581 -182 q 553 -284 581 -257 q 489 -311 526 -311 z "},"À":{"ha":976,"x_min":25,"x_max":957,"o":"m 950 101 q 957 71 957 83 q 936 21 957 42 q 885 0 915 0 q 845 12 864 0 q 818 44 826 24 l 740 239 l 242 239 l 163 44 q 135 12 153 24 q 96 0 117 0 q 45 22 65 0 q 25 72 25 43 q 32 104 25 86 l 422 1036 q 490 1085 443 1085 q 558 1036 540 1085 l 950 101 m 290 358 l 692 358 l 493 853 l 290 358 m 485 1204 q 436 1224 454 1204 l 300 1358 q 282 1407 282 1376 q 301 1458 282 1438 q 351 1479 321 1479 q 403 1458 381 1479 l 538 1322 q 556 1275 556 1304 q 535 1224 556 1244 q 485 1204 515 1204 z "},"Ả":{"ha":976,"x_min":25,"x_max":957,"o":"m 950 101 q 957 71 957 83 q 936 21 957 42 q 885 0 915 0 q 845 12 864 0 q 818 44 826 24 l 740 239 l 242 239 l 163 44 q 135 12 153 24 q 96 0 117 0 q 45 22 65 0 q 25 72 25 43 q 32 104 25 86 l 422 1036 q 490 1085 443 1085 q 558 1036 540 1085 l 950 101 m 290 358 l 692 358 l 493 853 l 290 358 m 489 1160 q 444 1178 463 1160 q 426 1222 426 1196 l 426 1253 q 482 1321 426 1308 l 518 1329 q 559 1349 543 1335 q 575 1385 575 1364 q 559 1424 575 1411 q 515 1438 543 1438 q 479 1431 497 1438 q 450 1415 461 1425 q 429 1404 442 1408 q 404 1400 417 1400 q 367 1413 382 1400 q 353 1449 353 1425 q 375 1497 353 1479 q 513 1543 432 1543 q 635 1499 588 1543 q 682 1389 682 1456 q 525 1247 683 1268 l 551 1250 q 534 1183 551 1206 q 489 1160 517 1160 z "},"Ȃ":{"ha":976,"x_min":25,"x_max":957,"o":"m 950 101 q 957 71 957 83 q 936 21 957 42 q 885 0 915 0 q 845 12 864 0 q 818 44 826 24 l 740 239 l 242 239 l 163 44 q 135 12 153 24 q 96 0 117 0 q 45 22 65 0 q 25 72 25 43 q 32 104 25 86 l 422 1036 q 490 1085 443 1085 q 558 1036 540 1085 l 950 101 m 290 358 l 692 358 l 493 853 l 290 358 m 489 1410 q 601 1387 550 1410 q 683 1324 653 1364 q 714 1236 714 1285 q 696 1185 714 1206 q 649 1165 678 1165 q 601 1181 621 1165 q 581 1222 581 1197 q 556 1276 581 1256 q 489 1296 531 1296 q 425 1274 454 1296 q 396 1222 396 1253 q 376 1181 396 1197 q 329 1165 356 1165 q 281 1185 300 1165 q 263 1236 263 1206 q 293 1324 263 1285 q 376 1387 324 1364 q 489 1410 428 1410 z "},"Ā":{"ha":976,"x_min":25,"x_max":957,"o":"m 950 101 q 957 71 957 83 q 936 21 957 42 q 885 0 915 0 q 845 12 864 0 q 818 44 826 24 l 740 239 l 242 239 l 163 44 q 135 12 153 24 q 96 0 117 0 q 45 22 65 0 q 25 72 25 43 q 32 104 25 86 l 422 1036 q 490 1085 443 1085 q 558 1036 540 1085 l 950 101 m 290 358 l 692 358 l 493 853 l 290 358 m 314 1224 q 263 1240 282 1224 q 243 1288 243 1257 q 263 1333 243 1317 q 314 1349 282 1349 l 661 1349 q 713 1333 693 1349 q 733 1288 733 1317 q 713 1240 733 1257 q 661 1224 693 1224 l 314 1224 z "},"Ą":{"ha":976,"x_min":25,"x_max":1053,"o":"m 982 -149 q 1033 -169 1013 -149 q 1053 -219 1053 -189 q 1028 -276 1053 -254 l 975 -311 q 879 -342 932 -342 q 793 -318 833 -342 q 729 -255 753 -294 q 706 -168 706 -215 q 778 -26 706 -86 q 817 18 804 -8 q 825 31 825 31 l 818 44 l 740 239 l 242 239 l 163 44 q 135 12 153 24 q 96 0 117 0 q 45 22 65 0 q 25 72 25 43 q 32 104 25 86 l 422 1036 q 490 1085 443 1085 q 558 1036 540 1085 l 950 101 q 957 71 957 85 q 939 24 957 42 q 950 -14 949 6 q 861 -140 950 -76 q 847 -168 847 -153 q 856 -191 847 -182 q 879 -200 865 -200 q 896 -194 890 -200 l 939 -162 q 982 -149 960 -149 m 290 358 l 692 358 l 493 853 l 290 358 z "},"Å":{"ha":976,"x_min":25,"x_max":957,"o":"m 950 101 q 957 71 957 83 q 936 21 957 42 q 885 0 915 0 q 845 12 864 0 q 818 44 826 24 l 740 239 l 242 239 l 163 44 q 135 12 153 24 q 96 0 117 0 q 45 22 65 0 q 25 72 25 43 q 32 104 25 86 l 422 1036 q 490 1085 443 1085 q 558 1036 540 1085 l 950 101 m 290 358 l 692 358 l 493 853 l 290 358 m 489 1139 q 382 1181 424 1139 q 340 1288 340 1222 q 382 1395 340 1353 q 489 1438 424 1438 q 596 1395 554 1438 q 638 1288 638 1353 q 596 1181 638 1222 q 489 1139 554 1139 m 489 1217 q 540 1237 519 1217 q 560 1288 560 1257 q 540 1340 560 1319 q 489 1360 519 1360 q 437 1340 457 1360 q 417 1288 417 1319 q 437 1237 417 1257 q 489 1217 457 1217 z "},"Ǻ":{"ha":976,"x_min":25,"x_max":957,"o":"m 950 101 q 957 71 957 83 q 936 21 957 42 q 885 0 915 0 q 845 12 864 0 q 818 44 826 24 l 740 239 l 242 239 l 163 44 q 135 12 153 24 q 96 0 117 0 q 45 22 65 0 q 25 72 25 43 q 32 104 25 86 l 422 1036 q 490 1085 443 1085 q 558 1036 540 1085 l 950 101 m 290 358 l 692 358 l 493 853 l 290 358 m 489 1139 q 382 1181 424 1139 q 340 1288 340 1222 q 382 1395 340 1353 q 489 1438 424 1438 q 596 1395 554 1438 q 638 1288 638 1353 q 596 1181 638 1222 q 489 1139 554 1139 m 489 1217 q 540 1237 519 1217 q 560 1288 560 1257 q 540 1340 560 1319 q 489 1360 519 1360 q 437 1340 457 1360 q 417 1288 417 1319 q 437 1237 417 1257 q 489 1217 457 1217 m 494 1488 q 443 1508 463 1488 q 424 1558 424 1528 q 440 1606 424 1588 l 576 1742 q 626 1763 597 1763 q 677 1742 657 1763 q 697 1690 697 1721 q 678 1642 697 1660 l 543 1507 q 494 1488 524 1488 z "},"Ã":{"ha":976,"x_min":25,"x_max":957,"o":"m 950 101 q 957 71 957 83 q 936 21 957 42 q 885 0 915 0 q 845 12 864 0 q 818 44 826 24 l 740 239 l 242 239 l 163 44 q 135 12 153 24 q 96 0 117 0 q 45 22 65 0 q 25 72 25 43 q 32 104 25 86 l 422 1036 q 490 1085 443 1085 q 558 1036 540 1085 l 950 101 m 290 358 l 692 358 l 493 853 l 290 358 m 586 1197 q 465 1254 525 1197 q 435 1281 444 1274 q 413 1288 425 1288 q 390 1278 399 1288 q 368 1249 381 1269 q 343 1224 358 1233 q 311 1215 328 1215 q 288 1219 300 1215 q 261 1240 271 1226 q 251 1271 251 1254 q 260 1300 251 1286 q 401 1401 317 1401 q 464 1387 439 1401 q 504 1358 489 1372 q 524 1340 519 1344 q 571 1315 553 1315 q 601 1336 586 1315 q 663 1372 626 1372 q 685 1368 674 1372 q 713 1346 703 1360 q 722 1315 722 1332 q 713 1285 722 1301 q 655 1218 686 1239 q 586 1197 624 1197 z "},"Æ":{"ha":1390,"x_min":25,"x_max":1328,"o":"m 1257 133 q 1308 115 1289 133 q 1328 68 1328 97 q 1308 19 1328 38 q 1257 0 1289 0 l 685 0 q 633 21 654 0 q 613 72 613 42 l 613 239 l 285 239 l 165 44 q 99 0 139 0 q 47 22 68 0 q 25 71 25 43 q 35 104 25 89 l 618 1040 q 694 1085 646 1085 l 1257 1085 q 1308 1066 1289 1085 q 1328 1017 1328 1047 q 1308 969 1328 988 q 1257 951 1289 951 l 757 951 l 757 614 l 1100 614 q 1151 595 1131 614 q 1171 547 1171 576 q 1151 499 1171 518 q 1100 481 1131 481 l 757 481 l 757 133 l 1257 133 m 358 358 l 613 358 l 613 781 l 358 358 z "},"Ǽ":{"ha":1390,"x_min":25,"x_max":1328,"o":"m 1257 133 q 1308 115 1289 133 q 1328 68 1328 97 q 1308 19 1328 38 q 1257 0 1289 0 l 685 0 q 633 21 654 0 q 613 72 613 42 l 613 239 l 285 239 l 165 44 q 99 0 139 0 q 47 22 68 0 q 25 71 25 43 q 35 104 25 89 l 618 1040 q 694 1085 646 1085 l 1257 1085 q 1308 1066 1289 1085 q 1328 1017 1328 1047 q 1308 969 1328 988 q 1257 951 1289 951 l 757 951 l 757 614 l 1100 614 q 1151 595 1131 614 q 1171 547 1171 576 q 1151 499 1171 518 q 1100 481 1131 481 l 757 481 l 757 133 l 1257 133 m 358 358 l 613 358 l 613 781 l 358 358 m 896 1204 q 844 1224 864 1204 q 825 1275 825 1244 q 842 1322 825 1304 l 978 1458 q 1028 1479 999 1479 q 1078 1458 1058 1479 q 1099 1407 1099 1438 q 1079 1358 1099 1376 l 944 1224 q 896 1204 925 1204 z "},"B":{"ha":1004,"x_min":139,"x_max":928,"o":"m 211 0 q 160 21 181 0 q 139 72 139 42 l 139 1013 q 160 1065 139 1044 q 211 1085 181 1085 l 543 1085 q 708 1048 636 1085 q 822 945 781 1011 q 863 796 863 879 q 826 674 863 728 q 725 586 789 619 q 874 497 819 564 q 928 328 928 431 q 883 158 928 233 q 756 42 838 83 q 572 0 675 0 l 211 0 m 543 639 q 674 679 625 639 q 724 796 724 719 q 674 912 724 872 q 543 951 625 951 l 283 951 l 283 639 l 543 639 m 572 133 q 729 184 669 133 q 789 328 789 235 q 730 460 789 414 q 572 506 671 506 l 283 506 l 283 133 l 572 133 z "},"C":{"ha":1079,"x_min":89,"x_max":992,"o":"m 625 -14 q 353 60 476 -14 q 160 261 231 133 q 89 543 89 389 q 160 823 89 696 q 353 1024 231 950 q 625 1099 476 1099 q 808 1071 731 1099 q 964 979 885 1043 q 986 953 981 967 q 992 922 992 940 q 972 876 992 894 q 925 858 951 858 q 876 876 899 858 q 765 947 819 925 q 625 968 711 968 q 426 911 517 968 q 281 756 335 854 q 228 543 228 658 q 281 329 228 426 q 426 175 335 232 q 625 118 517 118 q 881 210 758 118 q 926 226 904 226 q 970 208 953 226 q 988 158 988 189 q 965 107 988 129 q 625 -14 815 -14 z "},"Ć":{"ha":1079,"x_min":89,"x_max":992,"o":"m 625 -14 q 353 60 476 -14 q 160 261 231 133 q 89 543 89 389 q 160 823 89 696 q 353 1024 231 950 q 625 1099 476 1099 q 808 1071 731 1099 q 964 979 885 1043 q 986 953 981 967 q 992 922 992 940 q 972 876 992 894 q 925 858 951 858 q 876 876 899 858 q 765 947 819 925 q 625 968 711 968 q 426 911 517 968 q 281 756 335 854 q 228 543 228 658 q 281 329 228 426 q 426 175 335 232 q 625 118 517 118 q 881 210 758 118 q 926 226 904 226 q 970 208 953 226 q 988 158 988 189 q 965 107 988 129 q 625 -14 815 -14 m 629 1204 q 578 1224 597 1204 q 558 1275 558 1244 q 575 1322 558 1304 l 711 1458 q 761 1479 732 1479 q 812 1458 792 1479 q 832 1407 832 1438 q 813 1358 832 1376 l 678 1224 q 629 1204 658 1204 z "},"Č":{"ha":1079,"x_min":89,"x_max":992,"o":"m 625 -14 q 353 60 476 -14 q 160 261 231 133 q 89 543 89 389 q 160 823 89 696 q 353 1024 231 950 q 625 1099 476 1099 q 808 1071 731 1099 q 964 979 885 1043 q 986 953 981 967 q 992 922 992 940 q 972 876 992 894 q 925 858 951 858 q 876 876 899 858 q 765 947 819 925 q 625 968 711 968 q 426 911 517 968 q 281 756 335 854 q 228 543 228 658 q 281 329 228 426 q 426 175 335 232 q 625 118 517 118 q 881 210 758 118 q 926 226 904 226 q 970 208 953 226 q 988 158 988 189 q 965 107 988 129 q 625 -14 815 -14 m 624 1193 q 588 1204 603 1193 l 432 1307 q 399 1367 399 1332 q 413 1397 399 1385 q 451 1410 428 1410 q 514 1388 482 1410 l 624 1314 l 733 1388 q 799 1411 768 1411 q 835 1398 822 1411 q 849 1367 849 1385 q 815 1307 849 1332 l 661 1204 q 624 1193 644 1193 z "},"Ç":{"ha":1079,"x_min":89,"x_max":992,"o":"m 881 210 q 926 226 904 226 q 970 208 953 226 q 988 158 988 189 q 965 107 988 129 q 692 -10 843 7 l 675 -49 q 781 -96 747 -64 q 814 -181 814 -128 q 788 -250 814 -217 q 716 -304 763 -283 q 608 -325 669 -325 q 472 -290 526 -325 q 418 -208 418 -256 q 438 -162 418 -182 q 483 -142 457 -142 q 513 -149 501 -142 q 531 -176 524 -157 q 561 -212 540 -200 q 610 -225 582 -225 q 656 -212 638 -225 q 674 -176 674 -199 q 659 -136 674 -151 q 611 -115 644 -121 q 559 -96 576 -110 q 542 -57 542 -82 q 549 -21 542 -39 l 553 -10 q 315 85 421 8 q 149 281 210 161 q 89 543 89 401 q 160 823 89 696 q 353 1024 231 950 q 625 1099 476 1099 q 808 1071 731 1099 q 964 979 885 1043 q 986 953 981 967 q 992 922 992 940 q 972 876 992 894 q 925 858 951 858 q 876 876 899 858 q 765 947 819 925 q 625 968 711 968 q 426 911 517 968 q 281 756 335 854 q 228 543 228 658 q 281 329 228 426 q 426 175 335 232 q 625 118 517 118 q 881 210 758 118 z "},"Ĉ":{"ha":1079,"x_min":89,"x_max":992,"o":"m 625 -14 q 353 60 476 -14 q 160 261 231 133 q 89 543 89 389 q 160 823 89 696 q 353 1024 231 950 q 625 1099 476 1099 q 808 1071 731 1099 q 964 979 885 1043 q 986 953 981 967 q 992 922 992 940 q 972 876 992 894 q 925 858 951 858 q 876 876 899 858 q 765 947 819 925 q 625 968 711 968 q 426 911 517 968 q 281 756 335 854 q 228 543 228 658 q 281 329 228 426 q 426 175 335 232 q 625 118 517 118 q 881 210 758 118 q 926 226 904 226 q 970 208 953 226 q 988 158 988 189 q 965 107 988 129 q 625 -14 815 -14 m 469 1179 q 419 1195 439 1179 q 399 1236 399 1211 q 432 1297 399 1272 l 588 1399 q 624 1410 606 1410 q 661 1399 644 1410 l 815 1297 q 849 1236 849 1272 q 829 1195 849 1211 q 779 1179 810 1179 q 733 1194 754 1179 l 624 1272 l 514 1194 q 469 1179 494 1179 z "},"Ċ":{"ha":1079,"x_min":89,"x_max":992,"o":"m 625 -14 q 353 60 476 -14 q 160 261 231 133 q 89 543 89 389 q 160 823 89 696 q 353 1024 231 950 q 625 1099 476 1099 q 808 1071 731 1099 q 964 979 885 1043 q 986 953 981 967 q 992 922 992 940 q 972 876 992 894 q 925 858 951 858 q 876 876 899 858 q 765 947 819 925 q 625 968 711 968 q 426 911 517 968 q 281 756 335 854 q 228 543 228 658 q 281 329 228 426 q 426 175 335 232 q 625 118 517 118 q 881 210 758 118 q 926 226 904 226 q 970 208 953 226 q 988 158 988 189 q 965 107 988 129 q 625 -14 815 -14 m 624 1208 q 559 1235 586 1208 q 532 1300 532 1263 q 559 1365 532 1338 q 624 1392 586 1392 q 688 1365 661 1392 q 715 1300 715 1338 q 688 1235 715 1263 q 624 1208 661 1208 z "},"D":{"ha":1088,"x_min":139,"x_max":1000,"o":"m 211 0 q 160 21 181 0 q 139 72 139 42 l 139 1013 q 160 1065 139 1044 q 211 1085 181 1085 l 463 1085 q 742 1015 619 1085 q 932 823 864 946 q 1000 543 1000 700 q 932 263 1000 386 q 742 69 864 139 q 463 0 619 0 l 211 0 m 463 128 q 669 181 578 128 q 810 328 760 233 q 861 543 861 424 q 810 757 861 663 q 669 904 760 851 q 463 957 578 957 l 283 957 l 283 128 l 463 128 z "},"Ð":{"ha":1088,"x_min":-1,"x_max":1000,"o":"m 463 1085 q 742 1015 619 1085 q 932 823 864 946 q 1000 543 1000 700 q 932 263 1000 386 q 742 69 864 139 q 463 0 619 0 l 211 0 q 160 21 181 0 q 139 72 139 42 l 139 481 l 69 481 q 18 497 38 481 q -1 543 -1 514 q 18 589 -1 572 q 69 606 38 606 l 139 606 l 139 1013 q 160 1065 139 1044 q 211 1085 181 1085 l 463 1085 m 463 128 q 669 181 578 128 q 810 328 760 233 q 861 543 861 424 q 810 757 861 663 q 669 904 760 851 q 463 957 578 957 l 283 957 l 283 606 l 461 606 q 513 589 493 606 q 533 543 533 572 q 513 497 533 514 q 461 481 493 481 l 283 481 l 283 128 l 463 128 z "},"Ď":{"ha":1088,"x_min":139,"x_max":1000,"o":"m 211 0 q 160 21 181 0 q 139 72 139 42 l 139 1013 q 160 1065 139 1044 q 211 1085 181 1085 l 463 1085 q 742 1015 619 1085 q 932 823 864 946 q 1000 543 1000 700 q 932 263 1000 386 q 742 69 864 139 q 463 0 619 0 l 211 0 m 463 128 q 669 181 578 128 q 810 328 760 233 q 861 543 861 424 q 810 757 861 663 q 669 904 760 851 q 463 957 578 957 l 283 957 l 283 128 l 463 128 m 544 1193 q 508 1204 524 1193 l 353 1307 q 319 1367 319 1332 q 334 1397 319 1385 q 372 1410 349 1410 q 435 1388 403 1410 l 544 1314 l 654 1388 q 719 1411 689 1411 q 756 1398 743 1411 q 769 1367 769 1385 q 736 1307 769 1332 l 582 1204 q 544 1193 565 1193 z "},"Đ":{"ha":1088,"x_min":-1,"x_max":1000,"o":"m 463 1085 q 742 1015 619 1085 q 932 823 864 946 q 1000 543 1000 700 q 932 263 1000 386 q 742 69 864 139 q 463 0 619 0 l 211 0 q 160 21 181 0 q 139 72 139 42 l 139 481 l 69 481 q 18 497 38 481 q -1 543 -1 514 q 18 589 -1 572 q 69 606 38 606 l 139 606 l 139 1013 q 160 1065 139 1044 q 211 1085 181 1085 l 463 1085 m 463 128 q 669 181 578 128 q 810 328 760 233 q 861 543 861 424 q 810 757 861 663 q 669 904 760 851 q 463 957 578 957 l 283 957 l 283 606 l 461 606 q 513 589 493 606 q 533 543 533 572 q 513 497 533 514 q 461 481 493 481 l 283 481 l 283 128 l 463 128 z "},"E":{"ha":972,"x_min":139,"x_max":910,"o":"m 211 0 q 160 21 181 0 q 139 72 139 42 l 139 1013 q 160 1065 139 1044 q 211 1085 181 1085 l 839 1085 q 890 1066 871 1085 q 910 1017 910 1047 q 890 969 910 988 q 839 951 871 951 l 283 951 l 283 614 l 682 614 q 733 595 713 614 q 753 547 753 576 q 733 499 753 518 q 682 481 713 481 l 283 481 l 283 133 l 839 133 q 890 115 871 133 q 910 68 910 97 q 890 19 910 38 q 839 0 871 0 l 211 0 z "},"É":{"ha":972,"x_min":139,"x_max":910,"o":"m 211 0 q 160 21 181 0 q 139 72 139 42 l 139 1013 q 160 1065 139 1044 q 211 1085 181 1085 l 839 1085 q 890 1066 871 1085 q 910 1017 910 1047 q 890 969 910 988 q 839 951 871 951 l 283 951 l 283 614 l 682 614 q 733 595 713 614 q 753 547 753 576 q 733 499 753 518 q 682 481 713 481 l 283 481 l 283 133 l 839 133 q 890 115 871 133 q 910 68 910 97 q 890 19 910 38 q 839 0 871 0 l 211 0 m 547 1204 q 496 1224 515 1204 q 476 1275 476 1244 q 493 1322 476 1304 l 629 1458 q 679 1479 650 1479 q 730 1458 710 1479 q 750 1407 750 1438 q 731 1358 750 1376 l 596 1224 q 547 1204 576 1204 z "},"Ĕ":{"ha":972,"x_min":139,"x_max":910,"o":"m 211 0 q 160 21 181 0 q 139 72 139 42 l 139 1013 q 160 1065 139 1044 q 211 1085 181 1085 l 839 1085 q 890 1066 871 1085 q 910 1017 910 1047 q 890 969 910 988 q 839 951 871 951 l 283 951 l 283 614 l 682 614 q 733 595 713 614 q 753 547 753 576 q 733 499 753 518 q 682 481 713 481 l 283 481 l 283 133 l 839 133 q 890 115 871 133 q 910 68 910 97 q 890 19 910 38 q 839 0 871 0 l 211 0 m 542 1165 q 428 1188 481 1165 q 346 1251 376 1211 q 315 1339 315 1290 q 334 1390 315 1369 q 382 1410 353 1410 q 428 1394 408 1410 q 449 1353 449 1378 q 478 1301 449 1322 q 542 1279 507 1279 q 608 1299 583 1279 q 633 1353 633 1319 q 653 1394 633 1378 q 701 1410 674 1410 q 749 1390 731 1410 q 767 1339 767 1369 q 736 1251 767 1290 q 654 1188 706 1211 q 542 1165 603 1165 z "},"Ě":{"ha":972,"x_min":139,"x_max":910,"o":"m 211 0 q 160 21 181 0 q 139 72 139 42 l 139 1013 q 160 1065 139 1044 q 211 1085 181 1085 l 839 1085 q 890 1066 871 1085 q 910 1017 910 1047 q 890 969 910 988 q 839 951 871 951 l 283 951 l 283 614 l 682 614 q 733 595 713 614 q 753 547 753 576 q 733 499 753 518 q 682 481 713 481 l 283 481 l 283 133 l 839 133 q 890 115 871 133 q 910 68 910 97 q 890 19 910 38 q 839 0 871 0 l 211 0 m 542 1193 q 506 1204 521 1193 l 350 1307 q 317 1367 317 1332 q 331 1397 317 1385 q 369 1410 346 1410 q 432 1388 400 1410 l 542 1314 l 651 1388 q 717 1411 686 1411 q 753 1398 740 1411 q 767 1367 767 1385 q 733 1307 767 1332 l 579 1204 q 542 1193 563 1193 z "},"Ê":{"ha":972,"x_min":139,"x_max":910,"o":"m 211 0 q 160 21 181 0 q 139 72 139 42 l 139 1013 q 160 1065 139 1044 q 211 1085 181 1085 l 839 1085 q 890 1066 871 1085 q 910 1017 910 1047 q 890 969 910 988 q 839 951 871 951 l 283 951 l 283 614 l 682 614 q 733 595 713 614 q 753 547 753 576 q 733 499 753 518 q 682 481 713 481 l 283 481 l 283 133 l 839 133 q 890 115 871 133 q 910 68 910 97 q 890 19 910 38 q 839 0 871 0 l 211 0 m 388 1179 q 337 1195 357 1179 q 317 1236 317 1211 q 350 1297 317 1272 l 506 1399 q 542 1410 524 1410 q 579 1399 563 1410 l 733 1297 q 767 1236 767 1272 q 747 1195 767 1211 q 697 1179 728 1179 q 651 1194 672 1179 l 542 1272 l 432 1194 q 388 1179 413 1179 z "},"Ế":{"ha":972,"x_min":139,"x_max":910,"o":"m 211 0 q 160 21 181 0 q 139 72 139 42 l 139 1013 q 160 1065 139 1044 q 211 1085 181 1085 l 839 1085 q 890 1066 871 1085 q 910 1017 910 1047 q 890 969 910 988 q 839 951 871 951 l 283 951 l 283 614 l 682 614 q 733 595 713 614 q 753 547 753 576 q 733 499 753 518 q 682 481 713 481 l 283 481 l 283 133 l 839 133 q 890 115 871 133 q 910 68 910 97 q 890 19 910 38 q 839 0 871 0 l 211 0 m 388 1179 q 337 1195 357 1179 q 317 1236 317 1211 q 350 1297 317 1272 l 506 1399 q 542 1410 524 1410 q 579 1399 563 1410 l 733 1297 q 767 1236 767 1272 q 747 1195 767 1211 q 697 1179 728 1179 q 651 1194 672 1179 l 542 1272 l 432 1194 q 388 1179 413 1179 m 692 1404 q 640 1424 660 1404 q 621 1475 621 1444 q 638 1522 621 1504 l 774 1658 q 824 1679 794 1679 q 874 1658 854 1679 q 894 1607 894 1638 q 875 1558 894 1576 l 740 1424 q 692 1404 721 1404 z "},"Ệ":{"ha":972,"x_min":139,"x_max":910,"o":"m 211 0 q 160 21 181 0 q 139 72 139 42 l 139 1013 q 160 1065 139 1044 q 211 1085 181 1085 l 839 1085 q 890 1066 871 1085 q 910 1017 910 1047 q 890 969 910 988 q 839 951 871 951 l 283 951 l 283 614 l 682 614 q 733 595 713 614 q 753 547 753 576 q 733 499 753 518 q 682 481 713 481 l 283 481 l 283 133 l 839 133 q 890 115 871 133 q 910 68 910 97 q 890 19 910 38 q 839 0 871 0 l 211 0 m 388 1179 q 337 1195 357 1179 q 317 1236 317 1211 q 350 1297 317 1272 l 506 1399 q 542 1410 524 1410 q 579 1399 563 1410 l 733 1297 q 767 1236 767 1272 q 747 1195 767 1211 q 697 1179 728 1179 q 651 1194 672 1179 l 542 1272 l 432 1194 q 388 1179 413 1179 m 514 -311 q 449 -284 476 -311 q 422 -219 422 -257 q 449 -155 422 -182 q 514 -128 476 -128 q 578 -155 551 -128 q 606 -219 606 -182 q 578 -284 606 -257 q 514 -311 551 -311 z "},"Ề":{"ha":972,"x_min":139,"x_max":910,"o":"m 211 0 q 160 21 181 0 q 139 72 139 42 l 139 1013 q 160 1065 139 1044 q 211 1085 181 1085 l 839 1085 q 890 1066 871 1085 q 910 1017 910 1047 q 890 969 910 988 q 839 951 871 951 l 283 951 l 283 614 l 682 614 q 733 595 713 614 q 753 547 753 576 q 733 499 753 518 q 682 481 713 481 l 283 481 l 283 133 l 839 133 q 890 115 871 133 q 910 68 910 97 q 890 19 910 38 q 839 0 871 0 l 211 0 m 388 1179 q 337 1195 357 1179 q 317 1236 317 1211 q 350 1297 317 1272 l 506 1399 q 542 1410 524 1410 q 579 1399 563 1410 l 733 1297 q 767 1236 767 1272 q 747 1195 767 1211 q 697 1179 728 1179 q 651 1194 672 1179 l 542 1272 l 432 1194 q 388 1179 413 1179 m 682 1404 q 633 1424 651 1404 l 497 1558 q 479 1607 479 1576 q 499 1658 479 1638 q 549 1679 518 1679 q 600 1658 578 1679 l 735 1522 q 753 1475 753 1504 q 733 1424 753 1444 q 682 1404 713 1404 z "},"Ể":{"ha":972,"x_min":139,"x_max":910,"o":"m 211 0 q 160 21 181 0 q 139 72 139 42 l 139 1013 q 160 1065 139 1044 q 211 1085 181 1085 l 839 1085 q 890 1066 871 1085 q 910 1017 910 1047 q 890 969 910 988 q 839 951 871 951 l 283 951 l 283 614 l 682 614 q 733 595 713 614 q 753 547 753 576 q 733 499 753 518 q 682 481 713 481 l 283 481 l 283 133 l 839 133 q 890 115 871 133 q 910 68 910 97 q 890 19 910 38 q 839 0 871 0 l 211 0 m 394 1179 q 344 1195 364 1179 q 324 1236 324 1211 q 357 1297 324 1272 l 513 1399 q 549 1410 531 1410 q 586 1399 569 1410 l 740 1297 q 774 1236 774 1272 q 754 1195 774 1211 q 704 1179 735 1179 q 658 1194 679 1179 l 549 1272 l 439 1194 q 394 1179 419 1179 m 693 1360 q 649 1378 667 1360 q 631 1422 631 1396 l 631 1453 q 686 1521 631 1508 l 722 1529 q 763 1549 747 1535 q 779 1585 779 1564 q 763 1624 779 1611 q 719 1638 747 1638 q 683 1631 701 1638 q 654 1615 665 1625 q 633 1604 646 1608 q 608 1600 621 1600 q 572 1613 586 1600 q 557 1649 557 1625 q 579 1697 557 1679 q 717 1743 636 1743 q 839 1699 792 1743 q 886 1589 886 1656 q 729 1447 888 1468 l 756 1450 q 738 1383 756 1406 q 693 1360 721 1360 z "},"Ễ":{"ha":972,"x_min":139,"x_max":910,"o":"m 211 0 q 160 21 181 0 q 139 72 139 42 l 139 1013 q 160 1065 139 1044 q 211 1085 181 1085 l 839 1085 q 890 1066 871 1085 q 910 1017 910 1047 q 890 969 910 988 q 839 951 871 951 l 283 951 l 283 614 l 682 614 q 733 595 713 614 q 753 547 753 576 q 733 499 753 518 q 682 481 713 481 l 283 481 l 283 133 l 839 133 q 890 115 871 133 q 910 68 910 97 q 890 19 910 38 q 839 0 871 0 l 211 0 m 394 1179 q 344 1195 364 1179 q 324 1236 324 1211 q 357 1297 324 1272 l 513 1399 q 549 1410 531 1410 q 586 1399 569 1410 l 740 1297 q 774 1236 774 1272 q 754 1195 774 1211 q 704 1179 735 1179 q 658 1194 679 1179 l 549 1272 l 439 1194 q 394 1179 419 1179 m 629 1444 q 508 1501 568 1444 q 478 1528 488 1521 q 456 1535 468 1535 q 433 1526 442 1535 q 411 1496 424 1517 q 386 1472 401 1481 q 354 1463 371 1463 q 331 1467 343 1463 q 304 1488 314 1474 q 294 1518 294 1501 q 303 1547 294 1533 q 444 1649 360 1649 q 507 1634 482 1649 q 547 1606 532 1619 q 567 1588 563 1592 q 614 1563 596 1563 q 644 1583 629 1563 q 706 1619 669 1619 q 728 1615 717 1619 q 756 1593 746 1607 q 765 1563 765 1579 q 756 1532 765 1549 q 698 1465 729 1486 q 629 1444 667 1444 z "},"Ȅ":{"ha":972,"x_min":139,"x_max":910,"o":"m 211 0 q 160 21 181 0 q 139 72 139 42 l 139 1013 q 160 1065 139 1044 q 211 1085 181 1085 l 839 1085 q 890 1066 871 1085 q 910 1017 910 1047 q 890 969 910 988 q 839 951 871 951 l 283 951 l 283 614 l 682 614 q 733 595 713 614 q 753 547 753 576 q 733 499 753 518 q 682 481 713 481 l 283 481 l 283 133 l 839 133 q 890 115 871 133 q 910 68 910 97 q 890 19 910 38 q 839 0 871 0 l 211 0 m 482 1182 q 428 1218 447 1182 l 351 1382 q 346 1397 347 1389 q 344 1408 344 1406 q 365 1458 344 1438 q 417 1479 386 1479 q 458 1466 439 1479 q 482 1435 476 1453 l 536 1263 l 539 1240 q 522 1198 539 1214 q 482 1182 504 1182 m 681 1182 q 628 1218 644 1182 l 550 1382 q 544 1408 544 1394 q 565 1458 544 1438 q 617 1479 586 1479 q 658 1466 639 1479 q 682 1435 676 1453 l 735 1263 q 739 1240 739 1250 q 721 1198 739 1214 q 681 1182 703 1182 z "},"Ë":{"ha":972,"x_min":139,"x_max":910,"o":"m 211 0 q 160 21 181 0 q 139 72 139 42 l 139 1013 q 160 1065 139 1044 q 211 1085 181 1085 l 839 1085 q 890 1066 871 1085 q 910 1017 910 1047 q 890 969 910 988 q 839 951 871 951 l 283 951 l 283 614 l 682 614 q 733 595 713 614 q 753 547 753 576 q 733 499 753 518 q 682 481 713 481 l 283 481 l 283 133 l 839 133 q 890 115 871 133 q 910 68 910 97 q 890 19 910 38 q 839 0 871 0 l 211 0 m 388 1201 q 327 1226 351 1201 q 303 1285 303 1250 q 328 1343 303 1318 q 388 1368 353 1368 q 446 1343 421 1368 q 471 1285 471 1318 q 446 1226 471 1250 q 388 1201 421 1201 m 696 1201 q 636 1226 660 1201 q 613 1285 613 1250 q 637 1343 613 1318 q 696 1368 661 1368 q 754 1343 729 1368 q 779 1285 779 1318 q 754 1226 779 1250 q 696 1201 729 1201 z "},"Ė":{"ha":972,"x_min":139,"x_max":910,"o":"m 211 0 q 160 21 181 0 q 139 72 139 42 l 139 1013 q 160 1065 139 1044 q 211 1085 181 1085 l 839 1085 q 890 1066 871 1085 q 910 1017 910 1047 q 890 969 910 988 q 839 951 871 951 l 283 951 l 283 614 l 682 614 q 733 595 713 614 q 753 547 753 576 q 733 499 753 518 q 682 481 713 481 l 283 481 l 283 133 l 839 133 q 890 115 871 133 q 910 68 910 97 q 890 19 910 38 q 839 0 871 0 l 211 0 m 542 1208 q 477 1235 504 1208 q 450 1300 450 1263 q 477 1365 450 1338 q 542 1392 504 1392 q 606 1365 579 1392 q 633 1300 633 1338 q 606 1235 633 1263 q 542 1208 579 1208 z "},"Ẹ":{"ha":972,"x_min":139,"x_max":910,"o":"m 211 0 q 160 21 181 0 q 139 72 139 42 l 139 1013 q 160 1065 139 1044 q 211 1085 181 1085 l 839 1085 q 890 1066 871 1085 q 910 1017 910 1047 q 890 969 910 988 q 839 951 871 951 l 283 951 l 283 614 l 682 614 q 733 595 713 614 q 753 547 753 576 q 733 499 753 518 q 682 481 713 481 l 283 481 l 283 133 l 839 133 q 890 115 871 133 q 910 68 910 97 q 890 19 910 38 q 839 0 871 0 l 211 0 m 514 -311 q 449 -284 476 -311 q 422 -219 422 -257 q 449 -155 422 -182 q 514 -128 476 -128 q 578 -155 551 -128 q 606 -219 606 -182 q 578 -284 606 -257 q 514 -311 551 -311 z "},"È":{"ha":972,"x_min":139,"x_max":910,"o":"m 211 0 q 160 21 181 0 q 139 72 139 42 l 139 1013 q 160 1065 139 1044 q 211 1085 181 1085 l 839 1085 q 890 1066 871 1085 q 910 1017 910 1047 q 890 969 910 988 q 839 951 871 951 l 283 951 l 283 614 l 682 614 q 733 595 713 614 q 753 547 753 576 q 733 499 753 518 q 682 481 713 481 l 283 481 l 283 133 l 839 133 q 890 115 871 133 q 910 68 910 97 q 890 19 910 38 q 839 0 871 0 l 211 0 m 538 1204 q 489 1224 507 1204 l 353 1358 q 335 1407 335 1376 q 354 1458 335 1438 q 404 1479 374 1479 q 456 1458 433 1479 l 590 1322 q 608 1275 608 1304 q 588 1224 608 1244 q 538 1204 568 1204 z "},"Ẻ":{"ha":972,"x_min":139,"x_max":910,"o":"m 211 0 q 160 21 181 0 q 139 72 139 42 l 139 1013 q 160 1065 139 1044 q 211 1085 181 1085 l 839 1085 q 890 1066 871 1085 q 910 1017 910 1047 q 890 969 910 988 q 839 951 871 951 l 283 951 l 283 614 l 682 614 q 733 595 713 614 q 753 547 753 576 q 733 499 753 518 q 682 481 713 481 l 283 481 l 283 133 l 839 133 q 890 115 871 133 q 910 68 910 97 q 890 19 910 38 q 839 0 871 0 l 211 0 m 542 1160 q 497 1178 515 1160 q 479 1222 479 1196 l 479 1253 q 535 1321 479 1308 l 571 1329 q 612 1349 596 1335 q 628 1385 628 1364 q 612 1424 628 1411 q 568 1438 596 1438 q 532 1431 550 1438 q 503 1415 514 1425 q 482 1404 494 1408 q 457 1400 469 1400 q 420 1413 435 1400 q 406 1449 406 1425 q 428 1497 406 1479 q 565 1543 485 1543 q 688 1499 640 1543 q 735 1389 735 1456 q 578 1247 736 1268 l 604 1250 q 587 1183 604 1206 q 542 1160 569 1160 z "},"Ȇ":{"ha":972,"x_min":139,"x_max":910,"o":"m 211 0 q 160 21 181 0 q 139 72 139 42 l 139 1013 q 160 1065 139 1044 q 211 1085 181 1085 l 839 1085 q 890 1066 871 1085 q 910 1017 910 1047 q 890 969 910 988 q 839 951 871 951 l 283 951 l 283 614 l 682 614 q 733 595 713 614 q 753 547 753 576 q 733 499 753 518 q 682 481 713 481 l 283 481 l 283 133 l 839 133 q 890 115 871 133 q 910 68 910 97 q 890 19 910 38 q 839 0 871 0 l 211 0 m 542 1410 q 654 1387 603 1410 q 736 1324 706 1364 q 767 1236 767 1285 q 749 1185 767 1206 q 701 1165 731 1165 q 653 1181 674 1165 q 633 1222 633 1197 q 608 1276 633 1256 q 542 1296 583 1296 q 478 1274 507 1296 q 449 1222 449 1253 q 428 1181 449 1197 q 382 1165 408 1165 q 334 1185 353 1165 q 315 1236 315 1206 q 346 1324 315 1285 q 428 1387 376 1364 q 542 1410 481 1410 z "},"Ē":{"ha":972,"x_min":139,"x_max":910,"o":"m 211 0 q 160 21 181 0 q 139 72 139 42 l 139 1013 q 160 1065 139 1044 q 211 1085 181 1085 l 839 1085 q 890 1066 871 1085 q 910 1017 910 1047 q 890 969 910 988 q 839 951 871 951 l 283 951 l 283 614 l 682 614 q 733 595 713 614 q 753 547 753 576 q 733 499 753 518 q 682 481 713 481 l 283 481 l 283 133 l 839 133 q 890 115 871 133 q 910 68 910 97 q 890 19 910 38 q 839 0 871 0 l 211 0 m 367 1224 q 315 1240 335 1224 q 296 1288 296 1257 q 315 1333 296 1317 q 367 1349 335 1349 l 714 1349 q 766 1333 746 1349 q 786 1288 786 1317 q 766 1240 786 1257 q 714 1224 746 1224 l 367 1224 z "},"Ę":{"ha":972,"x_min":139,"x_max":1049,"o":"m 978 -190 q 1028 -210 1008 -190 q 1049 -261 1049 -231 q 1024 -318 1049 -296 l 971 -353 q 875 -383 928 -383 q 789 -360 829 -383 q 725 -297 749 -336 q 701 -210 701 -257 q 774 -68 701 -128 q 813 -24 800 -50 q 832 0 822 -7 l 211 0 q 160 21 181 0 q 139 72 139 42 l 139 1013 q 160 1065 139 1044 q 211 1085 181 1085 l 839 1085 q 890 1066 871 1085 q 910 1017 910 1047 q 890 969 910 988 q 839 951 871 951 l 283 951 l 283 614 l 682 614 q 733 595 713 614 q 753 547 753 576 q 733 499 753 518 q 682 481 713 481 l 283 481 l 283 133 l 839 133 q 890 115 871 133 q 910 68 910 97 q 883 14 910 32 q 927 -8 910 11 q 946 -56 944 -28 q 857 -182 946 -118 q 843 -210 843 -194 q 852 -233 843 -224 q 875 -242 861 -242 q 892 -236 886 -242 l 935 -204 q 978 -190 956 -190 z "},"Ẽ":{"ha":972,"x_min":139,"x_max":910,"o":"m 211 0 q 160 21 181 0 q 139 72 139 42 l 139 1013 q 160 1065 139 1044 q 211 1085 181 1085 l 839 1085 q 890 1066 871 1085 q 910 1017 910 1047 q 890 969 910 988 q 839 951 871 951 l 283 951 l 283 614 l 682 614 q 733 595 713 614 q 753 547 753 576 q 733 499 753 518 q 682 481 713 481 l 283 481 l 283 133 l 839 133 q 890 115 871 133 q 910 68 910 97 q 890 19 910 38 q 839 0 871 0 l 211 0 m 690 1189 q 617 1201 649 1189 q 549 1232 585 1213 q 457 1264 490 1264 q 421 1256 436 1264 q 390 1226 406 1249 q 328 1189 363 1189 q 300 1196 317 1189 q 282 1214 289 1201 q 275 1242 275 1226 q 288 1281 275 1263 q 366 1351 319 1326 q 467 1375 413 1375 q 535 1364 506 1375 q 603 1333 565 1353 q 652 1308 636 1314 q 686 1301 668 1301 q 742 1325 718 1301 q 768 1347 757 1340 q 793 1354 779 1354 q 824 1344 808 1354 q 846 1299 846 1331 q 831 1254 846 1274 q 690 1189 778 1189 z "},"F":{"ha":868,"x_min":51,"x_max":822,"o":"m 124 0 q 72 21 93 0 q 51 72 51 42 l 51 1013 q 72 1065 51 1044 q 124 1085 93 1085 l 751 1085 q 803 1066 783 1085 q 822 1017 822 1047 q 803 969 822 988 q 751 951 783 951 l 196 951 l 196 614 l 594 614 q 645 595 625 614 q 665 547 665 576 q 645 499 665 518 q 594 481 625 481 l 196 481 l 196 72 q 175 21 196 42 q 124 0 154 0 z "},"G":{"ha":1079,"x_min":89,"x_max":992,"o":"m 917 563 q 967 542 947 563 q 988 490 988 522 l 988 158 q 965 107 988 125 q 625 -14 819 -14 q 353 60 476 -14 q 160 261 231 133 q 89 543 89 389 q 160 823 89 696 q 353 1024 231 950 q 625 1099 476 1099 q 808 1071 731 1099 q 964 979 885 1043 q 986 953 981 967 q 992 922 992 940 q 972 876 992 894 q 924 858 951 858 q 876 876 899 858 q 765 947 819 925 q 625 968 711 968 q 426 911 517 968 q 281 756 335 854 q 228 543 228 658 q 281 329 228 426 q 426 175 335 232 q 625 118 517 118 q 849 188 742 118 l 849 435 l 657 435 q 605 453 625 435 q 585 499 585 471 q 605 544 585 526 q 657 563 625 563 l 917 563 z "},"Ğ":{"ha":1079,"x_min":89,"x_max":992,"o":"m 917 563 q 967 542 947 563 q 988 490 988 522 l 988 158 q 965 107 988 125 q 625 -14 819 -14 q 353 60 476 -14 q 160 261 231 133 q 89 543 89 389 q 160 823 89 696 q 353 1024 231 950 q 625 1099 476 1099 q 808 1071 731 1099 q 964 979 885 1043 q 986 953 981 967 q 992 922 992 940 q 972 876 992 894 q 924 858 951 858 q 876 876 899 858 q 765 947 819 925 q 625 968 711 968 q 426 911 517 968 q 281 756 335 854 q 228 543 228 658 q 281 329 228 426 q 426 175 335 232 q 625 118 517 118 q 849 188 742 118 l 849 435 l 657 435 q 605 453 625 435 q 585 499 585 471 q 605 544 585 526 q 657 563 625 563 l 917 563 m 624 1165 q 510 1188 563 1165 q 428 1251 458 1211 q 397 1339 397 1290 q 416 1390 397 1369 q 464 1410 435 1410 q 510 1394 490 1410 q 531 1353 531 1378 q 560 1301 531 1322 q 624 1279 589 1279 q 690 1299 665 1279 q 715 1353 715 1319 q 735 1394 715 1378 q 783 1410 756 1410 q 831 1390 813 1410 q 849 1339 849 1369 q 818 1251 849 1290 q 736 1188 788 1211 q 624 1165 685 1165 z "},"Ǧ":{"ha":1079,"x_min":89,"x_max":992,"o":"m 917 563 q 967 542 947 563 q 988 490 988 522 l 988 158 q 965 107 988 125 q 625 -14 819 -14 q 353 60 476 -14 q 160 261 231 133 q 89 543 89 389 q 160 823 89 696 q 353 1024 231 950 q 625 1099 476 1099 q 808 1071 731 1099 q 964 979 885 1043 q 986 953 981 967 q 992 922 992 940 q 972 876 992 894 q 924 858 951 858 q 876 876 899 858 q 765 947 819 925 q 625 968 711 968 q 426 911 517 968 q 281 756 335 854 q 228 543 228 658 q 281 329 228 426 q 426 175 335 232 q 625 118 517 118 q 849 188 742 118 l 849 435 l 657 435 q 605 453 625 435 q 585 499 585 471 q 605 544 585 526 q 657 563 625 563 l 917 563 m 624 1193 q 588 1204 603 1193 l 432 1307 q 399 1367 399 1332 q 413 1397 399 1385 q 451 1410 428 1410 q 514 1388 482 1410 l 624 1314 l 733 1388 q 799 1411 768 1411 q 835 1398 822 1411 q 849 1367 849 1385 q 815 1307 849 1332 l 661 1204 q 624 1193 644 1193 z "},"Ĝ":{"ha":1079,"x_min":89,"x_max":992,"o":"m 917 563 q 967 542 947 563 q 988 490 988 522 l 988 158 q 965 107 988 125 q 625 -14 819 -14 q 353 60 476 -14 q 160 261 231 133 q 89 543 89 389 q 160 823 89 696 q 353 1024 231 950 q 625 1099 476 1099 q 808 1071 731 1099 q 964 979 885 1043 q 986 953 981 967 q 992 922 992 940 q 972 876 992 894 q 924 858 951 858 q 876 876 899 858 q 765 947 819 925 q 625 968 711 968 q 426 911 517 968 q 281 756 335 854 q 228 543 228 658 q 281 329 228 426 q 426 175 335 232 q 625 118 517 118 q 849 188 742 118 l 849 435 l 657 435 q 605 453 625 435 q 585 499 585 471 q 605 544 585 526 q 657 563 625 563 l 917 563 m 469 1179 q 419 1195 439 1179 q 399 1236 399 1211 q 432 1297 399 1272 l 588 1399 q 624 1410 606 1410 q 661 1399 644 1410 l 815 1297 q 849 1236 849 1272 q 829 1195 849 1211 q 779 1179 810 1179 q 733 1194 754 1179 l 624 1272 l 514 1194 q 469 1179 494 1179 z "},"Ģ":{"ha":1079,"x_min":89,"x_max":992,"o":"m 917 563 q 967 542 947 563 q 988 490 988 522 l 988 158 q 965 107 988 125 q 625 -14 819 -14 q 353 60 476 -14 q 160 261 231 133 q 89 543 89 389 q 160 823 89 696 q 353 1024 231 950 q 625 1099 476 1099 q 808 1071 731 1099 q 964 979 885 1043 q 986 953 981 967 q 992 922 992 940 q 972 876 992 894 q 924 858 951 858 q 876 876 899 858 q 765 947 819 925 q 625 968 711 968 q 426 911 517 968 q 281 756 335 854 q 228 543 228 658 q 281 329 228 426 q 426 175 335 232 q 625 118 517 118 q 849 188 742 118 l 849 435 l 657 435 q 605 453 625 435 q 585 499 585 471 q 605 544 585 526 q 657 563 625 563 l 917 563 m 601 -343 q 482 -315 536 -343 q 428 -233 428 -286 q 442 -200 428 -212 q 476 -187 456 -187 q 504 -194 493 -187 q 529 -215 515 -201 q 564 -244 547 -235 q 613 -254 581 -254 q 669 -243 653 -254 q 686 -206 686 -232 q 582 -149 686 -149 q 533 -137 551 -149 q 515 -104 515 -125 q 596 -56 515 -56 q 731 -96 679 -56 q 782 -199 782 -136 q 731 -304 782 -265 q 601 -343 681 -343 z "},"Ġ":{"ha":1079,"x_min":89,"x_max":992,"o":"m 917 563 q 967 542 947 563 q 988 490 988 522 l 988 158 q 965 107 988 125 q 625 -14 819 -14 q 353 60 476 -14 q 160 261 231 133 q 89 543 89 389 q 160 823 89 696 q 353 1024 231 950 q 625 1099 476 1099 q 808 1071 731 1099 q 964 979 885 1043 q 986 953 981 967 q 992 922 992 940 q 972 876 992 894 q 924 858 951 858 q 876 876 899 858 q 765 947 819 925 q 625 968 711 968 q 426 911 517 968 q 281 756 335 854 q 228 543 228 658 q 281 329 228 426 q 426 175 335 232 q 625 118 517 118 q 849 188 742 118 l 849 435 l 657 435 q 605 453 625 435 q 585 499 585 471 q 605 544 585 526 q 657 563 625 563 l 917 563 m 624 1208 q 559 1235 586 1208 q 532 1300 532 1263 q 559 1365 532 1338 q 624 1392 586 1392 q 688 1365 661 1392 q 715 1300 715 1338 q 688 1235 715 1263 q 624 1208 661 1208 z "},"H":{"ha":1210,"x_min":139,"x_max":1071,"o":"m 211 0 q 160 21 181 0 q 139 72 139 42 l 139 1013 q 160 1065 139 1044 q 211 1085 181 1085 q 263 1065 243 1085 q 283 1013 283 1044 l 283 614 l 928 614 l 928 1013 q 949 1065 928 1044 q 1000 1085 969 1085 q 1051 1065 1031 1085 q 1071 1013 1071 1044 l 1071 72 q 1051 20 1071 40 q 1000 0 1031 0 q 949 21 969 0 q 928 72 928 42 l 928 486 l 283 486 l 283 72 q 263 21 283 42 q 211 0 243 0 z "},"Ħ":{"ha":1210,"x_min":32,"x_max":1178,"o":"m 1106 883 q 1159 873 1140 883 q 1178 835 1178 863 q 1159 797 1178 807 q 1106 786 1140 786 l 1071 786 l 1071 72 q 1051 20 1071 40 q 1000 0 1031 0 q 949 21 969 0 q 928 72 928 42 l 928 486 l 283 486 l 283 72 q 263 21 283 42 q 211 0 243 0 q 160 21 181 0 q 139 72 139 42 l 139 786 l 103 786 q 50 797 68 786 q 32 835 32 807 q 50 873 32 863 q 103 883 68 883 l 139 883 l 139 1013 q 160 1065 139 1044 q 211 1085 181 1085 q 263 1065 243 1085 q 283 1013 283 1044 l 283 883 l 928 883 l 928 1013 q 949 1065 928 1044 q 1000 1085 969 1085 q 1051 1065 1031 1085 q 1071 1013 1071 1044 l 1071 883 l 1106 883 m 928 614 l 928 786 l 283 786 l 283 614 l 928 614 z "},"Ĥ":{"ha":1210,"x_min":139,"x_max":1071,"o":"m 211 0 q 160 21 181 0 q 139 72 139 42 l 139 1013 q 160 1065 139 1044 q 211 1085 181 1085 q 263 1065 243 1085 q 283 1013 283 1044 l 283 614 l 928 614 l 928 1013 q 949 1065 928 1044 q 1000 1085 969 1085 q 1051 1065 1031 1085 q 1071 1013 1071 1044 l 1071 72 q 1051 20 1071 40 q 1000 0 1031 0 q 949 21 969 0 q 928 72 928 42 l 928 486 l 283 486 l 283 72 q 263 21 283 42 q 211 0 243 0 m 451 1179 q 401 1195 421 1179 q 381 1236 381 1211 q 414 1297 381 1272 l 569 1399 q 606 1410 588 1410 q 643 1399 626 1410 l 797 1297 q 831 1236 831 1272 q 811 1195 831 1211 q 761 1179 792 1179 q 715 1194 736 1179 l 606 1272 l 496 1194 q 451 1179 476 1179 z "},"I":{"ha":422,"x_min":139,"x_max":283,"o":"m 211 0 q 160 21 181 0 q 139 72 139 42 l 139 1013 q 160 1065 139 1044 q 211 1085 181 1085 q 263 1065 243 1085 q 283 1013 283 1044 l 283 72 q 263 21 283 42 q 211 0 243 0 z "},"Ĳ":{"ha":904,"x_min":139,"x_max":765,"o":"m 211 403 q 160 424 181 403 q 139 475 139 444 l 139 1013 q 160 1065 139 1044 q 211 1085 181 1085 q 263 1065 243 1085 q 283 1013 283 1044 l 283 475 q 263 424 283 444 q 211 403 243 403 m 431 -14 q 280 18 346 -14 q 176 107 214 50 q 139 236 139 164 q 160 288 139 268 q 211 308 181 308 q 263 288 243 308 q 283 236 283 268 q 324 150 283 183 q 431 117 365 117 q 567 174 514 117 q 621 319 621 231 l 621 1013 q 641 1065 621 1044 q 692 1085 661 1085 q 744 1065 724 1085 q 765 1013 765 1044 l 765 319 q 722 147 765 222 q 603 28 679 71 q 431 -14 528 -14 z "},"Í":{"ha":422,"x_min":139,"x_max":419,"o":"m 211 0 q 160 21 181 0 q 139 72 139 42 l 139 1013 q 160 1065 139 1044 q 211 1085 181 1085 q 263 1065 243 1085 q 283 1013 283 1044 l 283 72 q 263 21 283 42 q 211 0 243 0 m 217 1204 q 165 1224 185 1204 q 146 1275 146 1244 q 163 1322 146 1304 l 299 1458 q 349 1479 319 1479 q 399 1458 379 1479 q 419 1407 419 1438 q 400 1358 419 1376 l 265 1224 q 217 1204 246 1204 z "},"Ĭ":{"ha":422,"x_min":-15,"x_max":436,"o":"m 211 0 q 160 21 181 0 q 139 72 139 42 l 139 1013 q 160 1065 139 1044 q 211 1085 181 1085 q 263 1065 243 1085 q 283 1013 283 1044 l 283 72 q 263 21 283 42 q 211 0 243 0 m 211 1165 q 98 1188 150 1165 q 15 1251 46 1211 q -15 1339 -15 1290 q 3 1390 -15 1369 q 51 1410 22 1410 q 98 1394 78 1410 q 118 1353 118 1378 q 147 1301 118 1322 q 211 1279 176 1279 q 278 1299 253 1279 q 303 1353 303 1319 q 323 1394 303 1378 q 371 1410 343 1410 q 418 1390 400 1410 q 436 1339 436 1369 q 406 1251 436 1290 q 324 1188 375 1211 q 211 1165 272 1165 z "},"Î":{"ha":422,"x_min":-14,"x_max":436,"o":"m 211 0 q 160 21 181 0 q 139 72 139 42 l 139 1013 q 160 1065 139 1044 q 211 1085 181 1085 q 263 1065 243 1085 q 283 1013 283 1044 l 283 72 q 263 21 283 42 q 211 0 243 0 m 57 1179 q 6 1195 26 1179 q -14 1236 -14 1211 q 19 1297 -14 1272 l 175 1399 q 211 1410 193 1410 q 249 1399 232 1410 l 403 1297 q 436 1236 436 1272 q 417 1195 436 1211 q 367 1179 397 1179 q 321 1194 342 1179 l 211 1272 l 101 1194 q 57 1179 82 1179 z "},"Ȉ":{"ha":422,"x_min":14,"x_max":408,"o":"m 211 0 q 160 21 181 0 q 139 72 139 42 l 139 1013 q 160 1065 139 1044 q 211 1085 181 1085 q 263 1065 243 1085 q 283 1013 283 1044 l 283 72 q 263 21 283 42 q 211 0 243 0 m 151 1182 q 97 1218 117 1182 l 21 1382 q 15 1397 17 1389 q 14 1408 14 1406 q 35 1458 14 1438 q 86 1479 56 1479 q 127 1466 108 1479 q 151 1435 146 1453 l 206 1263 l 208 1240 q 191 1198 208 1214 q 151 1182 174 1182 m 350 1182 q 297 1218 314 1182 l 219 1382 q 214 1408 214 1394 q 235 1458 214 1438 q 286 1479 256 1479 q 327 1466 308 1479 q 351 1435 346 1453 l 404 1263 q 408 1240 408 1250 q 390 1198 408 1214 q 350 1182 372 1182 z "},"Ï":{"ha":422,"x_min":-28,"x_max":449,"o":"m 211 0 q 160 21 181 0 q 139 72 139 42 l 139 1013 q 160 1065 139 1044 q 211 1085 181 1085 q 263 1065 243 1085 q 283 1013 283 1044 l 283 72 q 263 21 283 42 q 211 0 243 0 m 57 1201 q -3 1226 21 1201 q -28 1285 -28 1250 q -3 1343 -28 1318 q 57 1368 22 1368 q 115 1343 90 1368 q 140 1285 140 1318 q 115 1226 140 1250 q 57 1201 90 1201 m 365 1201 q 306 1226 329 1201 q 282 1285 282 1250 q 306 1343 282 1318 q 365 1368 331 1368 q 424 1343 399 1368 q 449 1285 449 1318 q 424 1226 449 1250 q 365 1201 399 1201 z "},"İ":{"ha":422,"x_min":119,"x_max":303,"o":"m 211 0 q 160 21 181 0 q 139 72 139 42 l 139 1013 q 160 1065 139 1044 q 211 1085 181 1085 q 263 1065 243 1085 q 283 1013 283 1044 l 283 72 q 263 21 283 42 q 211 0 243 0 m 211 1208 q 147 1235 174 1208 q 119 1300 119 1263 q 147 1365 119 1338 q 211 1392 174 1392 q 276 1365 249 1392 q 303 1300 303 1338 q 276 1235 303 1263 q 211 1208 249 1208 z "},"Ị":{"ha":422,"x_min":119,"x_max":303,"o":"m 211 0 q 160 21 181 0 q 139 72 139 42 l 139 1013 q 160 1065 139 1044 q 211 1085 181 1085 q 263 1065 243 1085 q 283 1013 283 1044 l 283 72 q 263 21 283 42 q 211 0 243 0 m 211 -311 q 147 -284 174 -311 q 119 -219 119 -257 q 147 -155 119 -182 q 211 -128 174 -128 q 276 -155 249 -128 q 303 -219 303 -182 q 276 -284 303 -257 q 211 -311 249 -311 z "},"Ì":{"ha":422,"x_min":4,"x_max":283,"o":"m 211 0 q 160 21 181 0 q 139 72 139 42 l 139 1013 q 160 1065 139 1044 q 211 1085 181 1085 q 263 1065 243 1085 q 283 1013 283 1044 l 283 72 q 263 21 283 42 q 211 0 243 0 m 207 1204 q 158 1224 176 1204 l 22 1358 q 4 1407 4 1376 q 24 1458 4 1438 q 74 1479 43 1479 q 125 1458 103 1479 l 260 1322 q 278 1275 278 1304 q 258 1224 278 1244 q 207 1204 238 1204 z "},"Ỉ":{"ha":422,"x_min":75,"x_max":404,"o":"m 211 0 q 160 21 181 0 q 139 72 139 42 l 139 1013 q 160 1065 139 1044 q 211 1085 181 1085 q 263 1065 243 1085 q 283 1013 283 1044 l 283 72 q 263 21 283 42 q 211 0 243 0 m 211 1160 q 167 1178 185 1160 q 149 1222 149 1196 l 149 1253 q 204 1321 149 1308 l 240 1329 q 281 1349 265 1335 q 297 1385 297 1364 q 281 1424 297 1411 q 238 1438 265 1438 q 201 1431 219 1438 q 172 1415 183 1425 q 151 1404 164 1408 q 126 1400 139 1400 q 90 1413 104 1400 q 75 1449 75 1425 q 97 1497 75 1479 q 235 1543 154 1543 q 357 1499 310 1543 q 404 1389 404 1456 q 247 1247 406 1268 l 274 1250 q 256 1183 274 1206 q 211 1160 239 1160 z "},"Ȋ":{"ha":422,"x_min":-15,"x_max":436,"o":"m 211 0 q 160 21 181 0 q 139 72 139 42 l 139 1013 q 160 1065 139 1044 q 211 1085 181 1085 q 263 1065 243 1085 q 283 1013 283 1044 l 283 72 q 263 21 283 42 q 211 0 243 0 m 211 1410 q 324 1387 272 1410 q 406 1324 375 1364 q 436 1236 436 1285 q 418 1185 436 1206 q 371 1165 400 1165 q 323 1181 343 1165 q 303 1222 303 1197 q 278 1276 303 1256 q 211 1296 253 1296 q 147 1274 176 1296 q 118 1222 118 1253 q 98 1181 118 1197 q 51 1165 78 1165 q 3 1185 22 1165 q -15 1236 -15 1206 q 15 1324 -15 1285 q 98 1387 46 1364 q 211 1410 150 1410 z "},"Ī":{"ha":422,"x_min":-35,"x_max":456,"o":"m 211 0 q 160 21 181 0 q 139 72 139 42 l 139 1013 q 160 1065 139 1044 q 211 1085 181 1085 q 263 1065 243 1085 q 283 1013 283 1044 l 283 72 q 263 21 283 42 q 211 0 243 0 m 36 1224 q -15 1240 4 1224 q -35 1288 -35 1257 q -15 1333 -35 1317 q 36 1349 4 1349 l 383 1349 q 435 1333 415 1349 q 456 1288 456 1317 q 435 1240 456 1257 q 383 1224 415 1224 l 36 1224 z "},"Į":{"ha":422,"x_min":38,"x_max":385,"o":"m 314 -190 q 365 -210 344 -190 q 385 -261 385 -231 q 360 -318 385 -294 l 307 -353 q 211 -383 264 -383 q 125 -360 165 -383 q 61 -297 85 -336 q 38 -210 38 -257 q 110 -68 38 -128 q 149 -24 136 -50 q 179 7 158 -3 q 149 33 160 15 q 139 72 139 50 l 139 1013 q 160 1065 139 1044 q 211 1085 181 1085 q 263 1065 243 1085 q 283 1013 283 1044 l 283 72 q 273 33 283 50 q 243 7 263 15 q 270 -18 260 -1 q 282 -56 281 -35 q 193 -182 282 -118 q 179 -210 179 -194 q 188 -233 179 -224 q 211 -242 197 -242 q 228 -236 222 -242 l 271 -204 q 314 -190 292 -190 z "},"Ĩ":{"ha":422,"x_min":-26,"x_max":444,"o":"m 211 0 q 160 21 181 0 q 139 72 139 42 l 139 1013 q 160 1065 139 1044 q 211 1085 181 1085 q 263 1065 243 1085 q 283 1013 283 1044 l 283 72 q 263 21 283 42 q 211 0 243 0 m 308 1197 q 188 1254 247 1197 q 157 1281 167 1274 q 135 1288 147 1288 q 112 1278 121 1288 q 90 1249 103 1269 q 65 1224 81 1233 q 33 1215 50 1215 q 10 1219 22 1215 q -17 1240 -7 1226 q -26 1271 -26 1254 q -18 1300 -26 1286 q 124 1401 39 1401 q 186 1387 161 1401 q 226 1358 211 1372 q 246 1340 242 1344 q 293 1315 275 1315 q 324 1336 308 1315 q 385 1372 349 1372 q 407 1368 396 1372 q 435 1346 425 1360 q 444 1315 444 1332 q 435 1285 444 1301 q 377 1218 408 1239 q 308 1197 346 1197 z "},"J":{"ha":869,"x_min":63,"x_max":731,"o":"m 396 -14 q 223 28 299 -14 q 105 147 147 71 q 63 319 63 222 q 83 372 63 351 q 135 392 104 392 q 187 372 167 392 q 207 319 207 351 q 260 174 207 231 q 396 117 313 117 q 533 174 479 117 q 586 319 586 231 l 586 1013 q 606 1065 586 1044 q 657 1085 626 1085 q 710 1065 689 1085 q 731 1013 731 1044 l 731 319 q 688 147 731 222 q 569 28 644 71 q 396 -14 493 -14 z "},"Ĵ":{"ha":869,"x_min":63,"x_max":883,"o":"m 396 -14 q 223 28 299 -14 q 105 147 147 71 q 63 319 63 222 q 83 372 63 351 q 135 392 104 392 q 187 372 167 392 q 207 319 207 351 q 260 174 207 231 q 396 117 313 117 q 533 174 479 117 q 586 319 586 231 l 586 1013 q 606 1065 586 1044 q 657 1085 626 1085 q 710 1065 689 1085 q 731 1013 731 1044 l 731 319 q 688 147 731 222 q 569 28 644 71 q 396 -14 493 -14 m 504 1179 q 453 1195 474 1179 q 433 1236 433 1211 q 467 1297 433 1272 l 622 1399 q 658 1410 640 1410 q 696 1399 679 1410 l 850 1297 q 883 1236 883 1272 q 864 1195 883 1211 q 814 1179 844 1179 q 768 1194 789 1179 l 658 1272 l 549 1194 q 504 1179 529 1179 z "},"K":{"ha":926,"x_min":139,"x_max":864,"o":"m 211 0 q 160 21 182 0 q 139 72 139 42 l 139 1013 q 160 1064 139 1043 q 211 1085 182 1085 q 263 1064 242 1085 q 283 1013 283 1043 l 283 596 l 743 1056 q 773 1078 760 1072 q 803 1085 786 1085 q 848 1067 832 1085 q 864 1025 864 1050 q 838 963 864 989 l 483 607 l 844 115 q 858 71 858 96 q 840 22 858 43 q 794 0 822 0 q 735 31 756 0 l 383 507 l 283 407 l 283 72 q 263 21 283 42 q 211 0 242 0 z "},"Ķ":{"ha":926,"x_min":139,"x_max":864,"o":"m 211 0 q 160 21 182 0 q 139 72 139 42 l 139 1013 q 160 1064 139 1043 q 211 1085 182 1085 q 263 1064 242 1085 q 283 1013 283 1043 l 283 596 l 743 1056 q 773 1078 760 1072 q 803 1085 786 1085 q 848 1067 832 1085 q 864 1025 864 1050 q 838 963 864 989 l 483 607 l 844 115 q 858 71 858 96 q 840 22 858 43 q 794 0 822 0 q 735 31 756 0 l 383 507 l 283 407 l 283 72 q 263 21 283 42 q 211 0 242 0 m 469 -343 q 350 -315 404 -343 q 296 -233 296 -286 q 310 -200 296 -212 q 344 -187 324 -187 q 372 -194 361 -187 q 397 -215 383 -201 q 432 -244 415 -235 q 481 -254 449 -254 q 538 -243 521 -254 q 554 -206 554 -232 q 450 -149 554 -149 q 401 -137 419 -149 q 383 -104 383 -125 q 464 -56 383 -56 q 599 -96 547 -56 q 650 -199 650 -136 q 599 -304 650 -265 q 469 -343 549 -343 z "},"L":{"ha":892,"x_min":139,"x_max":857,"o":"m 210 0 q 159 21 179 0 q 139 72 139 42 l 139 1013 q 160 1064 139 1043 q 210 1085 181 1085 q 261 1064 240 1085 q 282 1013 282 1043 l 282 144 l 785 144 q 836 124 815 144 q 857 72 857 103 q 836 21 857 42 q 785 0 815 0 l 210 0 z "},"Ĺ":{"ha":892,"x_min":139,"x_max":857,"o":"m 210 0 q 159 21 179 0 q 139 72 139 42 l 139 1013 q 160 1064 139 1043 q 210 1085 181 1085 q 261 1064 240 1085 q 282 1013 282 1043 l 282 144 l 785 144 q 836 124 815 144 q 857 72 857 103 q 836 21 857 42 q 785 0 815 0 l 210 0 m 215 1204 q 164 1224 183 1204 q 144 1275 144 1244 q 161 1322 144 1304 l 297 1458 q 347 1479 318 1479 q 398 1458 378 1479 q 418 1407 418 1438 q 399 1358 418 1376 l 264 1224 q 215 1204 244 1204 z "},"Ľ":{"ha":892,"x_min":139,"x_max":857,"o":"m 210 0 q 159 21 179 0 q 139 72 139 42 l 139 1013 q 160 1064 139 1043 q 210 1085 181 1085 q 261 1064 240 1085 q 282 1013 282 1043 l 282 144 l 785 144 q 836 124 815 144 q 857 72 857 103 q 836 21 857 42 q 785 0 815 0 l 210 0 m 531 699 q 492 731 492 699 q 501 763 492 746 q 529 806 510 781 q 563 858 551 836 q 578 903 575 879 q 579 919 579 908 q 568 974 579 940 q 561 994 567 976 q 556 1038 556 1013 q 575 1080 556 1064 q 624 1096 594 1096 q 688 1064 664 1096 q 713 985 713 1032 q 680 856 713 922 q 603 744 647 789 q 531 699 560 699 z "},"Ļ":{"ha":892,"x_min":139,"x_max":857,"o":"m 210 0 q 159 21 179 0 q 139 72 139 42 l 139 1013 q 160 1064 139 1043 q 210 1085 181 1085 q 261 1064 240 1085 q 282 1013 282 1043 l 282 144 l 785 144 q 836 124 815 144 q 857 72 857 103 q 836 21 857 42 q 785 0 815 0 l 210 0 m 465 -343 q 346 -315 400 -343 q 292 -233 292 -286 q 306 -200 292 -212 q 340 -187 319 -187 q 368 -194 357 -187 q 393 -215 379 -201 q 428 -244 411 -235 q 476 -254 444 -254 q 533 -243 517 -254 q 550 -206 550 -232 q 446 -149 550 -149 q 397 -137 415 -149 q 379 -104 379 -125 q 460 -56 379 -56 q 594 -96 543 -56 q 646 -199 646 -136 q 595 -304 646 -265 q 465 -343 544 -343 z "},"Ŀ":{"ha":814,"x_min":139,"x_max":857,"o":"m 210 0 q 159 21 179 0 q 139 72 139 42 l 139 1013 q 160 1064 139 1043 q 210 1085 181 1085 q 261 1064 240 1085 q 282 1013 282 1043 l 282 144 l 785 144 q 836 124 815 144 q 857 72 857 103 q 836 21 857 42 q 785 0 815 0 l 210 0 m 622 413 q 555 441 583 413 q 526 508 526 469 q 555 577 526 549 q 622 606 583 606 q 690 577 661 606 q 718 508 718 549 q 690 441 718 469 q 622 413 663 413 z "},"Ł":{"ha":922,"x_min":15,"x_max":875,"o":"m 228 0 q 176 21 197 0 q 156 72 156 42 l 156 372 l 139 354 q 90 333 118 333 q 37 354 58 333 q 15 406 15 375 q 36 456 15 435 l 156 575 l 156 1013 q 176 1064 156 1043 q 228 1085 197 1085 q 279 1064 258 1085 q 300 1013 300 1043 l 300 717 l 469 879 q 521 900 490 900 q 572 878 550 900 q 593 826 593 856 q 572 776 593 797 l 300 515 l 300 144 l 803 144 q 854 124 833 144 q 875 72 875 103 q 854 21 875 42 q 803 0 833 0 l 228 0 z "},"M":{"ha":1364,"x_min":139,"x_max":1225,"o":"m 1153 1085 q 1204 1064 1183 1085 q 1225 1013 1225 1043 l 1225 72 q 1203 21 1225 42 q 1153 0 1182 0 q 1101 21 1122 0 q 1081 72 1081 42 l 1081 763 l 744 78 q 682 42 721 42 q 615 85 636 42 l 283 750 l 283 72 q 263 21 283 42 q 211 0 242 0 q 160 21 181 0 q 139 72 139 42 l 139 1013 q 160 1064 139 1043 q 211 1085 181 1085 q 275 1046 253 1085 l 688 219 l 1089 1046 q 1153 1085 1111 1085 z "},"N":{"ha":1153,"x_min":139,"x_max":1014,"o":"m 210 0 q 159 20 179 0 q 139 72 139 40 l 139 1013 q 159 1065 139 1044 q 210 1085 179 1085 q 240 1077 225 1085 q 265 1058 256 1069 l 871 253 l 871 1013 q 892 1065 871 1044 q 943 1085 913 1085 q 994 1065 974 1085 q 1014 1013 1014 1044 l 1014 72 q 994 20 1014 40 q 943 0 974 0 q 912 6 928 0 q 888 25 896 13 l 282 831 l 282 72 q 262 21 282 42 q 210 0 242 0 z "},"Ń":{"ha":1153,"x_min":139,"x_max":1014,"o":"m 210 0 q 159 20 179 0 q 139 72 139 40 l 139 1013 q 159 1065 139 1044 q 210 1085 179 1085 q 240 1077 225 1085 q 265 1058 256 1069 l 871 253 l 871 1013 q 892 1065 871 1044 q 943 1085 913 1085 q 994 1065 974 1085 q 1014 1013 1014 1044 l 1014 72 q 994 20 1014 40 q 943 0 974 0 q 912 6 928 0 q 888 25 896 13 l 282 831 l 282 72 q 262 21 282 42 q 210 0 242 0 m 582 1204 q 531 1224 550 1204 q 511 1275 511 1244 q 528 1322 511 1304 l 664 1458 q 714 1479 685 1479 q 765 1458 744 1479 q 785 1407 785 1438 q 765 1358 785 1376 l 631 1224 q 582 1204 611 1204 z "},"Ň":{"ha":1153,"x_min":139,"x_max":1014,"o":"m 210 0 q 159 20 179 0 q 139 72 139 40 l 139 1013 q 159 1065 139 1044 q 210 1085 179 1085 q 240 1077 225 1085 q 265 1058 256 1069 l 871 253 l 871 1013 q 892 1065 871 1044 q 943 1085 913 1085 q 994 1065 974 1085 q 1014 1013 1014 1044 l 1014 72 q 994 20 1014 40 q 943 0 974 0 q 912 6 928 0 q 888 25 896 13 l 282 831 l 282 72 q 262 21 282 42 q 210 0 242 0 m 576 1193 q 540 1204 556 1193 l 385 1307 q 351 1367 351 1332 q 366 1397 351 1385 q 404 1410 381 1410 q 467 1388 435 1410 l 576 1314 l 686 1388 q 751 1411 721 1411 q 788 1398 775 1411 q 801 1367 801 1385 q 768 1307 801 1332 l 614 1204 q 576 1193 597 1193 z "},"Ņ":{"ha":1153,"x_min":139,"x_max":1014,"o":"m 210 0 q 159 20 179 0 q 139 72 139 40 l 139 1013 q 159 1065 139 1044 q 210 1085 179 1085 q 240 1077 225 1085 q 265 1058 256 1069 l 871 253 l 871 1013 q 892 1065 871 1044 q 943 1085 913 1085 q 994 1065 974 1085 q 1014 1013 1014 1044 l 1014 72 q 994 20 1014 40 q 943 0 974 0 q 912 6 928 0 q 888 25 896 13 l 282 831 l 282 72 q 262 21 282 42 q 210 0 242 0 m 582 -343 q 463 -315 517 -343 q 408 -233 408 -286 q 422 -200 408 -212 q 457 -187 436 -187 q 485 -194 474 -187 q 510 -215 496 -201 q 544 -244 528 -235 q 593 -254 561 -254 q 650 -243 633 -254 q 667 -206 667 -232 q 563 -149 667 -149 q 514 -137 532 -149 q 496 -104 496 -125 q 576 -56 496 -56 q 711 -96 660 -56 q 763 -199 763 -136 q 712 -304 763 -265 q 582 -343 661 -343 z "},"Ŋ":{"ha":1040,"x_min":139,"x_max":943,"o":"m 546 1086 q 758 1028 668 1086 q 896 869 849 971 q 943 633 943 767 l 943 524 q 858 124 943 261 q 610 -14 772 -14 q 458 26 525 -14 q 364 144 392 67 q 360 169 360 157 q 376 211 360 194 q 419 228 392 228 q 455 215 439 228 q 481 182 471 203 q 526 138 493 151 q 601 124 560 124 q 719 167 676 124 q 781 297 763 210 q 800 524 800 385 l 800 633 q 733 869 800 786 q 536 951 665 951 q 351 890 421 951 q 282 732 282 829 l 282 72 q 261 21 282 42 q 210 0 240 0 q 159 21 179 0 q 139 72 139 42 l 139 1013 q 159 1064 139 1043 q 210 1085 179 1085 q 262 1065 242 1085 q 282 1013 282 1044 l 282 943 q 397 1050 333 1014 q 546 1086 460 1086 z "},"Ñ":{"ha":1153,"x_min":139,"x_max":1014,"o":"m 210 0 q 159 20 179 0 q 139 72 139 40 l 139 1013 q 159 1065 139 1044 q 210 1085 179 1085 q 240 1077 225 1085 q 265 1058 256 1069 l 871 253 l 871 1013 q 892 1065 871 1044 q 943 1085 913 1085 q 994 1065 974 1085 q 1014 1013 1014 1044 l 1014 72 q 994 20 1014 40 q 943 0 974 0 q 912 6 928 0 q 888 25 896 13 l 282 831 l 282 72 q 262 21 282 42 q 210 0 242 0 m 725 1189 q 651 1201 683 1189 q 583 1232 619 1213 q 492 1264 525 1264 q 456 1256 471 1264 q 425 1226 440 1249 q 363 1189 397 1189 q 335 1196 351 1189 q 317 1214 324 1201 q 310 1242 310 1226 q 322 1281 310 1263 q 401 1351 354 1326 q 501 1375 447 1375 q 570 1364 540 1375 q 638 1333 600 1353 q 687 1308 671 1314 q 721 1301 703 1301 q 776 1325 753 1301 q 803 1347 792 1340 q 828 1354 814 1354 q 858 1344 843 1354 q 881 1299 881 1331 q 865 1254 881 1274 q 725 1189 813 1189 z "},"O":{"ha":1279,"x_min":89,"x_max":1192,"o":"m 640 -14 q 353 57 479 -14 q 158 255 228 128 q 89 543 89 382 q 158 831 89 704 q 353 1028 228 957 q 640 1099 479 1099 q 926 1028 800 1099 q 1122 831 1051 957 q 1192 543 1192 704 q 1122 255 1192 382 q 926 57 1051 128 q 640 -14 801 -14 m 640 117 q 853 173 758 117 q 1000 326 947 229 q 1053 543 1053 424 q 1000 760 1053 663 q 853 913 947 857 q 640 968 760 968 q 427 913 521 968 q 281 760 333 857 q 228 543 228 663 q 281 326 228 424 q 428 173 333 229 q 640 117 522 117 z "},"Ó":{"ha":1279,"x_min":89,"x_max":1192,"o":"m 640 -14 q 353 57 479 -14 q 158 255 228 128 q 89 543 89 382 q 158 831 89 704 q 353 1028 228 957 q 640 1099 479 1099 q 926 1028 800 1099 q 1122 831 1051 957 q 1192 543 1192 704 q 1122 255 1192 382 q 926 57 1051 128 q 640 -14 801 -14 m 640 117 q 853 173 758 117 q 1000 326 947 229 q 1053 543 1053 424 q 1000 760 1053 663 q 853 913 947 857 q 640 968 760 968 q 427 913 521 968 q 281 760 333 857 q 228 543 228 663 q 281 326 228 424 q 428 173 333 229 q 640 117 522 117 m 646 1204 q 594 1224 614 1204 q 575 1275 575 1244 q 592 1322 575 1304 l 728 1458 q 778 1479 749 1479 q 828 1458 808 1479 q 849 1407 849 1438 q 829 1358 849 1376 l 694 1224 q 646 1204 675 1204 z "},"Ŏ":{"ha":1279,"x_min":89,"x_max":1192,"o":"m 640 -14 q 353 57 479 -14 q 158 255 228 128 q 89 543 89 382 q 158 831 89 704 q 353 1028 228 957 q 640 1099 479 1099 q 926 1028 800 1099 q 1122 831 1051 957 q 1192 543 1192 704 q 1122 255 1192 382 q 926 57 1051 128 q 640 -14 801 -14 m 640 117 q 853 173 758 117 q 1000 326 947 229 q 1053 543 1053 424 q 1000 760 1053 663 q 853 913 947 857 q 640 968 760 968 q 427 913 521 968 q 281 760 333 857 q 228 543 228 663 q 281 326 228 424 q 428 173 333 229 q 640 117 522 117 m 640 1165 q 527 1188 579 1165 q 444 1251 475 1211 q 414 1339 414 1290 q 433 1390 414 1369 q 481 1410 451 1410 q 527 1394 507 1410 q 547 1353 547 1378 q 576 1301 547 1322 q 640 1279 606 1279 q 707 1299 682 1279 q 732 1353 732 1319 q 752 1394 732 1378 q 800 1410 772 1410 q 847 1390 829 1410 q 865 1339 865 1369 q 835 1251 865 1290 q 753 1188 804 1211 q 640 1165 701 1165 z "},"Ô":{"ha":1279,"x_min":89,"x_max":1192,"o":"m 640 -14 q 353 57 479 -14 q 158 255 228 128 q 89 543 89 382 q 158 831 89 704 q 353 1028 228 957 q 640 1099 479 1099 q 926 1028 800 1099 q 1122 831 1051 957 q 1192 543 1192 704 q 1122 255 1192 382 q 926 57 1051 128 q 640 -14 801 -14 m 640 117 q 853 173 758 117 q 1000 326 947 229 q 1053 543 1053 424 q 1000 760 1053 663 q 853 913 947 857 q 640 968 760 968 q 427 913 521 968 q 281 760 333 857 q 228 543 228 663 q 281 326 228 424 q 428 173 333 229 q 640 117 522 117 m 486 1179 q 435 1195 456 1179 q 415 1236 415 1211 q 449 1297 415 1272 l 604 1399 q 640 1410 622 1410 q 678 1399 661 1410 l 832 1297 q 865 1236 865 1272 q 846 1195 865 1211 q 796 1179 826 1179 q 750 1194 771 1179 l 640 1272 l 531 1194 q 486 1179 511 1179 z "},"Ố":{"ha":1279,"x_min":89,"x_max":1192,"o":"m 640 -14 q 353 57 479 -14 q 158 255 228 128 q 89 543 89 382 q 158 831 89 704 q 353 1028 228 957 q 640 1099 479 1099 q 926 1028 800 1099 q 1122 831 1051 957 q 1192 543 1192 704 q 1122 255 1192 382 q 926 57 1051 128 q 640 -14 801 -14 m 640 117 q 853 173 758 117 q 1000 326 947 229 q 1053 543 1053 424 q 1000 760 1053 663 q 853 913 947 857 q 640 968 760 968 q 427 913 521 968 q 281 760 333 857 q 228 543 228 663 q 281 326 228 424 q 428 173 333 229 q 640 117 522 117 m 486 1179 q 435 1195 456 1179 q 415 1236 415 1211 q 449 1297 415 1272 l 604 1399 q 640 1410 622 1410 q 678 1399 661 1410 l 832 1297 q 865 1236 865 1272 q 846 1195 865 1211 q 796 1179 826 1179 q 750 1194 771 1179 l 640 1272 l 531 1194 q 486 1179 511 1179 m 790 1404 q 739 1424 758 1404 q 719 1475 719 1444 q 736 1522 719 1504 l 872 1658 q 922 1679 893 1679 q 973 1658 953 1679 q 993 1607 993 1638 q 974 1558 993 1576 l 839 1424 q 790 1404 819 1404 z "},"Ộ":{"ha":1279,"x_min":89,"x_max":1192,"o":"m 640 -14 q 353 57 479 -14 q 158 255 228 128 q 89 543 89 382 q 158 831 89 704 q 353 1028 228 957 q 640 1099 479 1099 q 926 1028 800 1099 q 1122 831 1051 957 q 1192 543 1192 704 q 1122 255 1192 382 q 926 57 1051 128 q 640 -14 801 -14 m 640 117 q 853 173 758 117 q 1000 326 947 229 q 1053 543 1053 424 q 1000 760 1053 663 q 853 913 947 857 q 640 968 760 968 q 427 913 521 968 q 281 760 333 857 q 228 543 228 663 q 281 326 228 424 q 428 173 333 229 q 640 117 522 117 m 486 1179 q 435 1195 456 1179 q 415 1236 415 1211 q 449 1297 415 1272 l 604 1399 q 640 1410 622 1410 q 678 1399 661 1410 l 832 1297 q 865 1236 865 1272 q 846 1195 865 1211 q 796 1179 826 1179 q 750 1194 771 1179 l 640 1272 l 531 1194 q 486 1179 511 1179 m 640 -311 q 576 -284 603 -311 q 549 -219 549 -257 q 576 -155 549 -182 q 640 -128 603 -128 q 705 -155 678 -128 q 732 -219 732 -182 q 705 -284 732 -257 q 640 -311 678 -311 z "},"Ồ":{"ha":1279,"x_min":89,"x_max":1192,"o":"m 640 -14 q 353 57 479 -14 q 158 255 228 128 q 89 543 89 382 q 158 831 89 704 q 353 1028 228 957 q 640 1099 479 1099 q 926 1028 800 1099 q 1122 831 1051 957 q 1192 543 1192 704 q 1122 255 1192 382 q 926 57 1051 128 q 640 -14 801 -14 m 640 117 q 853 173 758 117 q 1000 326 947 229 q 1053 543 1053 424 q 1000 760 1053 663 q 853 913 947 857 q 640 968 760 968 q 427 913 521 968 q 281 760 333 857 q 228 543 228 663 q 281 326 228 424 q 428 173 333 229 q 640 117 522 117 m 486 1179 q 435 1195 456 1179 q 415 1236 415 1211 q 449 1297 415 1272 l 604 1399 q 640 1410 622 1410 q 678 1399 661 1410 l 832 1297 q 865 1236 865 1272 q 846 1195 865 1211 q 796 1179 826 1179 q 750 1194 771 1179 l 640 1272 l 531 1194 q 486 1179 511 1179 m 781 1404 q 732 1424 750 1404 l 596 1558 q 578 1607 578 1576 q 597 1658 578 1638 q 647 1679 617 1679 q 699 1658 676 1679 l 833 1522 q 851 1475 851 1504 q 831 1424 851 1444 q 781 1404 811 1404 z "},"Ổ":{"ha":1279,"x_min":89,"x_max":1192,"o":"m 640 -14 q 353 57 479 -14 q 158 255 228 128 q 89 543 89 382 q 158 831 89 704 q 353 1028 228 957 q 640 1099 479 1099 q 926 1028 800 1099 q 1122 831 1051 957 q 1192 543 1192 704 q 1122 255 1192 382 q 926 57 1051 128 q 640 -14 801 -14 m 640 117 q 853 173 758 117 q 1000 326 947 229 q 1053 543 1053 424 q 1000 760 1053 663 q 853 913 947 857 q 640 968 760 968 q 427 913 521 968 q 281 760 333 857 q 228 543 228 663 q 281 326 228 424 q 428 173 333 229 q 640 117 522 117 m 493 1179 q 442 1195 463 1179 q 422 1236 422 1211 q 456 1297 422 1272 l 611 1399 q 647 1410 629 1410 q 685 1399 668 1410 l 839 1297 q 872 1236 872 1272 q 853 1195 872 1211 q 803 1179 833 1179 q 757 1194 778 1179 l 647 1272 l 538 1194 q 493 1179 518 1179 m 792 1360 q 747 1378 765 1360 q 729 1422 729 1396 l 729 1453 q 785 1521 729 1508 l 821 1529 q 862 1549 846 1535 q 878 1585 878 1564 q 862 1624 878 1611 q 818 1638 846 1638 q 782 1631 800 1638 q 753 1615 764 1625 q 732 1604 744 1608 q 707 1600 719 1600 q 670 1613 685 1600 q 656 1649 656 1625 q 678 1697 656 1679 q 815 1743 735 1743 q 938 1699 890 1743 q 985 1589 985 1656 q 828 1447 986 1468 l 854 1450 q 837 1383 854 1406 q 792 1360 819 1360 z "},"Ỗ":{"ha":1279,"x_min":89,"x_max":1192,"o":"m 640 -14 q 353 57 479 -14 q 158 255 228 128 q 89 543 89 382 q 158 831 89 704 q 353 1028 228 957 q 640 1099 479 1099 q 926 1028 800 1099 q 1122 831 1051 957 q 1192 543 1192 704 q 1122 255 1192 382 q 926 57 1051 128 q 640 -14 801 -14 m 640 117 q 853 173 758 117 q 1000 326 947 229 q 1053 543 1053 424 q 1000 760 1053 663 q 853 913 947 857 q 640 968 760 968 q 427 913 521 968 q 281 760 333 857 q 228 543 228 663 q 281 326 228 424 q 428 173 333 229 q 640 117 522 117 m 493 1179 q 442 1195 463 1179 q 422 1236 422 1211 q 456 1297 422 1272 l 611 1399 q 647 1410 629 1410 q 685 1399 668 1410 l 839 1297 q 872 1236 872 1272 q 853 1195 872 1211 q 803 1179 833 1179 q 757 1194 778 1179 l 647 1272 l 538 1194 q 493 1179 518 1179 m 728 1444 q 607 1501 667 1444 q 576 1528 586 1521 q 554 1535 567 1535 q 531 1526 540 1535 q 510 1496 522 1517 q 485 1472 500 1481 q 453 1463 469 1463 q 429 1467 442 1463 q 403 1488 413 1474 q 393 1518 393 1501 q 401 1547 393 1533 q 543 1649 458 1649 q 606 1634 581 1649 q 646 1606 631 1619 q 665 1588 661 1592 q 713 1563 694 1563 q 743 1583 728 1563 q 804 1619 768 1619 q 826 1615 815 1619 q 854 1593 844 1607 q 864 1563 864 1579 q 854 1532 864 1549 q 797 1465 828 1486 q 728 1444 765 1444 z "},"Ȍ":{"ha":1279,"x_min":89,"x_max":1192,"o":"m 640 -14 q 353 57 479 -14 q 158 255 228 128 q 89 543 89 382 q 158 831 89 704 q 353 1028 228 957 q 640 1099 479 1099 q 926 1028 800 1099 q 1122 831 1051 957 q 1192 543 1192 704 q 1122 255 1192 382 q 926 57 1051 128 q 640 -14 801 -14 m 640 117 q 853 173 758 117 q 1000 326 947 229 q 1053 543 1053 424 q 1000 760 1053 663 q 853 913 947 857 q 640 968 760 968 q 427 913 521 968 q 281 760 333 857 q 228 543 228 663 q 281 326 228 424 q 428 173 333 229 q 640 117 522 117 m 581 1182 q 526 1218 546 1182 l 450 1382 q 444 1397 446 1389 q 443 1408 443 1406 q 464 1458 443 1438 q 515 1479 485 1479 q 556 1466 538 1479 q 581 1435 575 1453 l 635 1263 l 638 1240 q 620 1198 638 1214 q 581 1182 603 1182 m 779 1182 q 726 1218 743 1182 l 649 1382 q 643 1408 643 1394 q 664 1458 643 1438 q 715 1479 685 1479 q 756 1466 738 1479 q 781 1435 775 1453 l 833 1263 q 838 1240 838 1250 q 819 1198 838 1214 q 779 1182 801 1182 z "},"Ö":{"ha":1279,"x_min":89,"x_max":1192,"o":"m 640 -14 q 353 57 479 -14 q 158 255 228 128 q 89 543 89 382 q 158 831 89 704 q 353 1028 228 957 q 640 1099 479 1099 q 926 1028 800 1099 q 1122 831 1051 957 q 1192 543 1192 704 q 1122 255 1192 382 q 926 57 1051 128 q 640 -14 801 -14 m 640 117 q 853 173 758 117 q 1000 326 947 229 q 1053 543 1053 424 q 1000 760 1053 663 q 853 913 947 857 q 640 968 760 968 q 427 913 521 968 q 281 760 333 857 q 228 543 228 663 q 281 326 228 424 q 428 173 333 229 q 640 117 522 117 m 486 1201 q 426 1226 450 1201 q 401 1285 401 1250 q 426 1343 401 1318 q 486 1368 451 1368 q 544 1343 519 1368 q 569 1285 569 1318 q 544 1226 569 1250 q 486 1201 519 1201 m 794 1201 q 735 1226 758 1201 q 711 1285 711 1250 q 735 1343 711 1318 q 794 1368 760 1368 q 853 1343 828 1368 q 878 1285 878 1318 q 853 1226 878 1250 q 794 1201 828 1201 z "},"Ȫ":{"ha":1279,"x_min":89,"x_max":1192,"o":"m 640 -14 q 353 57 479 -14 q 158 255 228 128 q 89 543 89 382 q 158 831 89 704 q 353 1028 228 957 q 640 1099 479 1099 q 926 1028 800 1099 q 1122 831 1051 957 q 1192 543 1192 704 q 1122 255 1192 382 q 926 57 1051 128 q 640 -14 801 -14 m 640 117 q 853 173 758 117 q 1000 326 947 229 q 1053 543 1053 424 q 1000 760 1053 663 q 853 913 947 857 q 640 968 760 968 q 427 913 521 968 q 281 760 333 857 q 228 543 228 663 q 281 326 228 424 q 428 173 333 229 q 640 117 522 117 m 486 1201 q 426 1226 450 1201 q 401 1285 401 1250 q 426 1343 401 1318 q 486 1368 451 1368 q 544 1343 519 1368 q 569 1285 569 1318 q 544 1226 569 1250 q 486 1201 519 1201 m 794 1201 q 735 1226 758 1201 q 711 1285 711 1250 q 735 1343 711 1318 q 794 1368 760 1368 q 853 1343 828 1368 q 878 1285 878 1318 q 853 1226 878 1250 q 794 1201 828 1201 m 465 1507 q 414 1524 433 1507 q 394 1571 394 1540 q 414 1616 394 1600 q 465 1632 433 1632 l 813 1632 q 865 1616 844 1632 q 885 1571 885 1600 q 865 1524 885 1540 q 813 1507 844 1507 l 465 1507 z "},"Ȱ":{"ha":1279,"x_min":89,"x_max":1192,"o":"m 640 -14 q 353 57 479 -14 q 158 255 228 128 q 89 543 89 382 q 158 831 89 704 q 353 1028 228 957 q 640 1099 479 1099 q 926 1028 800 1099 q 1122 831 1051 957 q 1192 543 1192 704 q 1122 255 1192 382 q 926 57 1051 128 q 640 -14 801 -14 m 640 117 q 853 173 758 117 q 1000 326 947 229 q 1053 543 1053 424 q 1000 760 1053 663 q 853 913 947 857 q 640 968 760 968 q 427 913 521 968 q 281 760 333 857 q 228 543 228 663 q 281 326 228 424 q 428 173 333 229 q 640 117 522 117 m 640 1208 q 576 1235 603 1208 q 549 1300 549 1263 q 576 1365 549 1338 q 640 1392 603 1392 q 705 1365 678 1392 q 732 1300 732 1338 q 705 1235 732 1263 q 640 1208 678 1208 m 465 1478 q 414 1494 433 1478 q 394 1542 394 1511 q 414 1587 394 1571 q 465 1603 433 1603 l 813 1603 q 865 1587 844 1603 q 885 1542 885 1571 q 865 1494 885 1511 q 813 1478 844 1478 l 465 1478 z "},"Ọ":{"ha":1279,"x_min":89,"x_max":1192,"o":"m 640 -14 q 353 57 479 -14 q 158 255 228 128 q 89 543 89 382 q 158 831 89 704 q 353 1028 228 957 q 640 1099 479 1099 q 926 1028 800 1099 q 1122 831 1051 957 q 1192 543 1192 704 q 1122 255 1192 382 q 926 57 1051 128 q 640 -14 801 -14 m 640 117 q 853 173 758 117 q 1000 326 947 229 q 1053 543 1053 424 q 1000 760 1053 663 q 853 913 947 857 q 640 968 760 968 q 427 913 521 968 q 281 760 333 857 q 228 543 228 663 q 281 326 228 424 q 428 173 333 229 q 640 117 522 117 m 640 -311 q 576 -284 603 -311 q 549 -219 549 -257 q 576 -155 549 -182 q 640 -128 603 -128 q 705 -155 678 -128 q 732 -219 732 -182 q 705 -284 732 -257 q 640 -311 678 -311 z "},"Ò":{"ha":1279,"x_min":89,"x_max":1192,"o":"m 640 -14 q 353 57 479 -14 q 158 255 228 128 q 89 543 89 382 q 158 831 89 704 q 353 1028 228 957 q 640 1099 479 1099 q 926 1028 800 1099 q 1122 831 1051 957 q 1192 543 1192 704 q 1122 255 1192 382 q 926 57 1051 128 q 640 -14 801 -14 m 640 117 q 853 173 758 117 q 1000 326 947 229 q 1053 543 1053 424 q 1000 760 1053 663 q 853 913 947 857 q 640 968 760 968 q 427 913 521 968 q 281 760 333 857 q 228 543 228 663 q 281 326 228 424 q 428 173 333 229 q 640 117 522 117 m 636 1204 q 588 1224 606 1204 l 451 1358 q 433 1407 433 1376 q 453 1458 433 1438 q 503 1479 472 1479 q 554 1458 532 1479 l 689 1322 q 707 1275 707 1304 q 687 1224 707 1244 q 636 1204 667 1204 z "},"Ỏ":{"ha":1279,"x_min":89,"x_max":1192,"o":"m 640 -14 q 353 57 479 -14 q 158 255 228 128 q 89 543 89 382 q 158 831 89 704 q 353 1028 228 957 q 640 1099 479 1099 q 926 1028 800 1099 q 1122 831 1051 957 q 1192 543 1192 704 q 1122 255 1192 382 q 926 57 1051 128 q 640 -14 801 -14 m 640 117 q 853 173 758 117 q 1000 326 947 229 q 1053 543 1053 424 q 1000 760 1053 663 q 853 913 947 857 q 640 968 760 968 q 427 913 521 968 q 281 760 333 857 q 228 543 228 663 q 281 326 228 424 q 428 173 333 229 q 640 117 522 117 m 640 1160 q 596 1178 614 1160 q 578 1222 578 1196 l 578 1253 q 633 1321 578 1308 l 669 1329 q 710 1349 694 1335 q 726 1385 726 1364 q 710 1424 726 1411 q 667 1438 694 1438 q 631 1431 649 1438 q 601 1415 613 1425 q 581 1404 593 1408 q 556 1400 568 1400 q 519 1413 533 1400 q 504 1449 504 1425 q 526 1497 504 1479 q 664 1543 583 1543 q 786 1499 739 1543 q 833 1389 833 1456 q 676 1247 835 1268 l 703 1250 q 685 1183 703 1206 q 640 1160 668 1160 z "},"Ơ":{"ha":1279,"x_min":89,"x_max":1192,"o":"m 1057 924 q 1156 753 1121 850 q 1192 543 1192 656 q 1122 255 1192 382 q 926 57 1051 128 q 640 -14 801 -14 q 353 57 479 -14 q 158 255 228 128 q 89 543 89 382 q 158 831 89 704 q 353 1028 228 957 q 640 1099 479 1099 q 921 1031 797 1099 l 981 1031 q 1024 1057 1006 1031 q 1042 1124 1042 1083 l 1042 1150 q 1059 1201 1042 1182 q 1104 1219 1076 1219 q 1150 1197 1133 1219 q 1167 1140 1167 1175 l 1167 1124 q 1137 1001 1167 1056 q 1057 924 1107 947 m 640 117 q 853 173 758 117 q 1000 326 947 229 q 1053 543 1053 424 q 1000 760 1053 663 q 853 913 947 857 q 640 968 760 968 q 427 913 521 968 q 281 760 333 857 q 228 543 228 663 q 281 326 228 424 q 428 173 333 229 q 640 117 522 117 z "},"Ớ":{"ha":1279,"x_min":89,"x_max":1192,"o":"m 1057 924 q 1156 753 1121 850 q 1192 543 1192 656 q 1122 255 1192 382 q 926 57 1051 128 q 640 -14 801 -14 q 353 57 479 -14 q 158 255 228 128 q 89 543 89 382 q 158 831 89 704 q 353 1028 228 957 q 640 1099 479 1099 q 921 1031 797 1099 l 981 1031 q 1024 1057 1006 1031 q 1042 1124 1042 1083 l 1042 1150 q 1059 1201 1042 1182 q 1104 1219 1076 1219 q 1150 1197 1133 1219 q 1167 1140 1167 1175 l 1167 1124 q 1137 1001 1167 1056 q 1057 924 1107 947 m 640 117 q 853 173 758 117 q 1000 326 947 229 q 1053 543 1053 424 q 1000 760 1053 663 q 853 913 947 857 q 640 968 760 968 q 427 913 521 968 q 281 760 333 857 q 228 543 228 663 q 281 326 228 424 q 428 173 333 229 q 640 117 522 117 m 646 1204 q 594 1224 614 1204 q 575 1275 575 1244 q 592 1322 575 1304 l 728 1458 q 778 1479 749 1479 q 828 1458 808 1479 q 849 1407 849 1438 q 829 1358 849 1376 l 694 1224 q 646 1204 675 1204 z "},"Ợ":{"ha":1279,"x_min":89,"x_max":1192,"o":"m 1057 924 q 1156 753 1121 850 q 1192 543 1192 656 q 1122 255 1192 382 q 926 57 1051 128 q 640 -14 801 -14 q 353 57 479 -14 q 158 255 228 128 q 89 543 89 382 q 158 831 89 704 q 353 1028 228 957 q 640 1099 479 1099 q 921 1031 797 1099 l 981 1031 q 1024 1057 1006 1031 q 1042 1124 1042 1083 l 1042 1150 q 1059 1201 1042 1182 q 1104 1219 1076 1219 q 1150 1197 1133 1219 q 1167 1140 1167 1175 l 1167 1124 q 1137 1001 1167 1056 q 1057 924 1107 947 m 640 117 q 853 173 758 117 q 1000 326 947 229 q 1053 543 1053 424 q 1000 760 1053 663 q 853 913 947 857 q 640 968 760 968 q 427 913 521 968 q 281 760 333 857 q 228 543 228 663 q 281 326 228 424 q 428 173 333 229 q 640 117 522 117 m 640 -311 q 576 -284 603 -311 q 549 -219 549 -257 q 576 -155 549 -182 q 640 -128 603 -128 q 705 -155 678 -128 q 732 -219 732 -182 q 705 -284 732 -257 q 640 -311 678 -311 z "},"Ờ":{"ha":1279,"x_min":89,"x_max":1192,"o":"m 1057 924 q 1156 753 1121 850 q 1192 543 1192 656 q 1122 255 1192 382 q 926 57 1051 128 q 640 -14 801 -14 q 353 57 479 -14 q 158 255 228 128 q 89 543 89 382 q 158 831 89 704 q 353 1028 228 957 q 640 1099 479 1099 q 921 1031 797 1099 l 981 1031 q 1024 1057 1006 1031 q 1042 1124 1042 1083 l 1042 1150 q 1059 1201 1042 1182 q 1104 1219 1076 1219 q 1150 1197 1133 1219 q 1167 1140 1167 1175 l 1167 1124 q 1137 1001 1167 1056 q 1057 924 1107 947 m 640 117 q 853 173 758 117 q 1000 326 947 229 q 1053 543 1053 424 q 1000 760 1053 663 q 853 913 947 857 q 640 968 760 968 q 427 913 521 968 q 281 760 333 857 q 228 543 228 663 q 281 326 228 424 q 428 173 333 229 q 640 117 522 117 m 636 1204 q 588 1224 606 1204 l 451 1358 q 433 1407 433 1376 q 453 1458 433 1438 q 503 1479 472 1479 q 554 1458 532 1479 l 689 1322 q 707 1275 707 1304 q 687 1224 707 1244 q 636 1204 667 1204 z "},"Ở":{"ha":1279,"x_min":89,"x_max":1192,"o":"m 1057 924 q 1156 753 1121 850 q 1192 543 1192 656 q 1122 255 1192 382 q 926 57 1051 128 q 640 -14 801 -14 q 353 57 479 -14 q 158 255 228 128 q 89 543 89 382 q 158 831 89 704 q 353 1028 228 957 q 640 1099 479 1099 q 921 1031 797 1099 l 981 1031 q 1024 1057 1006 1031 q 1042 1124 1042 1083 l 1042 1150 q 1059 1201 1042 1182 q 1104 1219 1076 1219 q 1150 1197 1133 1219 q 1167 1140 1167 1175 l 1167 1124 q 1137 1001 1167 1056 q 1057 924 1107 947 m 640 117 q 853 173 758 117 q 1000 326 947 229 q 1053 543 1053 424 q 1000 760 1053 663 q 853 913 947 857 q 640 968 760 968 q 427 913 521 968 q 281 760 333 857 q 228 543 228 663 q 281 326 228 424 q 428 173 333 229 q 640 117 522 117 m 640 1160 q 596 1178 614 1160 q 578 1222 578 1196 l 578 1253 q 633 1321 578 1308 l 669 1329 q 710 1349 694 1335 q 726 1385 726 1364 q 710 1424 726 1411 q 667 1438 694 1438 q 631 1431 649 1438 q 601 1415 613 1425 q 581 1404 593 1408 q 556 1400 568 1400 q 519 1413 533 1400 q 504 1449 504 1425 q 526 1497 504 1479 q 664 1543 583 1543 q 786 1499 739 1543 q 833 1389 833 1456 q 676 1247 835 1268 l 703 1250 q 685 1183 703 1206 q 640 1160 668 1160 z "},"Ỡ":{"ha":1279,"x_min":89,"x_max":1192,"o":"m 1057 924 q 1156 753 1121 850 q 1192 543 1192 656 q 1122 255 1192 382 q 926 57 1051 128 q 640 -14 801 -14 q 353 57 479 -14 q 158 255 228 128 q 89 543 89 382 q 158 831 89 704 q 353 1028 228 957 q 640 1099 479 1099 q 921 1031 797 1099 l 981 1031 q 1024 1057 1006 1031 q 1042 1124 1042 1083 l 1042 1150 q 1059 1201 1042 1182 q 1104 1219 1076 1219 q 1150 1197 1133 1219 q 1167 1140 1167 1175 l 1167 1124 q 1137 1001 1167 1056 q 1057 924 1107 947 m 640 117 q 853 173 758 117 q 1000 326 947 229 q 1053 543 1053 424 q 1000 760 1053 663 q 853 913 947 857 q 640 968 760 968 q 427 913 521 968 q 281 760 333 857 q 228 543 228 663 q 281 326 228 424 q 428 173 333 229 q 640 117 522 117 m 789 1189 q 715 1201 747 1189 q 647 1232 683 1213 q 556 1264 589 1264 q 519 1256 535 1264 q 489 1226 504 1249 q 426 1189 461 1189 q 399 1196 415 1189 q 381 1214 388 1201 q 374 1242 374 1226 q 386 1281 374 1263 q 465 1351 418 1326 q 565 1375 511 1375 q 634 1364 604 1375 q 701 1333 664 1353 q 751 1308 735 1314 q 785 1301 767 1301 q 840 1325 817 1301 q 867 1347 856 1340 q 892 1354 878 1354 q 922 1344 907 1354 q 944 1299 944 1331 q 929 1254 944 1274 q 789 1189 876 1189 z "},"Ő":{"ha":1279,"x_min":89,"x_max":1192,"o":"m 640 -14 q 353 57 479 -14 q 158 255 228 128 q 89 543 89 382 q 158 831 89 704 q 353 1028 228 957 q 640 1099 479 1099 q 926 1028 800 1099 q 1122 831 1051 957 q 1192 543 1192 704 q 1122 255 1192 382 q 926 57 1051 128 q 640 -14 801 -14 m 640 117 q 853 173 758 117 q 1000 326 947 229 q 1053 543 1053 424 q 1000 760 1053 663 q 853 913 947 857 q 640 968 760 968 q 427 913 521 968 q 281 760 333 857 q 228 543 228 663 q 281 326 228 424 q 428 173 333 229 q 640 117 522 117 m 542 1182 q 501 1198 519 1182 q 483 1240 483 1214 q 488 1263 483 1250 l 540 1435 q 565 1466 546 1453 q 606 1479 583 1479 q 657 1458 636 1479 q 678 1408 678 1438 q 672 1382 678 1394 l 594 1218 q 542 1182 578 1182 m 740 1182 q 701 1198 718 1182 q 683 1240 683 1214 l 686 1263 l 740 1435 q 765 1466 746 1453 q 806 1479 783 1479 q 856 1458 835 1479 q 878 1408 878 1438 q 876 1397 878 1406 q 871 1382 875 1389 l 794 1218 q 740 1182 775 1182 z "},"Ȏ":{"ha":1279,"x_min":89,"x_max":1192,"o":"m 640 -14 q 353 57 479 -14 q 158 255 228 128 q 89 543 89 382 q 158 831 89 704 q 353 1028 228 957 q 640 1099 479 1099 q 926 1028 800 1099 q 1122 831 1051 957 q 1192 543 1192 704 q 1122 255 1192 382 q 926 57 1051 128 q 640 -14 801 -14 m 640 117 q 853 173 758 117 q 1000 326 947 229 q 1053 543 1053 424 q 1000 760 1053 663 q 853 913 947 857 q 640 968 760 968 q 427 913 521 968 q 281 760 333 857 q 228 543 228 663 q 281 326 228 424 q 428 173 333 229 q 640 117 522 117 m 640 1410 q 753 1387 701 1410 q 835 1324 804 1364 q 865 1236 865 1285 q 847 1185 865 1206 q 800 1165 829 1165 q 752 1181 772 1165 q 732 1222 732 1197 q 707 1276 732 1256 q 640 1296 682 1296 q 576 1274 606 1296 q 547 1222 547 1253 q 527 1181 547 1197 q 481 1165 507 1165 q 433 1185 451 1165 q 414 1236 414 1206 q 444 1324 414 1285 q 527 1387 475 1364 q 640 1410 579 1410 z "},"Ō":{"ha":1279,"x_min":89,"x_max":1192,"o":"m 640 -14 q 353 57 479 -14 q 158 255 228 128 q 89 543 89 382 q 158 831 89 704 q 353 1028 228 957 q 640 1099 479 1099 q 926 1028 800 1099 q 1122 831 1051 957 q 1192 543 1192 704 q 1122 255 1192 382 q 926 57 1051 128 q 640 -14 801 -14 m 640 117 q 853 173 758 117 q 1000 326 947 229 q 1053 543 1053 424 q 1000 760 1053 663 q 853 913 947 857 q 640 968 760 968 q 427 913 521 968 q 281 760 333 857 q 228 543 228 663 q 281 326 228 424 q 428 173 333 229 q 640 117 522 117 m 465 1224 q 414 1240 433 1224 q 394 1288 394 1257 q 414 1333 394 1317 q 465 1349 433 1349 l 813 1349 q 865 1333 844 1349 q 885 1288 885 1317 q 865 1240 885 1257 q 813 1224 844 1224 l 465 1224 z "},"Ǫ":{"ha":1279,"x_min":89,"x_max":1192,"o":"m 1192 543 q 1128 268 1192 390 q 952 72 1065 146 q 692 -12 839 -1 q 708 -56 706 -29 q 619 -182 708 -118 q 606 -210 606 -194 q 615 -233 606 -224 q 638 -242 624 -242 q 654 -236 649 -242 l 697 -204 q 740 -190 718 -190 q 791 -210 771 -190 q 811 -261 811 -231 q 786 -318 811 -296 l 733 -353 q 638 -383 690 -383 q 551 -360 592 -383 q 488 -297 511 -336 q 464 -210 464 -257 q 536 -68 464 -128 q 575 -24 563 -50 l 583 -11 q 325 75 438 1 q 151 270 213 149 q 89 543 89 392 q 158 831 89 704 q 353 1028 228 957 q 640 1099 479 1099 q 926 1028 800 1099 q 1122 831 1051 957 q 1192 543 1192 704 m 640 117 q 853 173 758 117 q 1000 326 947 229 q 1053 543 1053 424 q 1000 760 1053 663 q 853 913 947 857 q 640 968 760 968 q 427 913 521 968 q 281 760 333 857 q 228 543 228 663 q 281 326 228 424 q 428 173 333 229 q 640 117 522 117 z "},"Ø":{"ha":1279,"x_min":81,"x_max":1192,"o":"m 1069 907 q 1160 742 1129 835 q 1192 543 1192 650 q 1122 255 1192 382 q 926 57 1051 128 q 640 -14 801 -14 q 432 22 528 -14 q 264 122 336 57 l 153 11 q 124 0 142 0 q 92 13 104 0 q 81 43 81 25 q 92 71 81 60 l 206 185 q 89 543 89 332 q 158 831 89 704 q 353 1028 228 957 q 640 1099 479 1099 q 844 1065 750 1099 q 1010 968 938 1031 l 1117 1074 q 1146 1085 1128 1085 q 1177 1072 1164 1085 q 1190 1043 1190 1060 q 1178 1015 1190 1028 l 1069 907 m 640 968 q 427 913 521 968 q 281 760 333 857 q 228 543 228 663 q 249 401 228 468 q 311 279 271 333 l 907 875 q 785 944 853 919 q 640 968 717 968 m 640 117 q 853 173 758 117 q 1000 326 947 229 q 1053 543 1053 424 q 1030 689 1053 621 q 965 813 1007 757 l 368 215 q 640 117 479 117 z "},"Ǿ":{"ha":1279,"x_min":81,"x_max":1192,"o":"m 1069 907 q 1160 742 1129 835 q 1192 543 1192 650 q 1122 255 1192 382 q 926 57 1051 128 q 640 -14 801 -14 q 432 22 528 -14 q 264 122 336 57 l 153 11 q 124 0 142 0 q 92 13 104 0 q 81 43 81 25 q 92 71 81 60 l 206 185 q 89 543 89 332 q 158 831 89 704 q 353 1028 228 957 q 640 1099 479 1099 q 844 1065 750 1099 q 1010 968 938 1031 l 1117 1074 q 1146 1085 1128 1085 q 1177 1072 1164 1085 q 1190 1043 1190 1060 q 1178 1015 1190 1028 l 1069 907 m 640 968 q 427 913 521 968 q 281 760 333 857 q 228 543 228 663 q 249 401 228 468 q 311 279 271 333 l 907 875 q 785 944 853 919 q 640 968 717 968 m 640 117 q 853 173 758 117 q 1000 326 947 229 q 1053 543 1053 424 q 1030 689 1053 621 q 965 813 1007 757 l 368 215 q 640 117 479 117 m 646 1204 q 594 1224 614 1204 q 575 1275 575 1244 q 592 1322 575 1304 l 728 1458 q 778 1479 749 1479 q 828 1458 808 1479 q 849 1407 849 1438 q 829 1358 849 1376 l 694 1224 q 646 1204 675 1204 z "},"Õ":{"ha":1279,"x_min":89,"x_max":1192,"o":"m 640 -14 q 353 57 479 -14 q 158 255 228 128 q 89 543 89 382 q 158 831 89 704 q 353 1028 228 957 q 640 1099 479 1099 q 926 1028 800 1099 q 1122 831 1051 957 q 1192 543 1192 704 q 1122 255 1192 382 q 926 57 1051 128 q 640 -14 801 -14 m 640 117 q 853 173 758 117 q 1000 326 947 229 q 1053 543 1053 424 q 1000 760 1053 663 q 853 913 947 857 q 640 968 760 968 q 427 913 521 968 q 281 760 333 857 q 228 543 228 663 q 281 326 228 424 q 428 173 333 229 q 640 117 522 117 m 789 1189 q 715 1201 747 1189 q 647 1232 683 1213 q 556 1264 589 1264 q 519 1256 535 1264 q 489 1226 504 1249 q 426 1189 461 1189 q 399 1196 415 1189 q 381 1214 388 1201 q 374 1242 374 1226 q 386 1281 374 1263 q 465 1351 418 1326 q 565 1375 511 1375 q 634 1364 604 1375 q 701 1333 664 1353 q 751 1308 735 1314 q 785 1301 767 1301 q 840 1325 817 1301 q 867 1347 856 1340 q 892 1354 878 1354 q 922 1344 907 1354 q 944 1299 944 1331 q 929 1254 944 1274 q 789 1189 876 1189 z "},"Ȭ":{"ha":1279,"x_min":89,"x_max":1192,"o":"m 640 -14 q 353 57 479 -14 q 158 255 228 128 q 89 543 89 382 q 158 831 89 704 q 353 1028 228 957 q 640 1099 479 1099 q 926 1028 800 1099 q 1122 831 1051 957 q 1192 543 1192 704 q 1122 255 1192 382 q 926 57 1051 128 q 640 -14 801 -14 m 640 117 q 853 173 758 117 q 1000 326 947 229 q 1053 543 1053 424 q 1000 760 1053 663 q 853 913 947 857 q 640 968 760 968 q 427 913 521 968 q 281 760 333 857 q 228 543 228 663 q 281 326 228 424 q 428 173 333 229 q 640 117 522 117 m 789 1189 q 715 1201 747 1189 q 647 1232 683 1213 q 556 1264 589 1264 q 519 1256 535 1264 q 489 1226 504 1249 q 426 1189 461 1189 q 399 1196 415 1189 q 381 1214 388 1201 q 374 1242 374 1226 q 386 1281 374 1263 q 465 1351 418 1326 q 565 1375 511 1375 q 634 1364 604 1375 q 701 1333 664 1353 q 751 1308 735 1314 q 785 1301 767 1301 q 840 1325 817 1301 q 867 1347 856 1340 q 892 1354 878 1354 q 922 1344 907 1354 q 944 1299 944 1331 q 929 1254 944 1274 q 789 1189 876 1189 m 479 1472 q 428 1489 447 1472 q 408 1536 408 1506 q 428 1581 408 1565 q 479 1597 447 1597 l 826 1597 q 878 1581 858 1597 q 899 1536 899 1565 q 878 1489 899 1506 q 826 1472 858 1472 l 479 1472 z "},"Œ":{"ha":1613,"x_min":89,"x_max":1550,"o":"m 1479 133 q 1531 115 1511 133 q 1550 68 1550 97 q 1531 19 1550 38 q 1479 0 1511 0 l 906 0 q 799 -6 874 0 q 640 -14 699 -14 q 353 57 479 -14 q 158 255 228 128 q 89 543 89 382 q 158 831 89 704 q 353 1028 228 957 q 640 1099 479 1099 q 806 1090 703 1099 q 932 1085 897 1085 l 1479 1085 q 1531 1066 1511 1085 q 1550 1017 1550 1047 q 1531 969 1550 988 q 1479 951 1511 951 l 965 951 l 965 614 l 1322 614 q 1373 595 1353 614 q 1393 547 1393 576 q 1373 499 1393 518 q 1322 481 1353 481 l 965 481 l 965 133 l 1479 133 m 228 543 q 281 326 228 424 q 428 173 333 229 q 640 117 522 117 q 821 131 743 117 l 821 954 q 640 968 743 968 q 427 913 521 968 q 281 760 333 857 q 228 543 228 663 z "},"P":{"ha":865,"x_min":139,"x_max":844,"o":"m 211 0 q 160 21 181 0 q 139 72 139 42 l 139 1013 q 160 1065 139 1044 q 211 1085 181 1085 l 489 1085 q 673 1039 592 1085 q 799 911 754 993 q 844 725 844 829 q 799 544 844 624 q 673 421 754 465 q 489 376 592 376 l 283 376 l 283 72 q 263 21 283 42 q 211 0 243 0 m 489 510 q 644 570 583 510 q 706 725 706 631 q 644 888 706 824 q 489 951 583 951 l 283 951 l 283 510 l 489 510 z "},"Þ":{"ha":865,"x_min":139,"x_max":844,"o":"m 489 882 q 673 842 592 882 q 799 728 754 801 q 844 558 844 654 q 799 394 844 465 q 673 285 754 324 q 489 246 592 246 l 283 246 l 283 72 q 263 21 283 42 q 211 0 243 0 q 160 21 181 0 q 139 72 139 42 l 139 1013 q 160 1065 139 1044 q 211 1085 181 1085 q 263 1065 243 1085 q 283 1013 283 1044 l 283 882 l 489 882 m 489 371 q 644 424 583 371 q 706 558 706 476 q 644 701 706 644 q 489 757 583 757 l 283 757 l 283 371 l 489 371 z "},"Q":{"ha":1279,"x_min":89,"x_max":1192,"o":"m 1118 119 q 1139 71 1139 97 q 1118 22 1139 43 q 1069 0 1096 0 q 1019 22 1044 0 l 963 79 q 640 -14 824 -14 q 353 57 479 -14 q 158 255 228 128 q 89 543 89 382 q 158 831 89 704 q 353 1028 228 957 q 640 1099 479 1099 q 926 1028 800 1099 q 1122 831 1051 957 q 1192 543 1192 704 q 1159 339 1192 433 q 1065 172 1126 244 l 1118 119 m 640 117 q 863 179 765 117 l 729 313 q 707 363 707 338 q 729 411 707 389 q 779 433 751 433 q 828 411 807 433 l 965 272 q 1053 543 1053 388 q 1000 760 1053 663 q 853 913 947 857 q 640 968 760 968 q 427 913 521 968 q 281 760 333 857 q 228 543 228 663 q 281 326 228 424 q 428 173 333 229 q 640 117 522 117 z "},"R":{"ha":878,"x_min":139,"x_max":857,"o":"m 843 111 q 857 65 857 89 q 838 19 857 38 q 788 0 819 0 q 725 35 747 0 l 486 418 l 461 418 l 283 418 l 283 72 q 263 21 283 42 q 211 0 243 0 q 160 21 181 0 q 139 72 139 42 l 139 1013 q 160 1065 139 1044 q 211 1085 181 1085 l 461 1085 q 645 1042 564 1085 q 772 921 726 999 q 817 743 817 843 q 767 568 817 644 q 631 453 717 492 l 843 111 m 461 551 q 617 605 556 551 q 678 743 678 658 q 617 893 678 835 q 461 951 556 951 l 283 951 l 283 551 l 461 551 z "},"Ŕ":{"ha":878,"x_min":139,"x_max":857,"o":"m 843 111 q 857 65 857 89 q 838 19 857 38 q 788 0 819 0 q 725 35 747 0 l 486 418 l 461 418 l 283 418 l 283 72 q 263 21 283 42 q 211 0 243 0 q 160 21 181 0 q 139 72 139 42 l 139 1013 q 160 1065 139 1044 q 211 1085 181 1085 l 461 1085 q 645 1042 564 1085 q 772 921 726 999 q 817 743 817 843 q 767 568 817 644 q 631 453 717 492 l 843 111 m 461 551 q 617 605 556 551 q 678 743 678 658 q 617 893 678 835 q 461 951 556 951 l 283 951 l 283 551 l 461 551 m 489 1204 q 438 1224 457 1204 q 418 1275 418 1244 q 435 1322 418 1304 l 571 1458 q 621 1479 592 1479 q 672 1458 651 1479 q 692 1407 692 1438 q 672 1358 692 1376 l 538 1224 q 489 1204 518 1204 z "},"Ř":{"ha":878,"x_min":139,"x_max":857,"o":"m 843 111 q 857 65 857 89 q 838 19 857 38 q 788 0 819 0 q 725 35 747 0 l 486 418 l 461 418 l 283 418 l 283 72 q 263 21 283 42 q 211 0 243 0 q 160 21 181 0 q 139 72 139 42 l 139 1013 q 160 1065 139 1044 q 211 1085 181 1085 l 461 1085 q 645 1042 564 1085 q 772 921 726 999 q 817 743 817 843 q 767 568 817 644 q 631 453 717 492 l 843 111 m 461 551 q 617 605 556 551 q 678 743 678 658 q 617 893 678 835 q 461 951 556 951 l 283 951 l 283 551 l 461 551 m 483 1193 q 447 1204 463 1193 l 292 1307 q 258 1367 258 1332 q 273 1397 258 1385 q 311 1410 288 1410 q 374 1388 342 1410 l 483 1314 l 593 1388 q 658 1411 628 1411 q 695 1398 682 1411 q 708 1367 708 1385 q 675 1307 708 1332 l 521 1204 q 483 1193 504 1193 z "},"Ŗ":{"ha":878,"x_min":139,"x_max":857,"o":"m 843 111 q 857 65 857 89 q 838 19 857 38 q 788 0 819 0 q 725 35 747 0 l 486 418 l 461 418 l 283 418 l 283 72 q 263 21 283 42 q 211 0 243 0 q 160 21 181 0 q 139 72 139 42 l 139 1013 q 160 1065 139 1044 q 211 1085 181 1085 l 461 1085 q 645 1042 564 1085 q 772 921 726 999 q 817 743 817 843 q 767 568 817 644 q 631 453 717 492 l 843 111 m 461 551 q 617 605 556 551 q 678 743 678 658 q 617 893 678 835 q 461 951 556 951 l 283 951 l 283 551 l 461 551 m 489 -343 q 369 -315 424 -343 q 315 -233 315 -286 q 329 -200 315 -212 q 364 -187 343 -187 q 392 -194 381 -187 q 417 -215 403 -201 q 451 -244 435 -235 q 500 -254 468 -254 q 557 -243 540 -254 q 574 -206 574 -232 q 469 -149 574 -149 q 421 -137 439 -149 q 403 -104 403 -125 q 483 -56 403 -56 q 618 -96 567 -56 q 669 -199 669 -136 q 619 -304 669 -265 q 489 -343 568 -343 z "},"Ȑ":{"ha":878,"x_min":139,"x_max":857,"o":"m 843 111 q 857 65 857 89 q 838 19 857 38 q 788 0 819 0 q 725 35 747 0 l 486 418 l 461 418 l 283 418 l 283 72 q 263 21 283 42 q 211 0 243 0 q 160 21 181 0 q 139 72 139 42 l 139 1013 q 160 1065 139 1044 q 211 1085 181 1085 l 461 1085 q 645 1042 564 1085 q 772 921 726 999 q 817 743 817 843 q 767 568 817 644 q 631 453 717 492 l 843 111 m 461 551 q 617 605 556 551 q 678 743 678 658 q 617 893 678 835 q 461 951 556 951 l 283 951 l 283 551 l 461 551 m 424 1182 q 369 1218 389 1182 l 293 1382 q 288 1397 289 1389 q 286 1408 286 1406 q 307 1458 286 1438 q 358 1479 328 1479 q 399 1466 381 1479 q 424 1435 418 1453 l 478 1263 l 481 1240 q 463 1198 481 1214 q 424 1182 446 1182 m 622 1182 q 569 1218 586 1182 l 492 1382 q 486 1408 486 1394 q 507 1458 486 1438 q 558 1479 528 1479 q 599 1466 581 1479 q 624 1435 618 1453 l 676 1263 q 681 1240 681 1250 q 663 1198 681 1214 q 622 1182 644 1182 z "},"Ȓ":{"ha":878,"x_min":139,"x_max":857,"o":"m 843 111 q 857 65 857 89 q 838 19 857 38 q 788 0 819 0 q 725 35 747 0 l 486 418 l 461 418 l 283 418 l 283 72 q 263 21 283 42 q 211 0 243 0 q 160 21 181 0 q 139 72 139 42 l 139 1013 q 160 1065 139 1044 q 211 1085 181 1085 l 461 1085 q 645 1042 564 1085 q 772 921 726 999 q 817 743 817 843 q 767 568 817 644 q 631 453 717 492 l 843 111 m 461 551 q 617 605 556 551 q 678 743 678 658 q 617 893 678 835 q 461 951 556 951 l 283 951 l 283 551 l 461 551 m 483 1410 q 596 1387 544 1410 q 678 1324 647 1364 q 708 1236 708 1285 q 690 1185 708 1206 q 643 1165 672 1165 q 595 1181 615 1165 q 575 1222 575 1197 q 550 1276 575 1256 q 483 1296 525 1296 q 419 1274 449 1296 q 390 1222 390 1253 q 370 1181 390 1197 q 324 1165 350 1165 q 276 1185 294 1165 q 257 1236 257 1206 q 288 1324 257 1285 q 370 1387 318 1364 q 483 1410 422 1410 z "},"S":{"ha":956,"x_min":79,"x_max":874,"o":"m 483 -14 q 238 47 349 -14 q 86 207 128 108 q 79 235 79 224 q 94 272 79 256 q 136 293 110 288 q 150 294 140 294 q 192 281 172 294 q 222 246 213 268 q 321 154 247 192 q 483 117 394 117 q 660 165 588 117 q 732 296 732 213 q 671 431 732 375 q 485 500 610 488 q 214 601 313 517 q 115 811 115 685 q 166 965 115 900 q 305 1063 217 1029 q 503 1097 393 1097 q 704 1049 622 1097 q 843 910 786 1000 q 860 860 860 883 q 832 810 860 829 q 796 800 817 800 q 757 810 775 800 q 729 839 739 821 q 635 934 692 901 q 493 967 579 967 q 322 926 388 967 q 257 807 257 885 q 315 686 257 735 q 524 622 374 638 q 782 522 690 606 q 874 300 874 438 q 819 128 874 200 q 676 22 765 57 q 483 -14 586 -14 z "},"Ś":{"ha":956,"x_min":79,"x_max":874,"o":"m 483 -14 q 238 47 349 -14 q 86 207 128 108 q 79 235 79 224 q 94 272 79 256 q 136 293 110 288 q 150 294 140 294 q 192 281 172 294 q 222 246 213 268 q 321 154 247 192 q 483 117 394 117 q 660 165 588 117 q 732 296 732 213 q 671 431 732 375 q 485 500 610 488 q 214 601 313 517 q 115 811 115 685 q 166 965 115 900 q 305 1063 217 1029 q 503 1097 393 1097 q 704 1049 622 1097 q 843 910 786 1000 q 860 860 860 883 q 832 810 860 829 q 796 800 817 800 q 757 810 775 800 q 729 839 739 821 q 635 934 692 901 q 493 967 579 967 q 322 926 388 967 q 257 807 257 885 q 315 686 257 735 q 524 622 374 638 q 782 522 690 606 q 874 300 874 438 q 819 128 874 200 q 676 22 765 57 q 483 -14 586 -14 m 483 1204 q 432 1224 451 1204 q 413 1275 413 1244 q 429 1322 413 1304 l 565 1458 q 615 1479 586 1479 q 666 1458 646 1479 q 686 1407 686 1438 q 667 1358 686 1376 l 532 1224 q 483 1204 513 1204 z "},"Š":{"ha":956,"x_min":79,"x_max":874,"o":"m 483 -14 q 238 47 349 -14 q 86 207 128 108 q 79 235 79 224 q 94 272 79 256 q 136 293 110 288 q 150 294 140 294 q 192 281 172 294 q 222 246 213 268 q 321 154 247 192 q 483 117 394 117 q 660 165 588 117 q 732 296 732 213 q 671 431 732 375 q 485 500 610 488 q 214 601 313 517 q 115 811 115 685 q 166 965 115 900 q 305 1063 217 1029 q 503 1097 393 1097 q 704 1049 622 1097 q 843 910 786 1000 q 860 860 860 883 q 832 810 860 829 q 796 800 817 800 q 757 810 775 800 q 729 839 739 821 q 635 934 692 901 q 493 967 579 967 q 322 926 388 967 q 257 807 257 885 q 315 686 257 735 q 524 622 374 638 q 782 522 690 606 q 874 300 874 438 q 819 128 874 200 q 676 22 765 57 q 483 -14 586 -14 m 478 1193 q 442 1204 457 1193 l 286 1307 q 253 1367 253 1332 q 267 1397 253 1385 q 306 1410 282 1410 q 368 1388 336 1410 l 478 1314 l 588 1388 q 653 1411 622 1411 q 690 1398 676 1411 q 703 1367 703 1385 q 669 1307 703 1332 l 515 1204 q 478 1193 499 1193 z "},"Ş":{"ha":956,"x_min":79,"x_max":874,"o":"m 874 300 q 785 91 874 171 q 561 -8 696 11 l 543 -49 q 649 -96 615 -64 q 682 -181 682 -128 q 656 -250 682 -217 q 584 -304 631 -283 q 476 -325 538 -325 q 340 -290 394 -325 q 286 -208 286 -256 q 306 -162 286 -182 q 351 -142 325 -142 q 381 -149 369 -142 q 399 -176 392 -157 q 429 -212 408 -200 q 478 -225 450 -225 q 524 -212 506 -225 q 542 -176 542 -199 q 527 -136 542 -151 q 479 -115 513 -121 q 427 -96 444 -110 q 410 -57 410 -82 q 417 -21 410 -39 l 421 -10 q 213 63 304 4 q 86 207 122 121 q 79 235 79 224 q 94 272 79 256 q 136 293 110 288 q 150 294 140 294 q 192 281 172 294 q 222 246 213 268 q 321 154 247 192 q 483 117 394 117 q 660 165 588 117 q 732 296 732 213 q 671 431 732 375 q 485 500 610 488 q 214 601 313 517 q 115 811 115 685 q 166 965 115 900 q 305 1063 217 1029 q 503 1097 393 1097 q 704 1049 622 1097 q 843 910 786 1000 q 860 860 860 883 q 832 810 860 829 q 796 800 817 800 q 757 810 775 800 q 729 839 739 821 q 635 934 692 901 q 493 967 579 967 q 322 926 388 967 q 257 807 257 885 q 315 686 257 735 q 524 622 374 638 q 782 522 690 606 q 874 300 874 438 z "},"Ŝ":{"ha":956,"x_min":79,"x_max":874,"o":"m 483 -14 q 238 47 349 -14 q 86 207 128 108 q 79 235 79 224 q 94 272 79 256 q 136 293 110 288 q 150 294 140 294 q 192 281 172 294 q 222 246 213 268 q 321 154 247 192 q 483 117 394 117 q 660 165 588 117 q 732 296 732 213 q 671 431 732 375 q 485 500 610 488 q 214 601 313 517 q 115 811 115 685 q 166 965 115 900 q 305 1063 217 1029 q 503 1097 393 1097 q 704 1049 622 1097 q 843 910 786 1000 q 860 860 860 883 q 832 810 860 829 q 796 800 817 800 q 757 810 775 800 q 729 839 739 821 q 635 934 692 901 q 493 967 579 967 q 322 926 388 967 q 257 807 257 885 q 315 686 257 735 q 524 622 374 638 q 782 522 690 606 q 874 300 874 438 q 819 128 874 200 q 676 22 765 57 q 483 -14 586 -14 m 324 1179 q 273 1195 293 1179 q 253 1236 253 1211 q 286 1297 253 1272 l 442 1399 q 478 1410 460 1410 q 515 1399 499 1410 l 669 1297 q 703 1236 703 1272 q 683 1195 703 1211 q 633 1179 664 1179 q 588 1194 608 1179 l 478 1272 l 368 1194 q 324 1179 349 1179 z "},"Ș":{"ha":956,"x_min":79,"x_max":874,"o":"m 483 -14 q 238 47 349 -14 q 86 207 128 108 q 79 235 79 224 q 94 272 79 256 q 136 293 110 288 q 150 294 140 294 q 192 281 172 294 q 222 246 213 268 q 321 154 247 192 q 483 117 394 117 q 660 165 588 117 q 732 296 732 213 q 671 431 732 375 q 485 500 610 488 q 214 601 313 517 q 115 811 115 685 q 166 965 115 900 q 305 1063 217 1029 q 503 1097 393 1097 q 704 1049 622 1097 q 843 910 786 1000 q 860 860 860 883 q 832 810 860 829 q 796 800 817 800 q 757 810 775 800 q 729 839 739 821 q 635 934 692 901 q 493 967 579 967 q 322 926 388 967 q 257 807 257 885 q 315 686 257 735 q 524 622 374 638 q 782 522 690 606 q 874 300 874 438 q 819 128 874 200 q 676 22 765 57 q 483 -14 586 -14 m 483 -343 q 364 -315 418 -343 q 310 -233 310 -286 q 324 -200 310 -212 q 358 -187 338 -187 q 386 -194 375 -187 q 411 -215 397 -201 q 446 -244 429 -235 q 494 -254 463 -254 q 551 -243 535 -254 q 568 -206 568 -232 q 464 -149 568 -149 q 415 -137 433 -149 q 397 -104 397 -125 q 478 -56 397 -56 q 613 -96 561 -56 q 664 -199 664 -136 q 613 -304 664 -265 q 483 -343 563 -343 z "},"ẞ":{"ha":1004,"x_min":139,"x_max":928,"o":"m 633 638 q 782 594 715 632 q 888 487 849 556 q 928 328 928 418 q 883 158 928 233 q 756 42 838 83 q 572 0 675 0 q 429 25 482 0 q 408 47 415 32 q 401 88 401 61 q 418 129 401 114 q 463 144 435 144 q 483 142 469 144 q 572 133 518 133 q 729 184 669 133 q 789 328 789 235 q 730 460 789 414 q 572 506 671 506 l 513 506 q 466 524 485 506 q 447 571 447 543 q 461 615 447 594 l 701 876 q 618 934 665 917 q 503 951 571 951 q 391 924 442 951 q 312 850 340 897 q 283 746 283 803 l 283 65 q 263 18 283 36 q 208 0 243 0 q 156 18 174 0 q 139 65 139 36 l 139 749 q 186 920 139 843 q 317 1041 233 997 q 501 1085 400 1085 q 663 1056 589 1085 q 781 983 738 1028 q 824 890 824 938 q 814 836 824 856 q 781 792 804 817 l 633 638 z "},"Ə":{"ha":1181,"x_min":89,"x_max":1093,"o":"m 549 1097 q 826 1025 701 1097 q 1022 824 950 953 q 1093 536 1093 696 q 1029 256 1093 382 q 854 59 965 131 q 607 -12 743 -12 q 342 57 461 -12 q 156 248 224 126 q 89 518 89 369 q 115 581 89 557 q 182 606 142 606 l 953 606 q 880 794 938 713 q 733 922 822 876 q 535 967 643 967 q 285 889 400 967 q 246 875 264 875 q 199 897 218 875 q 182 939 182 917 q 203 981 182 964 q 549 1097 350 1097 m 607 117 q 772 163 697 117 q 895 292 847 210 q 954 478 943 374 l 232 478 q 292 293 240 375 q 426 164 343 211 q 607 117 508 117 z "},"T":{"ha":918,"x_min":21,"x_max":897,"o":"m 831 1085 q 878 1066 860 1085 q 897 1018 897 1047 q 878 970 897 989 q 831 951 860 951 l 532 951 l 532 72 q 511 21 532 42 q 460 0 490 0 q 408 21 429 0 q 388 72 388 42 l 388 951 l 88 951 q 40 970 58 951 q 21 1018 21 989 q 40 1066 21 1047 q 88 1085 58 1085 l 831 1085 z "},"Ŧ":{"ha":918,"x_min":21,"x_max":897,"o":"m 831 1085 q 878 1066 860 1085 q 897 1018 897 1047 q 878 970 897 989 q 831 951 860 951 l 532 951 l 532 606 l 682 606 q 734 589 714 606 q 754 543 754 572 q 734 497 754 514 q 682 481 714 481 l 532 481 l 532 72 q 511 21 532 42 q 460 0 490 0 q 408 21 429 0 q 388 72 388 42 l 388 481 l 235 481 q 183 497 203 481 q 164 543 164 514 q 183 589 164 572 q 235 606 203 606 l 388 606 l 388 951 l 88 951 q 40 970 58 951 q 21 1018 21 989 q 40 1066 21 1047 q 88 1085 58 1085 l 831 1085 z "},"Ť":{"ha":918,"x_min":21,"x_max":897,"o":"m 831 1085 q 878 1066 860 1085 q 897 1018 897 1047 q 878 970 897 989 q 831 951 860 951 l 532 951 l 532 72 q 511 21 532 42 q 460 0 490 0 q 408 21 429 0 q 388 72 388 42 l 388 951 l 88 951 q 40 970 58 951 q 21 1018 21 989 q 40 1066 21 1047 q 88 1085 58 1085 l 831 1085 m 460 1193 q 424 1204 439 1193 l 268 1307 q 235 1367 235 1332 q 249 1397 235 1385 q 288 1410 264 1410 q 350 1388 318 1410 l 460 1314 l 569 1388 q 635 1411 604 1411 q 672 1398 658 1411 q 685 1367 685 1385 q 651 1307 685 1332 l 497 1204 q 460 1193 481 1193 z "},"Ţ":{"ha":918,"x_min":21,"x_max":897,"o":"m 831 1085 q 878 1066 860 1085 q 897 1018 897 1047 q 878 970 897 989 q 831 951 860 951 l 532 951 l 532 72 l 532 64 q 553 26 553 50 q 546 -1 553 15 l 525 -49 q 631 -96 597 -64 q 664 -181 664 -128 q 638 -250 664 -217 q 566 -304 613 -283 q 458 -325 519 -325 q 322 -290 376 -325 q 268 -208 268 -256 q 288 -162 268 -182 q 333 -142 307 -142 q 363 -149 351 -142 q 381 -176 374 -157 q 411 -212 390 -200 q 460 -225 432 -225 q 506 -212 488 -225 q 524 -176 524 -199 q 509 -136 524 -151 q 461 -115 494 -121 q 409 -96 426 -110 q 392 -57 392 -82 q 399 -21 392 -39 l 413 18 q 388 72 388 39 l 388 951 l 88 951 q 40 970 58 951 q 21 1018 21 989 q 40 1066 21 1047 q 88 1085 58 1085 l 831 1085 z "},"Ț":{"ha":918,"x_min":21,"x_max":897,"o":"m 831 1085 q 878 1066 860 1085 q 897 1018 897 1047 q 878 970 897 989 q 831 951 860 951 l 532 951 l 532 72 q 511 21 532 42 q 460 0 490 0 q 408 21 429 0 q 388 72 388 42 l 388 951 l 88 951 q 40 970 58 951 q 21 1018 21 989 q 40 1066 21 1047 q 88 1085 58 1085 l 831 1085 m 465 -343 q 346 -315 400 -343 q 292 -233 292 -286 q 306 -200 292 -212 q 340 -187 319 -187 q 368 -194 357 -187 q 393 -215 379 -201 q 428 -244 411 -235 q 476 -254 444 -254 q 533 -243 517 -254 q 550 -206 550 -232 q 446 -149 550 -149 q 397 -137 415 -149 q 379 -104 379 -125 q 460 -56 379 -56 q 594 -96 543 -56 q 646 -199 646 -136 q 595 -304 646 -265 q 465 -343 544 -343 z "},"U":{"ha":1174,"x_min":139,"x_max":1035,"o":"m 593 -22 q 358 27 461 -22 q 197 164 254 76 q 139 364 139 251 l 139 1013 q 160 1065 139 1044 q 211 1085 181 1085 q 263 1065 243 1085 q 283 1013 283 1044 l 283 364 q 323 232 283 290 q 433 141 363 174 q 593 108 503 108 q 747 141 679 108 q 853 232 815 174 q 892 364 892 290 l 892 1013 q 913 1065 892 1044 q 964 1085 933 1085 q 1015 1065 994 1085 q 1035 1013 1035 1044 l 1035 364 q 978 165 1035 253 q 822 27 922 76 q 593 -22 721 -22 z "},"Ú":{"ha":1174,"x_min":139,"x_max":1035,"o":"m 593 -22 q 358 27 461 -22 q 197 164 254 76 q 139 364 139 251 l 139 1013 q 160 1065 139 1044 q 211 1085 181 1085 q 263 1065 243 1085 q 283 1013 283 1044 l 283 364 q 323 232 283 290 q 433 141 363 174 q 593 108 503 108 q 747 141 679 108 q 853 232 815 174 q 892 364 892 290 l 892 1013 q 913 1065 892 1044 q 964 1085 933 1085 q 1015 1065 994 1085 q 1035 1013 1035 1044 l 1035 364 q 978 165 1035 253 q 822 27 922 76 q 593 -22 721 -22 m 593 1204 q 542 1224 561 1204 q 522 1275 522 1244 q 539 1322 522 1304 l 675 1458 q 725 1479 696 1479 q 776 1458 756 1479 q 796 1407 796 1438 q 776 1358 796 1376 l 642 1224 q 593 1204 622 1204 z "},"Ŭ":{"ha":1174,"x_min":139,"x_max":1035,"o":"m 593 -22 q 358 27 461 -22 q 197 164 254 76 q 139 364 139 251 l 139 1013 q 160 1065 139 1044 q 211 1085 181 1085 q 263 1065 243 1085 q 283 1013 283 1044 l 283 364 q 323 232 283 290 q 433 141 363 174 q 593 108 503 108 q 747 141 679 108 q 853 232 815 174 q 892 364 892 290 l 892 1013 q 913 1065 892 1044 q 964 1085 933 1085 q 1015 1065 994 1085 q 1035 1013 1035 1044 l 1035 364 q 978 165 1035 253 q 822 27 922 76 q 593 -22 721 -22 m 588 1165 q 474 1188 526 1165 q 392 1251 422 1211 q 361 1339 361 1290 q 380 1390 361 1369 q 428 1410 399 1410 q 474 1394 454 1410 q 494 1353 494 1378 q 524 1301 494 1322 q 588 1279 553 1279 q 654 1299 629 1279 q 679 1353 679 1319 q 699 1394 679 1378 q 747 1410 719 1410 q 794 1390 776 1410 q 813 1339 813 1369 q 782 1251 813 1290 q 700 1188 751 1211 q 588 1165 649 1165 z "},"Û":{"ha":1174,"x_min":139,"x_max":1035,"o":"m 593 -22 q 358 27 461 -22 q 197 164 254 76 q 139 364 139 251 l 139 1013 q 160 1065 139 1044 q 211 1085 181 1085 q 263 1065 243 1085 q 283 1013 283 1044 l 283 364 q 323 232 283 290 q 433 141 363 174 q 593 108 503 108 q 747 141 679 108 q 853 232 815 174 q 892 364 892 290 l 892 1013 q 913 1065 892 1044 q 964 1085 933 1085 q 1015 1065 994 1085 q 1035 1013 1035 1044 l 1035 364 q 978 165 1035 253 q 822 27 922 76 q 593 -22 721 -22 m 433 1179 q 383 1195 403 1179 q 363 1236 363 1211 q 396 1297 363 1272 l 551 1399 q 588 1410 569 1410 q 625 1399 608 1410 l 779 1297 q 813 1236 813 1272 q 793 1195 813 1211 q 743 1179 774 1179 q 697 1194 718 1179 l 588 1272 l 478 1194 q 433 1179 458 1179 z "},"Ȕ":{"ha":1174,"x_min":139,"x_max":1035,"o":"m 593 -22 q 358 27 461 -22 q 197 164 254 76 q 139 364 139 251 l 139 1013 q 160 1065 139 1044 q 211 1085 181 1085 q 263 1065 243 1085 q 283 1013 283 1044 l 283 364 q 323 232 283 290 q 433 141 363 174 q 593 108 503 108 q 747 141 679 108 q 853 232 815 174 q 892 364 892 290 l 892 1013 q 913 1065 892 1044 q 964 1085 933 1085 q 1015 1065 994 1085 q 1035 1013 1035 1044 l 1035 364 q 978 165 1035 253 q 822 27 922 76 q 593 -22 721 -22 m 528 1182 q 474 1218 493 1182 l 397 1382 q 392 1397 393 1389 q 390 1408 390 1406 q 411 1458 390 1438 q 463 1479 432 1479 q 503 1466 485 1479 q 528 1435 522 1453 l 582 1263 l 585 1240 q 567 1198 585 1214 q 528 1182 550 1182 m 726 1182 q 674 1218 690 1182 l 596 1382 q 590 1408 590 1394 q 611 1458 590 1438 q 663 1479 632 1479 q 703 1466 685 1479 q 728 1435 722 1453 l 781 1263 q 785 1240 785 1250 q 767 1198 785 1214 q 726 1182 749 1182 z "},"Ü":{"ha":1174,"x_min":139,"x_max":1035,"o":"m 593 -22 q 358 27 461 -22 q 197 164 254 76 q 139 364 139 251 l 139 1013 q 160 1065 139 1044 q 211 1085 181 1085 q 263 1065 243 1085 q 283 1013 283 1044 l 283 364 q 323 232 283 290 q 433 141 363 174 q 593 108 503 108 q 747 141 679 108 q 853 232 815 174 q 892 364 892 290 l 892 1013 q 913 1065 892 1044 q 964 1085 933 1085 q 1015 1065 994 1085 q 1035 1013 1035 1044 l 1035 364 q 978 165 1035 253 q 822 27 922 76 q 593 -22 721 -22 m 433 1201 q 373 1226 397 1201 q 349 1285 349 1250 q 374 1343 349 1318 q 433 1368 399 1368 q 492 1343 467 1368 q 517 1285 517 1318 q 492 1226 517 1250 q 433 1201 467 1201 m 742 1201 q 682 1226 706 1201 q 658 1285 658 1250 q 683 1343 658 1318 q 742 1368 707 1368 q 800 1343 775 1368 q 825 1285 825 1318 q 800 1226 825 1250 q 742 1201 775 1201 z "},"Ụ":{"ha":1174,"x_min":139,"x_max":1035,"o":"m 593 -22 q 358 27 461 -22 q 197 164 254 76 q 139 364 139 251 l 139 1013 q 160 1065 139 1044 q 211 1085 181 1085 q 263 1065 243 1085 q 283 1013 283 1044 l 283 364 q 323 232 283 290 q 433 141 363 174 q 593 108 503 108 q 747 141 679 108 q 853 232 815 174 q 892 364 892 290 l 892 1013 q 913 1065 892 1044 q 964 1085 933 1085 q 1015 1065 994 1085 q 1035 1013 1035 1044 l 1035 364 q 978 165 1035 253 q 822 27 922 76 q 593 -22 721 -22 m 588 -311 q 523 -284 550 -311 q 496 -219 496 -257 q 523 -155 496 -182 q 588 -128 550 -128 q 652 -155 625 -128 q 679 -219 679 -182 q 652 -284 679 -257 q 588 -311 625 -311 z "},"Ù":{"ha":1174,"x_min":139,"x_max":1035,"o":"m 593 -22 q 358 27 461 -22 q 197 164 254 76 q 139 364 139 251 l 139 1013 q 160 1065 139 1044 q 211 1085 181 1085 q 263 1065 243 1085 q 283 1013 283 1044 l 283 364 q 323 232 283 290 q 433 141 363 174 q 593 108 503 108 q 747 141 679 108 q 853 232 815 174 q 892 364 892 290 l 892 1013 q 913 1065 892 1044 q 964 1085 933 1085 q 1015 1065 994 1085 q 1035 1013 1035 1044 l 1035 364 q 978 165 1035 253 q 822 27 922 76 q 593 -22 721 -22 m 583 1204 q 535 1224 553 1204 l 399 1358 q 381 1407 381 1376 q 400 1458 381 1438 q 450 1479 419 1479 q 501 1458 479 1479 l 636 1322 q 654 1275 654 1304 q 634 1224 654 1244 q 583 1204 614 1204 z "},"Ủ":{"ha":1174,"x_min":139,"x_max":1035,"o":"m 593 -22 q 358 27 461 -22 q 197 164 254 76 q 139 364 139 251 l 139 1013 q 160 1065 139 1044 q 211 1085 181 1085 q 263 1065 243 1085 q 283 1013 283 1044 l 283 364 q 323 232 283 290 q 433 141 363 174 q 593 108 503 108 q 747 141 679 108 q 853 232 815 174 q 892 364 892 290 l 892 1013 q 913 1065 892 1044 q 964 1085 933 1085 q 1015 1065 994 1085 q 1035 1013 1035 1044 l 1035 364 q 978 165 1035 253 q 822 27 922 76 q 593 -22 721 -22 m 588 1160 q 543 1178 561 1160 q 525 1222 525 1196 l 525 1253 q 581 1321 525 1308 l 617 1329 q 658 1349 642 1335 q 674 1385 674 1364 q 658 1424 674 1411 q 614 1438 642 1438 q 578 1431 596 1438 q 549 1415 560 1425 q 528 1404 540 1408 q 503 1400 515 1400 q 466 1413 481 1400 q 451 1449 451 1425 q 474 1497 451 1479 q 611 1543 531 1543 q 733 1499 686 1543 q 781 1389 781 1456 q 624 1247 782 1268 l 650 1250 q 633 1183 650 1206 q 588 1160 615 1160 z "},"Ư":{"ha":1174,"x_min":139,"x_max":1217,"o":"m 1154 1274 q 1200 1251 1183 1274 q 1217 1194 1217 1229 l 1217 1178 q 1165 1024 1217 1086 q 1035 960 1113 963 l 1035 364 q 978 165 1035 253 q 822 27 922 76 q 593 -22 721 -22 q 358 27 461 -22 q 197 164 254 76 q 139 364 139 251 l 139 1013 q 160 1065 139 1044 q 211 1085 181 1085 q 263 1065 243 1085 q 283 1013 283 1044 l 283 364 q 323 232 283 290 q 433 141 363 174 q 593 108 503 108 q 747 141 679 108 q 853 232 815 174 q 892 364 892 290 l 892 1013 q 913 1065 892 1044 q 964 1085 933 1085 l 1031 1085 q 1074 1111 1056 1085 q 1092 1178 1092 1138 l 1092 1204 q 1109 1255 1092 1236 q 1154 1274 1126 1274 z "},"Ứ":{"ha":1174,"x_min":139,"x_max":1217,"o":"m 1154 1274 q 1200 1251 1183 1274 q 1217 1194 1217 1229 l 1217 1178 q 1165 1024 1217 1086 q 1035 960 1113 963 l 1035 364 q 978 165 1035 253 q 822 27 922 76 q 593 -22 721 -22 q 358 27 461 -22 q 197 164 254 76 q 139 364 139 251 l 139 1013 q 160 1065 139 1044 q 211 1085 181 1085 q 263 1065 243 1085 q 283 1013 283 1044 l 283 364 q 323 232 283 290 q 433 141 363 174 q 593 108 503 108 q 747 141 679 108 q 853 232 815 174 q 892 364 892 290 l 892 1013 q 913 1065 892 1044 q 964 1085 933 1085 l 1031 1085 q 1074 1111 1056 1085 q 1092 1178 1092 1138 l 1092 1204 q 1109 1255 1092 1236 q 1154 1274 1126 1274 m 593 1204 q 542 1224 561 1204 q 522 1275 522 1244 q 539 1322 522 1304 l 675 1458 q 725 1479 696 1479 q 776 1458 756 1479 q 796 1407 796 1438 q 776 1358 796 1376 l 642 1224 q 593 1204 622 1204 z "},"Ự":{"ha":1174,"x_min":139,"x_max":1217,"o":"m 1154 1274 q 1200 1251 1183 1274 q 1217 1194 1217 1229 l 1217 1178 q 1165 1024 1217 1086 q 1035 960 1113 963 l 1035 364 q 978 165 1035 253 q 822 27 922 76 q 593 -22 721 -22 q 358 27 461 -22 q 197 164 254 76 q 139 364 139 251 l 139 1013 q 160 1065 139 1044 q 211 1085 181 1085 q 263 1065 243 1085 q 283 1013 283 1044 l 283 364 q 323 232 283 290 q 433 141 363 174 q 593 108 503 108 q 747 141 679 108 q 853 232 815 174 q 892 364 892 290 l 892 1013 q 913 1065 892 1044 q 964 1085 933 1085 l 1031 1085 q 1074 1111 1056 1085 q 1092 1178 1092 1138 l 1092 1204 q 1109 1255 1092 1236 q 1154 1274 1126 1274 m 588 -311 q 523 -284 550 -311 q 496 -219 496 -257 q 523 -155 496 -182 q 588 -128 550 -128 q 652 -155 625 -128 q 679 -219 679 -182 q 652 -284 679 -257 q 588 -311 625 -311 z "},"Ừ":{"ha":1174,"x_min":139,"x_max":1217,"o":"m 1154 1274 q 1200 1251 1183 1274 q 1217 1194 1217 1229 l 1217 1178 q 1165 1024 1217 1086 q 1035 960 1113 963 l 1035 364 q 978 165 1035 253 q 822 27 922 76 q 593 -22 721 -22 q 358 27 461 -22 q 197 164 254 76 q 139 364 139 251 l 139 1013 q 160 1065 139 1044 q 211 1085 181 1085 q 263 1065 243 1085 q 283 1013 283 1044 l 283 364 q 323 232 283 290 q 433 141 363 174 q 593 108 503 108 q 747 141 679 108 q 853 232 815 174 q 892 364 892 290 l 892 1013 q 913 1065 892 1044 q 964 1085 933 1085 l 1031 1085 q 1074 1111 1056 1085 q 1092 1178 1092 1138 l 1092 1204 q 1109 1255 1092 1236 q 1154 1274 1126 1274 m 583 1204 q 535 1224 553 1204 l 399 1358 q 381 1407 381 1376 q 400 1458 381 1438 q 450 1479 419 1479 q 501 1458 479 1479 l 636 1322 q 654 1275 654 1304 q 634 1224 654 1244 q 583 1204 614 1204 z "},"Ử":{"ha":1174,"x_min":139,"x_max":1217,"o":"m 1154 1274 q 1200 1251 1183 1274 q 1217 1194 1217 1229 l 1217 1178 q 1165 1024 1217 1086 q 1035 960 1113 963 l 1035 364 q 978 165 1035 253 q 822 27 922 76 q 593 -22 721 -22 q 358 27 461 -22 q 197 164 254 76 q 139 364 139 251 l 139 1013 q 160 1065 139 1044 q 211 1085 181 1085 q 263 1065 243 1085 q 283 1013 283 1044 l 283 364 q 323 232 283 290 q 433 141 363 174 q 593 108 503 108 q 747 141 679 108 q 853 232 815 174 q 892 364 892 290 l 892 1013 q 913 1065 892 1044 q 964 1085 933 1085 l 1031 1085 q 1074 1111 1056 1085 q 1092 1178 1092 1138 l 1092 1204 q 1109 1255 1092 1236 q 1154 1274 1126 1274 m 588 1160 q 543 1178 561 1160 q 525 1222 525 1196 l 525 1253 q 581 1321 525 1308 l 617 1329 q 658 1349 642 1335 q 674 1385 674 1364 q 658 1424 674 1411 q 614 1438 642 1438 q 578 1431 596 1438 q 549 1415 560 1425 q 528 1404 540 1408 q 503 1400 515 1400 q 466 1413 481 1400 q 451 1449 451 1425 q 474 1497 451 1479 q 611 1543 531 1543 q 733 1499 686 1543 q 781 1389 781 1456 q 624 1247 782 1268 l 650 1250 q 633 1183 650 1206 q 588 1160 615 1160 z "},"Ữ":{"ha":1174,"x_min":139,"x_max":1217,"o":"m 1154 1274 q 1200 1251 1183 1274 q 1217 1194 1217 1229 l 1217 1178 q 1165 1024 1217 1086 q 1035 960 1113 963 l 1035 364 q 978 165 1035 253 q 822 27 922 76 q 593 -22 721 -22 q 358 27 461 -22 q 197 164 254 76 q 139 364 139 251 l 139 1013 q 160 1065 139 1044 q 211 1085 181 1085 q 263 1065 243 1085 q 283 1013 283 1044 l 283 364 q 323 232 283 290 q 433 141 363 174 q 593 108 503 108 q 747 141 679 108 q 853 232 815 174 q 892 364 892 290 l 892 1013 q 913 1065 892 1044 q 964 1085 933 1085 l 1031 1085 q 1074 1111 1056 1085 q 1092 1178 1092 1138 l 1092 1204 q 1109 1255 1092 1236 q 1154 1274 1126 1274 m 736 1189 q 663 1201 694 1189 q 594 1232 631 1213 q 503 1264 536 1264 q 467 1256 482 1264 q 436 1226 451 1249 q 374 1189 408 1189 q 346 1196 363 1189 q 328 1214 335 1201 q 321 1242 321 1226 q 333 1281 321 1263 q 412 1351 365 1326 q 513 1375 458 1375 q 581 1364 551 1375 q 649 1333 611 1353 q 698 1308 682 1314 q 732 1301 714 1301 q 788 1325 764 1301 q 814 1347 803 1340 q 839 1354 825 1354 q 869 1344 854 1354 q 892 1299 892 1331 q 876 1254 892 1274 q 736 1189 824 1189 z "},"Ű":{"ha":1174,"x_min":139,"x_max":1035,"o":"m 593 -22 q 358 27 461 -22 q 197 164 254 76 q 139 364 139 251 l 139 1013 q 160 1065 139 1044 q 211 1085 181 1085 q 263 1065 243 1085 q 283 1013 283 1044 l 283 364 q 323 232 283 290 q 433 141 363 174 q 593 108 503 108 q 747 141 679 108 q 853 232 815 174 q 892 364 892 290 l 892 1013 q 913 1065 892 1044 q 964 1085 933 1085 q 1015 1065 994 1085 q 1035 1013 1035 1044 l 1035 364 q 978 165 1035 253 q 822 27 922 76 q 593 -22 721 -22 m 489 1182 q 449 1198 467 1182 q 431 1240 431 1214 q 435 1263 431 1250 l 488 1435 q 512 1466 493 1453 q 553 1479 531 1479 q 604 1458 583 1479 q 625 1408 625 1438 q 619 1382 625 1394 l 542 1218 q 489 1182 525 1182 m 688 1182 q 648 1198 665 1182 q 631 1240 631 1214 l 633 1263 l 688 1435 q 712 1466 693 1453 q 753 1479 731 1479 q 803 1458 782 1479 q 825 1408 825 1438 q 824 1397 825 1406 q 818 1382 822 1389 l 742 1218 q 688 1182 722 1182 z "},"Ȗ":{"ha":1174,"x_min":139,"x_max":1035,"o":"m 593 -22 q 358 27 461 -22 q 197 164 254 76 q 139 364 139 251 l 139 1013 q 160 1065 139 1044 q 211 1085 181 1085 q 263 1065 243 1085 q 283 1013 283 1044 l 283 364 q 323 232 283 290 q 433 141 363 174 q 593 108 503 108 q 747 141 679 108 q 853 232 815 174 q 892 364 892 290 l 892 1013 q 913 1065 892 1044 q 964 1085 933 1085 q 1015 1065 994 1085 q 1035 1013 1035 1044 l 1035 364 q 978 165 1035 253 q 822 27 922 76 q 593 -22 721 -22 m 588 1410 q 700 1387 649 1410 q 782 1324 751 1364 q 813 1236 813 1285 q 794 1185 813 1206 q 747 1165 776 1165 q 699 1181 719 1165 q 679 1222 679 1197 q 654 1276 679 1256 q 588 1296 629 1296 q 524 1274 553 1296 q 494 1222 494 1253 q 474 1181 494 1197 q 428 1165 454 1165 q 380 1185 399 1165 q 361 1236 361 1206 q 392 1324 361 1285 q 474 1387 422 1364 q 588 1410 526 1410 z "},"Ū":{"ha":1174,"x_min":139,"x_max":1035,"o":"m 593 -22 q 358 27 461 -22 q 197 164 254 76 q 139 364 139 251 l 139 1013 q 160 1065 139 1044 q 211 1085 181 1085 q 263 1065 243 1085 q 283 1013 283 1044 l 283 364 q 323 232 283 290 q 433 141 363 174 q 593 108 503 108 q 747 141 679 108 q 853 232 815 174 q 892 364 892 290 l 892 1013 q 913 1065 892 1044 q 964 1085 933 1085 q 1015 1065 994 1085 q 1035 1013 1035 1044 l 1035 364 q 978 165 1035 253 q 822 27 922 76 q 593 -22 721 -22 m 413 1224 q 361 1240 381 1224 q 342 1288 342 1257 q 361 1333 342 1317 q 413 1349 381 1349 l 760 1349 q 812 1333 792 1349 q 832 1288 832 1317 q 812 1240 832 1257 q 760 1224 792 1224 l 413 1224 z "},"Ų":{"ha":1174,"x_min":139,"x_max":1035,"o":"m 964 1085 q 1015 1065 994 1085 q 1035 1013 1035 1044 l 1035 364 q 969 151 1035 243 q 792 14 904 60 q 704 -99 783 -42 q 690 -126 690 -111 q 699 -149 690 -140 q 722 -158 708 -158 q 739 -153 733 -158 l 782 -121 q 825 -107 803 -107 q 876 -127 856 -107 q 896 -178 896 -147 q 871 -235 896 -212 l 818 -269 q 722 -300 775 -300 q 636 -276 676 -300 q 572 -213 596 -253 q 549 -126 549 -174 q 585 -22 549 -69 q 354 29 456 -21 q 196 166 253 79 q 139 364 139 253 l 139 1013 q 160 1065 139 1044 q 211 1085 181 1085 q 263 1065 243 1085 q 283 1013 283 1044 l 283 364 q 323 232 283 290 q 433 141 363 174 q 593 108 503 108 q 747 141 679 108 q 853 232 815 174 q 892 364 892 290 l 892 1013 q 913 1065 892 1044 q 964 1085 933 1085 z "},"Ů":{"ha":1174,"x_min":139,"x_max":1035,"o":"m 593 -22 q 358 27 461 -22 q 197 164 254 76 q 139 364 139 251 l 139 1013 q 160 1065 139 1044 q 211 1085 181 1085 q 263 1065 243 1085 q 283 1013 283 1044 l 283 364 q 323 232 283 290 q 433 141 363 174 q 593 108 503 108 q 747 141 679 108 q 853 232 815 174 q 892 364 892 290 l 892 1013 q 913 1065 892 1044 q 964 1085 933 1085 q 1015 1065 994 1085 q 1035 1013 1035 1044 l 1035 364 q 978 165 1035 253 q 822 27 922 76 q 593 -22 721 -22 m 588 1139 q 481 1181 522 1139 q 439 1288 439 1222 q 481 1395 439 1353 q 588 1438 522 1438 q 694 1395 653 1438 q 736 1288 736 1353 q 694 1181 736 1222 q 588 1139 653 1139 m 588 1217 q 638 1237 618 1217 q 658 1288 658 1257 q 638 1340 658 1319 q 588 1360 618 1360 q 535 1340 556 1360 q 515 1288 515 1319 q 535 1237 515 1257 q 588 1217 556 1217 z "},"Ũ":{"ha":1174,"x_min":139,"x_max":1035,"o":"m 593 -22 q 358 27 461 -22 q 197 164 254 76 q 139 364 139 251 l 139 1013 q 160 1065 139 1044 q 211 1085 181 1085 q 263 1065 243 1085 q 283 1013 283 1044 l 283 364 q 323 232 283 290 q 433 141 363 174 q 593 108 503 108 q 747 141 679 108 q 853 232 815 174 q 892 364 892 290 l 892 1013 q 913 1065 892 1044 q 964 1085 933 1085 q 1015 1065 994 1085 q 1035 1013 1035 1044 l 1035 364 q 978 165 1035 253 q 822 27 922 76 q 593 -22 721 -22 m 736 1189 q 663 1201 694 1189 q 594 1232 631 1213 q 503 1264 536 1264 q 467 1256 482 1264 q 436 1226 451 1249 q 374 1189 408 1189 q 346 1196 363 1189 q 328 1214 335 1201 q 321 1242 321 1226 q 333 1281 321 1263 q 412 1351 365 1326 q 513 1375 458 1375 q 581 1364 551 1375 q 649 1333 611 1353 q 698 1308 682 1314 q 732 1301 714 1301 q 788 1325 764 1301 q 814 1347 803 1340 q 839 1354 825 1354 q 869 1344 854 1354 q 892 1299 892 1331 q 876 1254 892 1274 q 736 1189 824 1189 z "},"V":{"ha":1024,"x_min":28,"x_max":996,"o":"m 931 1085 q 978 1068 961 1085 q 996 1025 996 1051 q 988 989 996 1008 l 576 46 q 511 0 558 0 q 446 46 467 0 l 39 976 q 28 1025 28 1006 q 45 1069 28 1053 q 93 1085 63 1085 q 160 1042 142 1085 l 510 203 l 865 1042 q 890 1076 875 1067 q 931 1085 906 1085 z "},"W":{"ha":1303,"x_min":13,"x_max":1288,"o":"m 1232 1085 q 1274 1068 1260 1085 q 1288 1024 1288 1051 q 1282 985 1288 1003 l 1003 58 q 974 16 993 32 q 931 0 956 0 q 886 16 906 0 q 858 57 867 32 l 651 857 l 442 58 q 413 16 432 32 q 369 0 394 0 q 325 15 344 0 q 297 57 306 31 l 18 985 q 13 1022 13 1003 q 28 1068 13 1051 q 72 1085 44 1085 q 116 1071 97 1085 q 143 1031 135 1057 l 371 239 l 581 1022 q 606 1057 586 1043 q 650 1071 625 1071 q 693 1058 674 1071 q 718 1024 713 1046 l 931 233 l 1161 1038 q 1185 1074 1168 1063 q 1232 1085 1203 1085 z "},"Ẃ":{"ha":1303,"x_min":13,"x_max":1288,"o":"m 1232 1085 q 1274 1068 1260 1085 q 1288 1024 1288 1051 q 1282 985 1288 1003 l 1003 58 q 974 16 993 32 q 931 0 956 0 q 886 16 906 0 q 858 57 867 32 l 651 857 l 442 58 q 413 16 432 32 q 369 0 394 0 q 325 15 344 0 q 297 57 306 31 l 18 985 q 13 1022 13 1003 q 28 1068 13 1051 q 72 1085 44 1085 q 116 1071 97 1085 q 143 1031 135 1057 l 371 239 l 581 1022 q 606 1057 586 1043 q 650 1071 625 1071 q 693 1058 674 1071 q 718 1024 713 1046 l 931 233 l 1161 1038 q 1185 1074 1168 1063 q 1232 1085 1203 1085 m 657 1204 q 606 1224 625 1204 q 586 1275 586 1244 q 603 1322 586 1304 l 739 1458 q 789 1479 760 1479 q 840 1458 819 1479 q 860 1407 860 1438 q 840 1358 860 1376 l 706 1224 q 657 1204 686 1204 z "},"Ŵ":{"ha":1303,"x_min":13,"x_max":1288,"o":"m 1232 1085 q 1274 1068 1260 1085 q 1288 1024 1288 1051 q 1282 985 1288 1003 l 1003 58 q 974 16 993 32 q 931 0 956 0 q 886 16 906 0 q 858 57 867 32 l 651 857 l 442 58 q 413 16 432 32 q 369 0 394 0 q 325 15 344 0 q 297 57 306 31 l 18 985 q 13 1022 13 1003 q 28 1068 13 1051 q 72 1085 44 1085 q 116 1071 97 1085 q 143 1031 135 1057 l 371 239 l 581 1022 q 606 1057 586 1043 q 650 1071 625 1071 q 693 1058 674 1071 q 718 1024 713 1046 l 931 233 l 1161 1038 q 1185 1074 1168 1063 q 1232 1085 1203 1085 m 497 1179 q 447 1195 467 1179 q 426 1236 426 1211 q 460 1297 426 1272 l 615 1399 q 651 1410 633 1410 q 689 1399 672 1410 l 843 1297 q 876 1236 876 1272 q 857 1195 876 1211 q 807 1179 838 1179 q 761 1194 782 1179 l 651 1272 l 542 1194 q 497 1179 522 1179 z "},"Ẅ":{"ha":1303,"x_min":13,"x_max":1288,"o":"m 1232 1085 q 1274 1068 1260 1085 q 1288 1024 1288 1051 q 1282 985 1288 1003 l 1003 58 q 974 16 993 32 q 931 0 956 0 q 886 16 906 0 q 858 57 867 32 l 651 857 l 442 58 q 413 16 432 32 q 369 0 394 0 q 325 15 344 0 q 297 57 306 31 l 18 985 q 13 1022 13 1003 q 28 1068 13 1051 q 72 1085 44 1085 q 116 1071 97 1085 q 143 1031 135 1057 l 371 239 l 581 1022 q 606 1057 586 1043 q 650 1071 625 1071 q 693 1058 674 1071 q 718 1024 713 1046 l 931 233 l 1161 1038 q 1185 1074 1168 1063 q 1232 1085 1203 1085 m 497 1201 q 437 1226 461 1201 q 413 1285 413 1250 q 438 1343 413 1318 q 497 1368 463 1368 q 556 1343 531 1368 q 581 1285 581 1318 q 556 1226 581 1250 q 497 1201 531 1201 m 806 1201 q 746 1226 769 1201 q 722 1285 722 1250 q 747 1343 722 1318 q 806 1368 771 1368 q 864 1343 839 1368 q 889 1285 889 1318 q 864 1226 889 1250 q 806 1201 839 1201 z "},"Ẁ":{"ha":1303,"x_min":13,"x_max":1288,"o":"m 1232 1085 q 1274 1068 1260 1085 q 1288 1024 1288 1051 q 1282 985 1288 1003 l 1003 58 q 974 16 993 32 q 931 0 956 0 q 886 16 906 0 q 858 57 867 32 l 651 857 l 442 58 q 413 16 432 32 q 369 0 394 0 q 325 15 344 0 q 297 57 306 31 l 18 985 q 13 1022 13 1003 q 28 1068 13 1051 q 72 1085 44 1085 q 116 1071 97 1085 q 143 1031 135 1057 l 371 239 l 581 1022 q 606 1057 586 1043 q 650 1071 625 1071 q 693 1058 674 1071 q 718 1024 713 1046 l 931 233 l 1161 1038 q 1185 1074 1168 1063 q 1232 1085 1203 1085 m 647 1204 q 599 1224 617 1204 l 463 1358 q 444 1407 444 1376 q 464 1458 444 1438 q 514 1479 483 1479 q 565 1458 543 1479 l 700 1322 q 718 1275 718 1304 q 698 1224 718 1244 q 647 1204 678 1204 z "},"X":{"ha":994,"x_min":69,"x_max":933,"o":"m 913 117 q 928 69 928 94 q 910 21 928 42 q 861 0 892 0 q 806 26 826 0 l 504 444 l 185 21 q 135 0 164 0 q 87 19 104 0 q 69 67 69 39 q 86 117 69 94 l 410 547 l 104 971 q 90 1014 90 989 q 108 1064 90 1043 q 157 1085 126 1085 q 208 1064 193 1085 l 507 650 l 818 1064 q 869 1085 838 1085 q 916 1065 899 1085 q 933 1018 933 1046 q 918 971 933 994 l 601 549 l 913 117 z "},"Y":{"ha":931,"x_min":7,"x_max":924,"o":"m 863 1085 q 906 1065 889 1085 q 924 1018 924 1046 q 910 972 924 994 l 536 396 l 536 72 q 515 21 536 42 q 464 0 494 0 q 414 21 435 0 q 393 72 393 42 l 393 396 l 22 972 q 7 1017 7 996 q 28 1065 7 1046 q 79 1085 50 1085 q 115 1075 101 1085 q 143 1044 129 1065 l 468 529 l 799 1050 q 863 1085 821 1085 z "},"Ý":{"ha":931,"x_min":7,"x_max":924,"o":"m 863 1085 q 906 1065 889 1085 q 924 1018 924 1046 q 910 972 924 994 l 536 396 l 536 72 q 515 21 536 42 q 464 0 494 0 q 414 21 435 0 q 393 72 393 42 l 393 396 l 22 972 q 7 1017 7 996 q 28 1065 7 1046 q 79 1085 50 1085 q 115 1075 101 1085 q 143 1044 129 1065 l 468 529 l 799 1050 q 863 1085 821 1085 m 471 1204 q 419 1224 439 1204 q 400 1275 400 1244 q 417 1322 400 1304 l 553 1458 q 603 1479 574 1479 q 653 1458 633 1479 q 674 1407 674 1438 q 654 1358 674 1376 l 519 1224 q 471 1204 500 1204 z "},"Ŷ":{"ha":931,"x_min":7,"x_max":924,"o":"m 863 1085 q 906 1065 889 1085 q 924 1018 924 1046 q 910 972 924 994 l 536 396 l 536 72 q 515 21 536 42 q 464 0 494 0 q 414 21 435 0 q 393 72 393 42 l 393 396 l 22 972 q 7 1017 7 996 q 28 1065 7 1046 q 79 1085 50 1085 q 115 1075 101 1085 q 143 1044 129 1065 l 468 529 l 799 1050 q 863 1085 821 1085 m 311 1179 q 260 1195 281 1179 q 240 1236 240 1211 q 274 1297 240 1272 l 429 1399 q 465 1410 447 1410 q 503 1399 486 1410 l 657 1297 q 690 1236 690 1272 q 671 1195 690 1211 q 621 1179 651 1179 q 575 1194 596 1179 l 465 1272 l 356 1194 q 311 1179 336 1179 z "},"Ÿ":{"ha":931,"x_min":7,"x_max":924,"o":"m 863 1085 q 906 1065 889 1085 q 924 1018 924 1046 q 910 972 924 994 l 536 396 l 536 72 q 515 21 536 42 q 464 0 494 0 q 414 21 435 0 q 393 72 393 42 l 393 396 l 22 972 q 7 1017 7 996 q 28 1065 7 1046 q 79 1085 50 1085 q 115 1075 101 1085 q 143 1044 129 1065 l 468 529 l 799 1050 q 863 1085 821 1085 m 311 1201 q 251 1226 275 1201 q 226 1285 226 1250 q 251 1343 226 1318 q 311 1368 276 1368 q 369 1343 344 1368 q 394 1285 394 1318 q 369 1226 394 1250 q 311 1201 344 1201 m 619 1201 q 560 1226 583 1201 q 536 1285 536 1250 q 560 1343 536 1318 q 619 1368 585 1368 q 678 1343 653 1368 q 703 1285 703 1318 q 678 1226 703 1250 q 619 1201 653 1201 z "},"Ỵ":{"ha":931,"x_min":7,"x_max":924,"o":"m 863 1085 q 906 1065 889 1085 q 924 1018 924 1046 q 910 972 924 994 l 536 396 l 536 72 q 515 21 536 42 q 464 0 494 0 q 414 21 435 0 q 393 72 393 42 l 393 396 l 22 972 q 7 1017 7 996 q 28 1065 7 1046 q 79 1085 50 1085 q 115 1075 101 1085 q 143 1044 129 1065 l 468 529 l 799 1050 q 863 1085 821 1085 m 465 -311 q 401 -284 428 -311 q 374 -219 374 -257 q 401 -155 374 -182 q 465 -128 428 -128 q 530 -155 503 -128 q 557 -219 557 -182 q 530 -284 557 -257 q 465 -311 503 -311 z "},"Ỳ":{"ha":931,"x_min":7,"x_max":924,"o":"m 863 1085 q 906 1065 889 1085 q 924 1018 924 1046 q 910 972 924 994 l 536 396 l 536 72 q 515 21 536 42 q 464 0 494 0 q 414 21 435 0 q 393 72 393 42 l 393 396 l 22 972 q 7 1017 7 996 q 28 1065 7 1046 q 79 1085 50 1085 q 115 1075 101 1085 q 143 1044 129 1065 l 468 529 l 799 1050 q 863 1085 821 1085 m 461 1204 q 413 1224 431 1204 l 276 1358 q 258 1407 258 1376 q 278 1458 258 1438 q 328 1479 297 1479 q 379 1458 357 1479 l 514 1322 q 532 1275 532 1304 q 512 1224 532 1244 q 461 1204 492 1204 z "},"Ỷ":{"ha":931,"x_min":7,"x_max":924,"o":"m 863 1085 q 906 1065 889 1085 q 924 1018 924 1046 q 910 972 924 994 l 536 396 l 536 72 q 515 21 536 42 q 464 0 494 0 q 414 21 435 0 q 393 72 393 42 l 393 396 l 22 972 q 7 1017 7 996 q 28 1065 7 1046 q 79 1085 50 1085 q 115 1075 101 1085 q 143 1044 129 1065 l 468 529 l 799 1050 q 863 1085 821 1085 m 465 1160 q 421 1178 439 1160 q 403 1222 403 1196 l 403 1253 q 458 1321 403 1308 l 494 1329 q 535 1349 519 1335 q 551 1385 551 1364 q 535 1424 551 1411 q 492 1438 519 1438 q 456 1431 474 1438 q 426 1415 438 1425 q 406 1404 418 1408 q 381 1400 393 1400 q 344 1413 358 1400 q 329 1449 329 1425 q 351 1497 329 1479 q 489 1543 408 1543 q 611 1499 564 1543 q 658 1389 658 1456 q 501 1247 660 1268 l 528 1250 q 510 1183 528 1206 q 465 1160 493 1160 z "},"Ȳ":{"ha":931,"x_min":7,"x_max":924,"o":"m 863 1085 q 906 1065 889 1085 q 924 1018 924 1046 q 910 972 924 994 l 536 396 l 536 72 q 515 21 536 42 q 464 0 494 0 q 414 21 435 0 q 393 72 393 42 l 393 396 l 22 972 q 7 1017 7 996 q 28 1065 7 1046 q 79 1085 50 1085 q 115 1075 101 1085 q 143 1044 129 1065 l 468 529 l 799 1050 q 863 1085 821 1085 m 290 1224 q 239 1240 258 1224 q 219 1288 219 1257 q 239 1333 219 1317 q 290 1349 258 1349 l 638 1349 q 690 1333 669 1349 q 710 1288 710 1317 q 690 1240 710 1257 q 638 1224 669 1224 l 290 1224 z "},"Ỹ":{"ha":931,"x_min":7,"x_max":924,"o":"m 863 1085 q 906 1065 889 1085 q 924 1018 924 1046 q 910 972 924 994 l 536 396 l 536 72 q 515 21 536 42 q 464 0 494 0 q 414 21 435 0 q 393 72 393 42 l 393 396 l 22 972 q 7 1017 7 996 q 28 1065 7 1046 q 79 1085 50 1085 q 115 1075 101 1085 q 143 1044 129 1065 l 468 529 l 799 1050 q 863 1085 821 1085 m 614 1189 q 540 1201 572 1189 q 472 1232 508 1213 q 381 1264 414 1264 q 344 1256 360 1264 q 314 1226 329 1249 q 251 1189 286 1189 q 224 1196 240 1189 q 206 1214 213 1201 q 199 1242 199 1226 q 211 1281 199 1263 q 290 1351 243 1326 q 390 1375 336 1375 q 459 1364 429 1375 q 526 1333 489 1353 q 576 1308 560 1314 q 610 1301 592 1301 q 665 1325 642 1301 q 692 1347 681 1340 q 717 1354 703 1354 q 747 1344 732 1354 q 769 1299 769 1331 q 754 1254 769 1274 q 614 1189 701 1189 z "},"Z":{"ha":1031,"x_min":76,"x_max":954,"o":"m 147 0 q 96 22 115 0 q 76 74 76 44 q 90 117 76 99 l 769 957 l 161 957 q 110 974 128 957 q 93 1018 92 990 q 112 1066 92 1047 q 164 1085 132 1085 l 881 1085 q 934 1063 914 1085 q 954 1013 954 1042 q 939 971 954 990 l 257 128 l 881 128 q 931 109 911 128 q 951 65 951 90 q 932 17 951 35 q 881 0 913 0 l 147 0 z "},"Ź":{"ha":1031,"x_min":76,"x_max":954,"o":"m 147 0 q 96 22 115 0 q 76 74 76 44 q 90 117 76 99 l 769 957 l 161 957 q 110 974 128 957 q 93 1018 92 990 q 112 1066 92 1047 q 164 1085 132 1085 l 881 1085 q 934 1063 914 1085 q 954 1013 954 1042 q 939 971 954 990 l 257 128 l 881 128 q 931 109 911 128 q 951 65 951 90 q 932 17 951 35 q 881 0 913 0 l 147 0 m 521 1204 q 469 1224 489 1204 q 450 1275 450 1244 q 467 1322 450 1304 l 603 1458 q 653 1479 624 1479 q 703 1458 683 1479 q 724 1407 724 1438 q 704 1358 724 1376 l 569 1224 q 521 1204 550 1204 z "},"Ž":{"ha":1031,"x_min":76,"x_max":954,"o":"m 147 0 q 96 22 115 0 q 76 74 76 44 q 90 117 76 99 l 769 957 l 161 957 q 110 974 128 957 q 93 1018 92 990 q 112 1066 92 1047 q 164 1085 132 1085 l 881 1085 q 934 1063 914 1085 q 954 1013 954 1042 q 939 971 954 990 l 257 128 l 881 128 q 931 109 911 128 q 951 65 951 90 q 932 17 951 35 q 881 0 913 0 l 147 0 m 515 1193 q 479 1204 494 1193 l 324 1307 q 290 1367 290 1332 q 305 1397 290 1385 q 343 1410 319 1410 q 406 1388 374 1410 l 515 1314 l 625 1388 q 690 1411 660 1411 q 727 1398 714 1411 q 740 1367 740 1385 q 707 1307 740 1332 l 553 1204 q 515 1193 536 1193 z "},"Ż":{"ha":1031,"x_min":76,"x_max":954,"o":"m 147 0 q 96 22 115 0 q 76 74 76 44 q 90 117 76 99 l 769 957 l 161 957 q 110 974 128 957 q 93 1018 92 990 q 112 1066 92 1047 q 164 1085 132 1085 l 881 1085 q 934 1063 914 1085 q 954 1013 954 1042 q 939 971 954 990 l 257 128 l 881 128 q 931 109 911 128 q 951 65 951 90 q 932 17 951 35 q 881 0 913 0 l 147 0 m 515 1208 q 451 1235 478 1208 q 424 1300 424 1263 q 451 1365 424 1338 q 515 1392 478 1392 q 580 1365 553 1392 q 607 1300 607 1338 q 580 1235 607 1263 q 515 1208 553 1208 z "},"a":{"ha":938,"x_min":86,"x_max":851,"o":"m 469 765 q 663 715 576 765 q 801 576 750 664 q 851 379 851 488 l 851 69 q 831 19 851 39 q 781 -1 811 -1 q 730 19 750 -1 q 710 69 710 39 l 710 121 q 592 28 661 61 q 442 -6 522 -6 q 260 44 342 -6 q 133 183 179 94 q 86 379 86 271 q 136 576 86 488 q 274 715 186 664 q 469 765 363 765 m 469 119 q 595 153 539 119 q 683 247 651 188 q 715 379 715 306 q 683 513 715 453 q 595 606 651 572 q 469 640 539 640 q 344 606 400 640 q 255 513 288 572 q 222 379 222 453 q 255 247 222 306 q 344 153 288 188 q 469 119 400 119 z "},"á":{"ha":938,"x_min":86,"x_max":851,"o":"m 469 765 q 663 715 576 765 q 801 576 750 664 q 851 379 851 488 l 851 69 q 831 19 851 39 q 781 -1 811 -1 q 730 19 750 -1 q 710 69 710 39 l 710 121 q 592 28 661 61 q 442 -6 522 -6 q 260 44 342 -6 q 133 183 179 94 q 86 379 86 271 q 136 576 86 488 q 274 715 186 664 q 469 765 363 765 m 469 119 q 595 153 539 119 q 683 247 651 188 q 715 379 715 306 q 683 513 715 453 q 595 606 651 572 q 469 640 539 640 q 344 606 400 640 q 255 513 288 572 q 222 379 222 453 q 255 247 222 306 q 344 153 288 188 q 469 119 400 119 m 475 879 q 424 899 443 879 q 404 950 404 919 q 421 997 404 979 l 557 1133 q 607 1154 578 1154 q 658 1133 638 1154 q 678 1082 678 1113 q 658 1033 678 1051 l 524 899 q 475 879 504 879 z "},"ă":{"ha":938,"x_min":86,"x_max":851,"o":"m 469 765 q 663 715 576 765 q 801 576 750 664 q 851 379 851 488 l 851 69 q 831 19 851 39 q 781 -1 811 -1 q 730 19 750 -1 q 710 69 710 39 l 710 121 q 592 28 661 61 q 442 -6 522 -6 q 260 44 342 -6 q 133 183 179 94 q 86 379 86 271 q 136 576 86 488 q 274 715 186 664 q 469 765 363 765 m 469 119 q 595 153 539 119 q 683 247 651 188 q 715 379 715 306 q 683 513 715 453 q 595 606 651 572 q 469 640 539 640 q 344 606 400 640 q 255 513 288 572 q 222 379 222 453 q 255 247 222 306 q 344 153 288 188 q 469 119 400 119 m 469 840 q 356 863 408 840 q 274 926 304 886 q 243 1014 243 965 q 262 1065 243 1044 q 310 1085 281 1085 q 356 1069 336 1085 q 376 1028 376 1053 q 406 976 376 997 q 469 954 435 954 q 536 974 511 954 q 561 1028 561 994 q 581 1069 561 1053 q 629 1085 601 1085 q 676 1065 658 1085 q 694 1014 694 1044 q 664 926 694 965 q 582 863 633 886 q 469 840 531 840 z "},"ắ":{"ha":938,"x_min":86,"x_max":851,"o":"m 469 765 q 663 715 576 765 q 801 576 750 664 q 851 379 851 488 l 851 69 q 831 19 851 39 q 781 -1 811 -1 q 730 19 750 -1 q 710 69 710 39 l 710 121 q 592 28 661 61 q 442 -6 522 -6 q 260 44 342 -6 q 133 183 179 94 q 86 379 86 271 q 136 576 86 488 q 274 715 186 664 q 469 765 363 765 m 469 119 q 595 153 539 119 q 683 247 651 188 q 715 379 715 306 q 683 513 715 453 q 595 606 651 572 q 469 640 539 640 q 344 606 400 640 q 255 513 288 572 q 222 379 222 453 q 255 247 222 306 q 344 153 288 188 q 469 119 400 119 m 469 840 q 356 863 408 840 q 274 926 304 886 q 243 1014 243 965 q 262 1065 243 1044 q 310 1085 281 1085 q 356 1069 336 1085 q 376 1028 376 1053 q 406 976 376 997 q 469 954 435 954 q 536 974 511 954 q 561 1028 561 994 q 581 1069 561 1053 q 629 1085 601 1085 q 676 1065 658 1085 q 694 1014 694 1044 q 664 926 694 965 q 582 863 633 886 q 469 840 531 840 m 475 1121 q 424 1141 443 1121 q 404 1192 404 1161 q 421 1239 404 1221 l 557 1375 q 607 1396 578 1396 q 658 1375 638 1396 q 678 1324 678 1354 q 658 1275 678 1293 l 524 1140 q 475 1121 504 1121 z "},"ặ":{"ha":938,"x_min":86,"x_max":851,"o":"m 469 765 q 663 715 576 765 q 801 576 750 664 q 851 379 851 488 l 851 69 q 831 19 851 39 q 781 -1 811 -1 q 730 19 750 -1 q 710 69 710 39 l 710 121 q 592 28 661 61 q 442 -6 522 -6 q 260 44 342 -6 q 133 183 179 94 q 86 379 86 271 q 136 576 86 488 q 274 715 186 664 q 469 765 363 765 m 469 119 q 595 153 539 119 q 683 247 651 188 q 715 379 715 306 q 683 513 715 453 q 595 606 651 572 q 469 640 539 640 q 344 606 400 640 q 255 513 288 572 q 222 379 222 453 q 255 247 222 306 q 344 153 288 188 q 469 119 400 119 m 469 840 q 356 863 408 840 q 274 926 304 886 q 243 1014 243 965 q 262 1065 243 1044 q 310 1085 281 1085 q 356 1069 336 1085 q 376 1028 376 1053 q 406 976 376 997 q 469 954 435 954 q 536 974 511 954 q 561 1028 561 994 q 581 1069 561 1053 q 629 1085 601 1085 q 676 1065 658 1085 q 694 1014 694 1044 q 664 926 694 965 q 582 863 633 886 q 469 840 531 840 m 469 -311 q 405 -284 432 -311 q 378 -219 378 -257 q 405 -155 378 -182 q 469 -128 432 -128 q 534 -155 507 -128 q 561 -219 561 -182 q 534 -284 561 -257 q 469 -311 507 -311 z "},"ằ":{"ha":938,"x_min":86,"x_max":851,"o":"m 469 765 q 663 715 576 765 q 801 576 750 664 q 851 379 851 488 l 851 69 q 831 19 851 39 q 781 -1 811 -1 q 730 19 750 -1 q 710 69 710 39 l 710 121 q 592 28 661 61 q 442 -6 522 -6 q 260 44 342 -6 q 133 183 179 94 q 86 379 86 271 q 136 576 86 488 q 274 715 186 664 q 469 765 363 765 m 469 119 q 595 153 539 119 q 683 247 651 188 q 715 379 715 306 q 683 513 715 453 q 595 606 651 572 q 469 640 539 640 q 344 606 400 640 q 255 513 288 572 q 222 379 222 453 q 255 247 222 306 q 344 153 288 188 q 469 119 400 119 m 469 840 q 356 863 408 840 q 274 926 304 886 q 243 1014 243 965 q 262 1065 243 1044 q 310 1085 281 1085 q 356 1069 336 1085 q 376 1028 376 1053 q 406 976 376 997 q 469 954 435 954 q 536 974 511 954 q 561 1028 561 994 q 581 1069 561 1053 q 629 1085 601 1085 q 676 1065 658 1085 q 694 1014 694 1044 q 664 926 694 965 q 582 863 633 886 q 469 840 531 840 m 465 1121 q 417 1140 435 1121 l 281 1275 q 263 1324 263 1293 q 282 1375 263 1354 q 332 1396 301 1396 q 383 1375 361 1396 l 518 1239 q 536 1192 536 1221 q 516 1141 536 1161 q 465 1121 496 1121 z "},"ẳ":{"ha":938,"x_min":86,"x_max":851,"o":"m 469 765 q 663 715 576 765 q 801 576 750 664 q 851 379 851 488 l 851 69 q 831 19 851 39 q 781 -1 811 -1 q 730 19 750 -1 q 710 69 710 39 l 710 121 q 592 28 661 61 q 442 -6 522 -6 q 260 44 342 -6 q 133 183 179 94 q 86 379 86 271 q 136 576 86 488 q 274 715 186 664 q 469 765 363 765 m 469 119 q 595 153 539 119 q 683 247 651 188 q 715 379 715 306 q 683 513 715 453 q 595 606 651 572 q 469 640 539 640 q 344 606 400 640 q 255 513 288 572 q 222 379 222 453 q 255 247 222 306 q 344 153 288 188 q 469 119 400 119 m 469 840 q 356 863 408 840 q 274 926 304 886 q 243 1014 243 965 q 262 1065 243 1044 q 310 1085 281 1085 q 356 1069 336 1085 q 376 1028 376 1053 q 406 976 376 997 q 469 954 435 954 q 536 974 511 954 q 561 1028 561 994 q 581 1069 561 1053 q 629 1085 601 1085 q 676 1065 658 1085 q 694 1014 694 1044 q 664 926 694 965 q 582 863 633 886 q 469 840 531 840 m 469 1076 q 425 1094 443 1076 q 407 1139 407 1113 l 407 1169 q 463 1238 407 1225 l 499 1246 q 540 1266 524 1251 q 556 1301 556 1281 q 540 1341 556 1328 q 496 1354 524 1354 q 460 1348 478 1354 q 431 1332 442 1342 q 410 1321 422 1325 q 385 1317 397 1317 q 348 1329 363 1317 q 333 1365 333 1342 q 356 1414 333 1396 q 493 1460 413 1460 q 615 1416 568 1460 q 663 1306 663 1372 q 506 1164 664 1185 l 532 1167 q 515 1099 532 1122 q 469 1076 497 1076 z "},"ẵ":{"ha":938,"x_min":86,"x_max":851,"o":"m 469 765 q 663 715 576 765 q 801 576 750 664 q 851 379 851 488 l 851 69 q 831 19 851 39 q 781 -1 811 -1 q 730 19 750 -1 q 710 69 710 39 l 710 121 q 592 28 661 61 q 442 -6 522 -6 q 260 44 342 -6 q 133 183 179 94 q 86 379 86 271 q 136 576 86 488 q 274 715 186 664 q 469 765 363 765 m 469 119 q 595 153 539 119 q 683 247 651 188 q 715 379 715 306 q 683 513 715 453 q 595 606 651 572 q 469 640 539 640 q 344 606 400 640 q 255 513 288 572 q 222 379 222 453 q 255 247 222 306 q 344 153 288 188 q 469 119 400 119 m 471 840 q 358 863 410 840 q 275 926 306 886 q 244 1014 244 965 q 263 1065 244 1044 q 311 1085 282 1085 q 358 1069 338 1085 q 378 1028 378 1053 q 407 976 378 997 q 471 954 436 954 q 538 974 513 954 q 563 1028 563 994 q 583 1069 563 1053 q 631 1085 603 1085 q 678 1065 660 1085 q 696 1014 696 1044 q 665 926 696 965 q 583 863 635 886 q 471 840 532 840 m 568 1114 q 447 1171 507 1114 q 417 1197 426 1190 q 394 1204 407 1204 q 372 1195 381 1204 q 350 1165 363 1186 q 325 1141 340 1150 q 293 1132 310 1132 q 269 1136 282 1132 q 243 1157 253 1143 q 233 1188 233 1171 q 242 1217 233 1203 q 383 1318 299 1318 q 446 1303 421 1318 q 486 1275 471 1289 q 506 1257 501 1261 q 553 1232 535 1232 q 583 1253 568 1232 q 644 1289 608 1289 q 667 1285 656 1289 q 694 1263 685 1276 q 704 1232 704 1249 q 694 1201 704 1218 q 637 1135 668 1156 q 568 1114 606 1114 z "},"â":{"ha":938,"x_min":86,"x_max":851,"o":"m 469 765 q 663 715 576 765 q 801 576 750 664 q 851 379 851 488 l 851 69 q 831 19 851 39 q 781 -1 811 -1 q 730 19 750 -1 q 710 69 710 39 l 710 121 q 592 28 661 61 q 442 -6 522 -6 q 260 44 342 -6 q 133 183 179 94 q 86 379 86 271 q 136 576 86 488 q 274 715 186 664 q 469 765 363 765 m 469 119 q 595 153 539 119 q 683 247 651 188 q 715 379 715 306 q 683 513 715 453 q 595 606 651 572 q 469 640 539 640 q 344 606 400 640 q 255 513 288 572 q 222 379 222 453 q 255 247 222 306 q 344 153 288 188 q 469 119 400 119 m 315 854 q 265 870 285 854 q 244 911 244 886 q 278 972 244 947 l 433 1074 q 469 1085 451 1085 q 507 1074 490 1085 l 661 972 q 694 911 694 947 q 675 870 694 886 q 625 854 656 854 q 579 869 600 854 l 469 947 l 360 869 q 315 854 340 854 z "},"ấ":{"ha":938,"x_min":86,"x_max":851,"o":"m 469 765 q 663 715 576 765 q 801 576 750 664 q 851 379 851 488 l 851 69 q 831 19 851 39 q 781 -1 811 -1 q 730 19 750 -1 q 710 69 710 39 l 710 121 q 592 28 661 61 q 442 -6 522 -6 q 260 44 342 -6 q 133 183 179 94 q 86 379 86 271 q 136 576 86 488 q 274 715 186 664 q 469 765 363 765 m 469 119 q 595 153 539 119 q 683 247 651 188 q 715 379 715 306 q 683 513 715 453 q 595 606 651 572 q 469 640 539 640 q 344 606 400 640 q 255 513 288 572 q 222 379 222 453 q 255 247 222 306 q 344 153 288 188 q 469 119 400 119 m 315 854 q 265 870 285 854 q 244 911 244 886 q 278 972 244 947 l 433 1074 q 469 1085 451 1085 q 507 1074 490 1085 l 661 972 q 694 911 694 947 q 675 870 694 886 q 625 854 656 854 q 579 869 600 854 l 469 947 l 360 869 q 315 854 340 854 m 619 1079 q 568 1099 588 1079 q 549 1150 549 1119 q 565 1197 549 1179 l 701 1333 q 751 1354 722 1354 q 802 1333 782 1354 q 822 1282 822 1313 q 803 1233 822 1251 l 668 1099 q 619 1079 649 1079 z "},"ậ":{"ha":938,"x_min":86,"x_max":851,"o":"m 469 765 q 663 715 576 765 q 801 576 750 664 q 851 379 851 488 l 851 69 q 831 19 851 39 q 781 -1 811 -1 q 730 19 750 -1 q 710 69 710 39 l 710 121 q 592 28 661 61 q 442 -6 522 -6 q 260 44 342 -6 q 133 183 179 94 q 86 379 86 271 q 136 576 86 488 q 274 715 186 664 q 469 765 363 765 m 469 119 q 595 153 539 119 q 683 247 651 188 q 715 379 715 306 q 683 513 715 453 q 595 606 651 572 q 469 640 539 640 q 344 606 400 640 q 255 513 288 572 q 222 379 222 453 q 255 247 222 306 q 344 153 288 188 q 469 119 400 119 m 315 854 q 265 870 285 854 q 244 911 244 886 q 278 972 244 947 l 433 1074 q 469 1085 451 1085 q 507 1074 490 1085 l 661 972 q 694 911 694 947 q 675 870 694 886 q 625 854 656 854 q 579 869 600 854 l 469 947 l 360 869 q 315 854 340 854 m 469 -311 q 405 -284 432 -311 q 378 -219 378 -257 q 405 -155 378 -182 q 469 -128 432 -128 q 534 -155 507 -128 q 561 -219 561 -182 q 534 -284 561 -257 q 469 -311 507 -311 z "},"ầ":{"ha":938,"x_min":86,"x_max":851,"o":"m 469 765 q 663 715 576 765 q 801 576 750 664 q 851 379 851 488 l 851 69 q 831 19 851 39 q 781 -1 811 -1 q 730 19 750 -1 q 710 69 710 39 l 710 121 q 592 28 661 61 q 442 -6 522 -6 q 260 44 342 -6 q 133 183 179 94 q 86 379 86 271 q 136 576 86 488 q 274 715 186 664 q 469 765 363 765 m 469 119 q 595 153 539 119 q 683 247 651 188 q 715 379 715 306 q 683 513 715 453 q 595 606 651 572 q 469 640 539 640 q 344 606 400 640 q 255 513 288 572 q 222 379 222 453 q 255 247 222 306 q 344 153 288 188 q 469 119 400 119 m 315 854 q 265 870 285 854 q 244 911 244 886 q 278 972 244 947 l 433 1074 q 469 1085 451 1085 q 507 1074 490 1085 l 661 972 q 694 911 694 947 q 675 870 694 886 q 625 854 656 854 q 579 869 600 854 l 469 947 l 360 869 q 315 854 340 854 m 610 1079 q 561 1099 579 1079 l 425 1233 q 407 1282 407 1251 q 426 1333 407 1313 q 476 1354 446 1354 q 528 1333 506 1354 l 663 1197 q 681 1150 681 1179 q 660 1099 681 1119 q 610 1079 640 1079 z "},"ẩ":{"ha":938,"x_min":86,"x_max":851,"o":"m 469 765 q 663 715 576 765 q 801 576 750 664 q 851 379 851 488 l 851 69 q 831 19 851 39 q 781 -1 811 -1 q 730 19 750 -1 q 710 69 710 39 l 710 121 q 592 28 661 61 q 442 -6 522 -6 q 260 44 342 -6 q 133 183 179 94 q 86 379 86 271 q 136 576 86 488 q 274 715 186 664 q 469 765 363 765 m 469 119 q 595 153 539 119 q 683 247 651 188 q 715 379 715 306 q 683 513 715 453 q 595 606 651 572 q 469 640 539 640 q 344 606 400 640 q 255 513 288 572 q 222 379 222 453 q 255 247 222 306 q 344 153 288 188 q 469 119 400 119 m 322 854 q 272 870 292 854 q 251 911 251 886 q 285 972 251 947 l 440 1074 q 476 1085 458 1085 q 514 1074 497 1085 l 668 972 q 701 911 701 947 q 682 870 701 886 q 632 854 663 854 q 586 869 607 854 l 476 947 l 367 869 q 322 854 347 854 m 621 1035 q 576 1053 594 1035 q 558 1097 558 1071 l 558 1128 q 614 1196 558 1183 l 650 1204 q 691 1224 675 1210 q 707 1260 707 1239 q 691 1299 707 1286 q 647 1313 675 1313 q 611 1306 629 1313 q 582 1290 593 1300 q 561 1279 574 1283 q 536 1275 549 1275 q 499 1288 514 1275 q 485 1324 485 1300 q 507 1372 485 1354 q 644 1418 564 1418 q 767 1374 719 1418 q 814 1264 814 1331 q 657 1122 815 1143 l 683 1125 q 666 1058 683 1081 q 621 1035 649 1035 z "},"ẫ":{"ha":938,"x_min":86,"x_max":851,"o":"m 469 765 q 663 715 576 765 q 801 576 750 664 q 851 379 851 488 l 851 69 q 831 19 851 39 q 781 -1 811 -1 q 730 19 750 -1 q 710 69 710 39 l 710 121 q 592 28 661 61 q 442 -6 522 -6 q 260 44 342 -6 q 133 183 179 94 q 86 379 86 271 q 136 576 86 488 q 274 715 186 664 q 469 765 363 765 m 469 119 q 595 153 539 119 q 683 247 651 188 q 715 379 715 306 q 683 513 715 453 q 595 606 651 572 q 469 640 539 640 q 344 606 400 640 q 255 513 288 572 q 222 379 222 453 q 255 247 222 306 q 344 153 288 188 q 469 119 400 119 m 322 854 q 272 870 292 854 q 251 911 251 886 q 285 972 251 947 l 440 1074 q 476 1085 458 1085 q 514 1074 497 1085 l 668 972 q 701 911 701 947 q 682 870 701 886 q 632 854 663 854 q 586 869 607 854 l 476 947 l 367 869 q 322 854 347 854 m 557 1119 q 436 1176 496 1119 q 406 1203 415 1196 q 383 1210 396 1210 q 360 1201 369 1210 q 339 1171 351 1192 q 314 1147 329 1156 q 282 1138 299 1138 q 258 1142 271 1138 q 232 1163 242 1149 q 222 1193 222 1176 q 231 1222 222 1208 q 372 1324 288 1324 q 435 1309 410 1324 q 475 1281 460 1294 q 494 1263 490 1267 q 542 1238 524 1238 q 572 1258 557 1238 q 633 1294 597 1294 q 656 1290 644 1294 q 683 1268 674 1282 q 693 1238 693 1254 q 683 1207 693 1224 q 626 1140 657 1161 q 557 1119 594 1119 z "},"ȁ":{"ha":938,"x_min":86,"x_max":851,"o":"m 469 765 q 663 715 576 765 q 801 576 750 664 q 851 379 851 488 l 851 69 q 831 19 851 39 q 781 -1 811 -1 q 730 19 750 -1 q 710 69 710 39 l 710 121 q 592 28 661 61 q 442 -6 522 -6 q 260 44 342 -6 q 133 183 179 94 q 86 379 86 271 q 136 576 86 488 q 274 715 186 664 q 469 765 363 765 m 469 119 q 595 153 539 119 q 683 247 651 188 q 715 379 715 306 q 683 513 715 453 q 595 606 651 572 q 469 640 539 640 q 344 606 400 640 q 255 513 288 572 q 222 379 222 453 q 255 247 222 306 q 344 153 288 188 q 469 119 400 119 m 410 857 q 356 893 375 857 l 279 1057 q 274 1072 275 1064 q 272 1083 272 1081 q 293 1133 272 1113 q 344 1154 314 1154 q 385 1141 367 1154 q 410 1110 404 1128 l 464 938 l 467 915 q 449 873 467 889 q 410 857 432 857 m 608 857 q 556 893 572 857 l 478 1057 q 472 1083 472 1069 q 493 1133 472 1113 q 544 1154 514 1154 q 585 1141 567 1154 q 610 1110 604 1128 l 663 938 q 667 915 667 925 q 649 873 667 889 q 608 857 631 857 z "},"ä":{"ha":938,"x_min":86,"x_max":851,"o":"m 469 765 q 663 715 576 765 q 801 576 750 664 q 851 379 851 488 l 851 69 q 831 19 851 39 q 781 -1 811 -1 q 730 19 750 -1 q 710 69 710 39 l 710 121 q 592 28 661 61 q 442 -6 522 -6 q 260 44 342 -6 q 133 183 179 94 q 86 379 86 271 q 136 576 86 488 q 274 715 186 664 q 469 765 363 765 m 469 119 q 595 153 539 119 q 683 247 651 188 q 715 379 715 306 q 683 513 715 453 q 595 606 651 572 q 469 640 539 640 q 344 606 400 640 q 255 513 288 572 q 222 379 222 453 q 255 247 222 306 q 344 153 288 188 q 469 119 400 119 m 315 876 q 255 901 279 876 q 231 960 231 925 q 256 1018 231 993 q 315 1043 281 1043 q 374 1018 349 1043 q 399 960 399 993 q 374 901 399 925 q 315 876 349 876 m 624 876 q 564 901 588 876 q 540 960 540 925 q 565 1018 540 993 q 624 1043 589 1043 q 682 1018 657 1043 q 707 960 707 993 q 682 901 707 925 q 624 876 657 876 z "},"ạ":{"ha":938,"x_min":86,"x_max":851,"o":"m 469 765 q 663 715 576 765 q 801 576 750 664 q 851 379 851 488 l 851 69 q 831 19 851 39 q 781 -1 811 -1 q 730 19 750 -1 q 710 69 710 39 l 710 121 q 592 28 661 61 q 442 -6 522 -6 q 260 44 342 -6 q 133 183 179 94 q 86 379 86 271 q 136 576 86 488 q 274 715 186 664 q 469 765 363 765 m 469 119 q 595 153 539 119 q 683 247 651 188 q 715 379 715 306 q 683 513 715 453 q 595 606 651 572 q 469 640 539 640 q 344 606 400 640 q 255 513 288 572 q 222 379 222 453 q 255 247 222 306 q 344 153 288 188 q 469 119 400 119 m 469 -311 q 405 -284 432 -311 q 378 -219 378 -257 q 405 -155 378 -182 q 469 -128 432 -128 q 534 -155 507 -128 q 561 -219 561 -182 q 534 -284 561 -257 q 469 -311 507 -311 z "},"à":{"ha":938,"x_min":86,"x_max":851,"o":"m 469 765 q 663 715 576 765 q 801 576 750 664 q 851 379 851 488 l 851 69 q 831 19 851 39 q 781 -1 811 -1 q 730 19 750 -1 q 710 69 710 39 l 710 121 q 592 28 661 61 q 442 -6 522 -6 q 260 44 342 -6 q 133 183 179 94 q 86 379 86 271 q 136 576 86 488 q 274 715 186 664 q 469 765 363 765 m 469 119 q 595 153 539 119 q 683 247 651 188 q 715 379 715 306 q 683 513 715 453 q 595 606 651 572 q 469 640 539 640 q 344 606 400 640 q 255 513 288 572 q 222 379 222 453 q 255 247 222 306 q 344 153 288 188 q 469 119 400 119 m 465 879 q 417 899 435 879 l 281 1033 q 263 1082 263 1051 q 282 1133 263 1113 q 332 1154 301 1154 q 383 1133 361 1154 l 518 997 q 536 950 536 979 q 516 899 536 919 q 465 879 496 879 z "},"ả":{"ha":938,"x_min":86,"x_max":851,"o":"m 469 765 q 663 715 576 765 q 801 576 750 664 q 851 379 851 488 l 851 69 q 831 19 851 39 q 781 -1 811 -1 q 730 19 750 -1 q 710 69 710 39 l 710 121 q 592 28 661 61 q 442 -6 522 -6 q 260 44 342 -6 q 133 183 179 94 q 86 379 86 271 q 136 576 86 488 q 274 715 186 664 q 469 765 363 765 m 469 119 q 595 153 539 119 q 683 247 651 188 q 715 379 715 306 q 683 513 715 453 q 595 606 651 572 q 469 640 539 640 q 344 606 400 640 q 255 513 288 572 q 222 379 222 453 q 255 247 222 306 q 344 153 288 188 q 469 119 400 119 m 469 835 q 425 853 443 835 q 407 897 407 871 l 407 928 q 463 996 407 983 l 499 1004 q 540 1024 524 1010 q 556 1060 556 1039 q 540 1099 556 1086 q 496 1113 524 1113 q 460 1106 478 1113 q 431 1090 442 1100 q 410 1079 422 1083 q 385 1075 397 1075 q 348 1088 363 1075 q 333 1124 333 1100 q 356 1172 333 1154 q 493 1218 413 1218 q 615 1174 568 1218 q 663 1064 663 1131 q 506 922 664 943 l 532 925 q 515 858 532 881 q 469 835 497 835 z "},"ȃ":{"ha":938,"x_min":86,"x_max":851,"o":"m 469 765 q 663 715 576 765 q 801 576 750 664 q 851 379 851 488 l 851 69 q 831 19 851 39 q 781 -1 811 -1 q 730 19 750 -1 q 710 69 710 39 l 710 121 q 592 28 661 61 q 442 -6 522 -6 q 260 44 342 -6 q 133 183 179 94 q 86 379 86 271 q 136 576 86 488 q 274 715 186 664 q 469 765 363 765 m 469 119 q 595 153 539 119 q 683 247 651 188 q 715 379 715 306 q 683 513 715 453 q 595 606 651 572 q 469 640 539 640 q 344 606 400 640 q 255 513 288 572 q 222 379 222 453 q 255 247 222 306 q 344 153 288 188 q 469 119 400 119 m 469 1085 q 582 1062 531 1085 q 664 999 633 1039 q 694 911 694 960 q 676 860 694 881 q 629 840 658 840 q 581 856 601 840 q 561 897 561 872 q 536 951 561 931 q 469 971 511 971 q 406 949 435 971 q 376 897 376 928 q 356 856 376 872 q 310 840 336 840 q 262 860 281 840 q 243 911 243 881 q 274 999 243 960 q 356 1062 304 1039 q 469 1085 408 1085 z "},"ā":{"ha":938,"x_min":86,"x_max":851,"o":"m 469 765 q 663 715 576 765 q 801 576 750 664 q 851 379 851 488 l 851 69 q 831 19 851 39 q 781 -1 811 -1 q 730 19 750 -1 q 710 69 710 39 l 710 121 q 592 28 661 61 q 442 -6 522 -6 q 260 44 342 -6 q 133 183 179 94 q 86 379 86 271 q 136 576 86 488 q 274 715 186 664 q 469 765 363 765 m 469 119 q 595 153 539 119 q 683 247 651 188 q 715 379 715 306 q 683 513 715 453 q 595 606 651 572 q 469 640 539 640 q 344 606 400 640 q 255 513 288 572 q 222 379 222 453 q 255 247 222 306 q 344 153 288 188 q 469 119 400 119 m 294 899 q 243 915 263 899 q 224 963 224 932 q 243 1008 224 992 q 294 1024 263 1024 l 642 1024 q 694 1008 674 1024 q 714 963 714 992 q 694 915 714 932 q 642 899 674 899 l 294 899 z "},"ą":{"ha":938,"x_min":86,"x_max":1017,"o":"m 946 -190 q 997 -210 976 -190 q 1017 -261 1017 -231 q 992 -318 1017 -296 l 939 -353 q 843 -383 896 -383 q 757 -360 797 -383 q 693 -297 717 -336 q 669 -210 669 -257 q 742 -68 669 -128 q 781 -24 768 -50 q 803 1 789 -7 q 781 -1 789 -1 q 730 19 750 -1 q 710 69 710 39 l 710 121 q 592 28 661 61 q 442 -6 522 -6 q 260 44 342 -6 q 133 183 179 94 q 86 379 86 271 q 136 576 86 488 q 274 715 186 664 q 469 765 363 765 q 663 715 576 765 q 801 576 750 664 q 851 379 851 488 l 851 69 q 822 11 851 32 q 843 14 833 14 q 892 -6 872 14 q 914 -56 911 -25 q 825 -182 914 -118 q 811 -210 811 -194 q 820 -233 811 -224 q 843 -242 829 -242 q 860 -236 854 -242 l 903 -204 q 946 -190 924 -190 m 469 119 q 595 153 539 119 q 683 247 651 188 q 715 379 715 306 q 683 513 715 453 q 595 606 651 572 q 469 640 539 640 q 344 606 400 640 q 255 513 288 572 q 222 379 222 453 q 255 247 222 306 q 344 153 288 188 q 469 119 400 119 z "},"å":{"ha":938,"x_min":86,"x_max":851,"o":"m 469 765 q 663 715 576 765 q 801 576 750 664 q 851 379 851 488 l 851 69 q 831 19 851 39 q 781 -1 811 -1 q 730 19 750 -1 q 710 69 710 39 l 710 121 q 592 28 661 61 q 442 -6 522 -6 q 260 44 342 -6 q 133 183 179 94 q 86 379 86 271 q 136 576 86 488 q 274 715 186 664 q 469 765 363 765 m 469 119 q 595 153 539 119 q 683 247 651 188 q 715 379 715 306 q 683 513 715 453 q 595 606 651 572 q 469 640 539 640 q 344 606 400 640 q 255 513 288 572 q 222 379 222 453 q 255 247 222 306 q 344 153 288 188 q 469 119 400 119 m 469 814 q 363 856 404 814 q 321 963 321 897 q 363 1070 321 1028 q 469 1113 404 1113 q 576 1070 535 1113 q 618 963 618 1028 q 576 856 618 897 q 469 814 535 814 m 469 892 q 520 912 500 892 q 540 963 540 932 q 520 1015 540 994 q 469 1035 500 1035 q 417 1015 438 1035 q 397 963 397 994 q 417 912 397 932 q 469 892 438 892 z "},"ǻ":{"ha":938,"x_min":86,"x_max":851,"o":"m 469 765 q 663 715 576 765 q 801 576 750 664 q 851 379 851 488 l 851 69 q 831 19 851 39 q 781 -1 811 -1 q 730 19 750 -1 q 710 69 710 39 l 710 121 q 592 28 661 61 q 442 -6 522 -6 q 260 44 342 -6 q 133 183 179 94 q 86 379 86 271 q 136 576 86 488 q 274 715 186 664 q 469 765 363 765 m 469 119 q 595 153 539 119 q 683 247 651 188 q 715 379 715 306 q 683 513 715 453 q 595 606 651 572 q 469 640 539 640 q 344 606 400 640 q 255 513 288 572 q 222 379 222 453 q 255 247 222 306 q 344 153 288 188 q 469 119 400 119 m 469 814 q 363 856 404 814 q 321 963 321 897 q 363 1070 321 1028 q 469 1113 404 1113 q 576 1070 535 1113 q 618 963 618 1028 q 576 856 618 897 q 469 814 535 814 m 469 892 q 520 912 500 892 q 540 963 540 932 q 520 1015 540 994 q 469 1035 500 1035 q 417 1015 438 1035 q 397 963 397 994 q 417 912 397 932 q 469 892 438 892 m 475 1163 q 424 1183 443 1163 q 404 1233 404 1203 q 421 1281 404 1263 l 557 1417 q 607 1438 578 1438 q 658 1417 638 1438 q 678 1365 678 1396 q 658 1317 678 1335 l 524 1182 q 475 1163 504 1163 z "},"ã":{"ha":938,"x_min":86,"x_max":851,"o":"m 469 765 q 663 715 576 765 q 801 576 750 664 q 851 379 851 488 l 851 69 q 831 19 851 39 q 781 -1 811 -1 q 730 19 750 -1 q 710 69 710 39 l 710 121 q 592 28 661 61 q 442 -6 522 -6 q 260 44 342 -6 q 133 183 179 94 q 86 379 86 271 q 136 576 86 488 q 274 715 186 664 q 469 765 363 765 m 469 119 q 595 153 539 119 q 683 247 651 188 q 715 379 715 306 q 683 513 715 453 q 595 606 651 572 q 469 640 539 640 q 344 606 400 640 q 255 513 288 572 q 222 379 222 453 q 255 247 222 306 q 344 153 288 188 q 469 119 400 119 m 618 864 q 544 876 576 864 q 476 907 513 888 q 385 939 418 939 q 349 931 364 939 q 318 901 333 924 q 256 864 290 864 q 228 871 244 864 q 210 889 217 876 q 203 917 203 901 q 215 956 203 938 q 294 1026 247 1001 q 394 1050 340 1050 q 463 1039 433 1050 q 531 1008 493 1028 q 580 983 564 989 q 614 976 596 976 q 669 1000 646 976 q 696 1022 685 1015 q 721 1029 707 1029 q 751 1019 736 1029 q 774 974 774 1006 q 758 929 774 949 q 618 864 706 864 z "},"æ":{"ha":1499,"x_min":86,"x_max":1443,"o":"m 851 331 l 851 329 q 941 174 868 233 q 1118 114 1014 114 q 1205 129 1160 114 q 1279 167 1250 144 q 1328 183 1300 183 q 1367 168 1351 183 q 1392 119 1392 143 q 1369 79 1392 96 q 1251 18 1321 42 q 1118 -6 1181 -6 q 971 21 1039 -6 q 851 94 903 47 l 851 69 q 831 19 851 39 q 781 -1 811 -1 q 730 19 750 -1 q 710 69 710 39 l 710 121 q 592 28 661 61 q 442 -6 522 -6 q 260 44 342 -6 q 133 183 179 94 q 86 379 86 271 q 136 576 86 488 q 274 715 186 664 q 469 765 363 765 q 655 719 571 765 q 790 593 739 674 q 917 719 836 674 q 1097 765 997 765 q 1282 718 1204 765 q 1401 586 1360 671 q 1443 392 1443 501 q 1425 348 1443 365 q 1379 331 1407 331 l 851 331 m 1097 646 q 933 590 996 646 q 853 442 869 535 l 1315 442 q 1246 590 1303 535 q 1097 646 1189 646 m 469 119 q 595 153 539 119 q 683 247 651 188 q 715 379 715 306 q 683 513 715 453 q 595 606 651 572 q 469 640 539 640 q 344 606 400 640 q 255 513 288 572 q 222 379 222 453 q 255 247 222 306 q 344 153 288 188 q 469 119 400 119 z "},"ǽ":{"ha":1499,"x_min":86,"x_max":1443,"o":"m 851 331 l 851 329 q 941 174 868 233 q 1118 114 1014 114 q 1205 129 1160 114 q 1279 167 1250 144 q 1328 183 1300 183 q 1367 168 1351 183 q 1392 119 1392 143 q 1369 79 1392 96 q 1251 18 1321 42 q 1118 -6 1181 -6 q 971 21 1039 -6 q 851 94 903 47 l 851 69 q 831 19 851 39 q 781 -1 811 -1 q 730 19 750 -1 q 710 69 710 39 l 710 121 q 592 28 661 61 q 442 -6 522 -6 q 260 44 342 -6 q 133 183 179 94 q 86 379 86 271 q 136 576 86 488 q 274 715 186 664 q 469 765 363 765 q 655 719 571 765 q 790 593 739 674 q 917 719 836 674 q 1097 765 997 765 q 1282 718 1204 765 q 1401 586 1360 671 q 1443 392 1443 501 q 1425 348 1443 365 q 1379 331 1407 331 l 851 331 m 1097 646 q 933 590 996 646 q 853 442 869 535 l 1315 442 q 1246 590 1303 535 q 1097 646 1189 646 m 469 119 q 595 153 539 119 q 683 247 651 188 q 715 379 715 306 q 683 513 715 453 q 595 606 651 572 q 469 640 539 640 q 344 606 400 640 q 255 513 288 572 q 222 379 222 453 q 255 247 222 306 q 344 153 288 188 q 469 119 400 119 m 771 879 q 719 899 739 879 q 700 950 700 919 q 717 997 700 979 l 853 1133 q 903 1154 874 1154 q 953 1133 933 1154 q 974 1082 974 1113 q 954 1033 974 1051 l 819 899 q 771 879 800 879 z "},"b":{"ha":976,"x_min":125,"x_max":890,"o":"m 535 765 q 716 715 635 765 q 844 577 797 665 q 890 381 890 489 q 840 184 890 272 q 702 45 790 96 q 507 -6 614 -6 q 313 45 400 -6 q 176 184 226 96 q 125 381 125 272 l 125 1014 q 145 1065 125 1046 q 196 1085 165 1085 q 247 1065 228 1085 q 267 1014 267 1046 l 267 639 q 385 732 315 699 q 535 765 454 765 m 507 119 q 633 153 576 119 q 722 247 689 188 q 754 381 754 307 q 722 513 754 454 q 633 606 689 572 q 507 640 576 640 q 381 606 438 640 q 293 513 325 572 q 261 381 261 454 q 293 247 261 307 q 381 153 325 188 q 507 119 438 119 z "},"c":{"ha":835,"x_min":86,"x_max":749,"o":"m 469 -6 q 272 44 360 -6 q 135 183 185 94 q 86 379 86 271 q 134 578 86 490 q 268 716 182 667 q 463 765 354 765 q 735 640 626 765 q 749 604 749 625 q 718 553 749 574 q 686 543 704 543 q 632 568 654 543 q 556 623 597 606 q 463 640 515 640 q 289 569 356 640 q 222 379 222 497 q 253 245 222 304 q 341 153 285 186 q 469 119 397 119 q 622 168 564 119 q 674 188 649 188 q 710 175 693 188 q 736 125 736 153 q 719 88 736 104 q 469 -6 619 -6 z "},"ć":{"ha":835,"x_min":86,"x_max":749,"o":"m 469 -6 q 272 44 360 -6 q 135 183 185 94 q 86 379 86 271 q 134 578 86 490 q 268 716 182 667 q 463 765 354 765 q 735 640 626 765 q 749 604 749 625 q 718 553 749 574 q 686 543 704 543 q 632 568 654 543 q 556 623 597 606 q 463 640 515 640 q 289 569 356 640 q 222 379 222 497 q 253 245 222 304 q 341 153 285 186 q 469 119 397 119 q 622 168 564 119 q 674 188 649 188 q 710 175 693 188 q 736 125 736 153 q 719 88 736 104 q 469 -6 619 -6 m 468 879 q 417 899 436 879 q 397 950 397 919 q 414 997 397 979 l 550 1133 q 600 1154 571 1154 q 651 1133 631 1154 q 671 1082 671 1113 q 651 1033 671 1051 l 517 899 q 468 879 497 879 z "},"č":{"ha":835,"x_min":86,"x_max":749,"o":"m 469 -6 q 272 44 360 -6 q 135 183 185 94 q 86 379 86 271 q 134 578 86 490 q 268 716 182 667 q 463 765 354 765 q 735 640 626 765 q 749 604 749 625 q 718 553 749 574 q 686 543 704 543 q 632 568 654 543 q 556 623 597 606 q 463 640 515 640 q 289 569 356 640 q 222 379 222 497 q 253 245 222 304 q 341 153 285 186 q 469 119 397 119 q 622 168 564 119 q 674 188 649 188 q 710 175 693 188 q 736 125 736 153 q 719 88 736 104 q 469 -6 619 -6 m 463 868 q 426 879 442 868 l 271 982 q 238 1042 238 1007 q 252 1072 238 1060 q 290 1085 267 1085 q 353 1063 321 1085 l 463 989 l 572 1063 q 638 1086 607 1086 q 674 1073 661 1086 q 688 1042 688 1060 q 654 982 688 1007 l 500 879 q 463 868 483 868 z "},"ç":{"ha":835,"x_min":86,"x_max":749,"o":"m 710 175 q 736 125 736 153 q 719 88 736 104 q 532 -1 643 15 l 511 -49 q 617 -96 583 -64 q 650 -181 650 -128 q 624 -250 650 -217 q 552 -304 599 -283 q 444 -325 506 -325 q 308 -290 363 -325 q 254 -208 254 -256 q 274 -162 254 -182 q 319 -142 293 -142 q 349 -149 338 -142 q 367 -176 360 -157 q 397 -212 376 -200 q 446 -225 418 -225 q 492 -212 474 -225 q 510 -176 510 -199 q 495 -136 510 -151 q 447 -115 481 -121 q 395 -96 413 -110 q 378 -57 378 -82 q 385 -21 378 -39 l 393 1 q 233 71 303 18 q 124 203 163 124 q 86 379 86 283 q 134 578 86 490 q 268 716 182 667 q 463 765 354 765 q 735 640 626 765 q 749 604 749 625 q 718 553 749 574 q 686 543 704 543 q 632 568 654 543 q 556 623 597 606 q 463 640 515 640 q 289 569 356 640 q 222 379 222 497 q 253 245 222 304 q 341 153 285 186 q 469 119 397 119 q 622 168 564 119 q 674 188 649 188 q 710 175 693 188 z "},"ĉ":{"ha":835,"x_min":86,"x_max":749,"o":"m 469 -6 q 272 44 360 -6 q 135 183 185 94 q 86 379 86 271 q 134 578 86 490 q 268 716 182 667 q 463 765 354 765 q 735 640 626 765 q 749 604 749 625 q 718 553 749 574 q 686 543 704 543 q 632 568 654 543 q 556 623 597 606 q 463 640 515 640 q 289 569 356 640 q 222 379 222 497 q 253 245 222 304 q 341 153 285 186 q 469 119 397 119 q 622 168 564 119 q 674 188 649 188 q 710 175 693 188 q 736 125 736 153 q 719 88 736 104 q 469 -6 619 -6 m 308 854 q 258 870 278 854 q 238 911 238 886 q 271 972 238 947 l 426 1074 q 463 1085 444 1085 q 500 1074 483 1085 l 654 972 q 688 911 688 947 q 668 870 688 886 q 618 854 649 854 q 572 869 593 854 l 463 947 l 353 869 q 308 854 333 854 z "},"ċ":{"ha":835,"x_min":86,"x_max":749,"o":"m 469 -6 q 272 44 360 -6 q 135 183 185 94 q 86 379 86 271 q 134 578 86 490 q 268 716 182 667 q 463 765 354 765 q 735 640 626 765 q 749 604 749 625 q 718 553 749 574 q 686 543 704 543 q 632 568 654 543 q 556 623 597 606 q 463 640 515 640 q 289 569 356 640 q 222 379 222 497 q 253 245 222 304 q 341 153 285 186 q 469 119 397 119 q 622 168 564 119 q 674 188 649 188 q 710 175 693 188 q 736 125 736 153 q 719 88 736 104 q 469 -6 619 -6 m 463 883 q 398 910 425 883 q 371 975 371 938 q 398 1040 371 1013 q 463 1067 425 1067 q 527 1040 500 1067 q 554 975 554 1013 q 527 910 554 938 q 463 883 500 883 z "},"d":{"ha":976,"x_min":86,"x_max":851,"o":"m 781 1085 q 832 1065 813 1085 q 851 1014 851 1046 l 851 381 q 801 184 851 272 q 663 45 750 96 q 469 -6 576 -6 q 274 45 363 -6 q 136 184 186 96 q 86 381 86 272 q 133 577 86 489 q 260 715 179 665 q 442 765 342 765 q 592 732 522 765 q 710 639 661 699 l 710 1014 q 730 1065 710 1046 q 781 1085 750 1085 m 469 119 q 595 153 539 119 q 683 247 651 188 q 715 381 715 307 q 683 513 715 454 q 595 606 651 572 q 469 640 539 640 q 344 606 400 640 q 255 513 288 572 q 222 381 222 454 q 255 247 222 307 q 344 153 288 188 q 469 119 400 119 z "},"ð":{"ha":935,"x_min":86,"x_max":838,"o":"m 838 353 q 788 167 838 249 q 652 40 739 86 q 456 -6 565 -6 q 265 40 349 -6 q 133 167 181 86 q 86 353 86 249 q 130 538 86 457 q 251 665 174 619 q 428 710 329 710 q 606 664 528 710 q 726 536 683 618 q 694 724 721 650 q 613 849 668 797 q 461 942 558 900 l 410 849 q 376 829 399 829 q 349 838 364 829 q 322 872 322 851 q 329 894 322 881 l 375 976 q 325 994 358 983 q 267 1047 267 1014 q 271 1068 267 1058 q 314 1096 281 1096 q 356 1088 333 1096 l 422 1063 l 463 1135 q 493 1157 475 1157 q 521 1147 504 1157 q 549 1110 549 1132 q 543 1090 549 1100 l 507 1025 q 703 896 632 965 q 804 734 774 826 q 836 510 835 642 l 838 353 m 456 119 q 583 149 526 119 q 670 233 639 179 q 701 353 701 286 q 670 472 701 419 q 583 555 639 525 q 456 585 526 585 q 288 520 353 585 q 222 353 222 456 q 288 185 222 250 q 456 119 353 119 z "},"ď":{"ha":1117,"x_min":86,"x_max":1131,"o":"m 781 1085 q 832 1065 813 1085 q 851 1014 851 1046 l 851 381 q 801 184 851 272 q 663 45 750 96 q 469 -6 576 -6 q 274 45 363 -6 q 136 184 186 96 q 86 381 86 272 q 133 577 86 489 q 260 715 179 665 q 442 765 342 765 q 592 732 522 765 q 710 639 661 699 l 710 1014 q 730 1065 710 1046 q 781 1085 750 1085 m 469 119 q 595 153 539 119 q 683 247 651 188 q 715 381 715 307 q 683 513 715 454 q 595 606 651 572 q 469 640 539 640 q 344 606 400 640 q 255 513 288 572 q 222 381 222 454 q 255 247 222 307 q 344 153 288 188 q 469 119 400 119 m 949 699 q 910 731 910 699 q 919 763 910 746 q 947 806 928 781 q 981 858 969 836 q 996 903 993 879 q 997 919 997 908 q 986 974 997 940 q 979 994 985 976 q 974 1038 974 1013 q 993 1080 974 1064 q 1042 1096 1013 1096 q 1106 1064 1082 1096 q 1131 985 1131 1032 q 1098 856 1131 922 q 1022 744 1065 789 q 949 699 978 699 z "},"đ":{"ha":976,"x_min":86,"x_max":976,"o":"m 904 957 q 957 943 938 957 q 976 901 976 929 q 956 862 976 878 q 904 846 935 846 l 851 846 l 851 381 q 801 184 851 272 q 663 45 750 96 q 469 -6 576 -6 q 274 45 363 -6 q 136 184 186 96 q 86 381 86 272 q 133 577 86 489 q 260 715 179 665 q 442 765 342 765 q 592 732 522 765 q 710 639 661 699 l 710 846 l 513 846 q 462 862 482 846 q 442 901 442 878 q 460 943 442 929 q 513 957 479 957 l 710 957 l 710 1014 q 730 1065 710 1046 q 781 1085 750 1085 q 832 1065 813 1085 q 851 1014 851 1046 l 851 957 l 904 957 m 469 119 q 595 153 539 119 q 683 247 651 188 q 715 381 715 307 q 683 513 715 454 q 595 606 651 572 q 469 640 539 640 q 344 606 400 640 q 255 513 288 572 q 222 381 222 454 q 255 247 222 307 q 344 153 288 188 q 469 119 400 119 z "},"e":{"ha":863,"x_min":86,"x_max":807,"o":"m 807 392 q 789 348 807 365 q 743 331 771 331 l 215 331 q 303 174 231 233 q 482 114 376 114 q 569 129 524 114 q 643 167 614 144 q 689 182 663 182 q 731 168 715 182 q 756 121 756 147 q 733 79 756 96 q 616 18 686 42 q 482 -6 546 -6 q 278 44 368 -6 q 137 181 188 93 q 86 379 86 268 q 134 578 86 490 q 267 716 182 667 q 461 765 353 765 q 646 718 568 765 q 765 586 724 671 q 807 392 807 501 m 461 646 q 297 590 360 646 q 217 442 233 535 l 679 442 q 610 590 667 535 q 461 646 553 646 z "},"é":{"ha":863,"x_min":86,"x_max":807,"o":"m 807 392 q 789 348 807 365 q 743 331 771 331 l 215 331 q 303 174 231 233 q 482 114 376 114 q 569 129 524 114 q 643 167 614 144 q 689 182 663 182 q 731 168 715 182 q 756 121 756 147 q 733 79 756 96 q 616 18 686 42 q 482 -6 546 -6 q 278 44 368 -6 q 137 181 188 93 q 86 379 86 268 q 134 578 86 490 q 267 716 182 667 q 461 765 353 765 q 646 718 568 765 q 765 586 724 671 q 807 392 807 501 m 461 646 q 297 590 360 646 q 217 442 233 535 l 679 442 q 610 590 667 535 q 461 646 553 646 m 453 879 q 401 899 421 879 q 382 950 382 919 q 399 997 382 979 l 535 1133 q 585 1154 556 1154 q 635 1133 615 1154 q 656 1082 656 1113 q 636 1033 656 1051 l 501 899 q 453 879 482 879 z "},"ĕ":{"ha":863,"x_min":86,"x_max":807,"o":"m 807 392 q 789 348 807 365 q 743 331 771 331 l 215 331 q 303 174 231 233 q 482 114 376 114 q 569 129 524 114 q 643 167 614 144 q 689 182 663 182 q 731 168 715 182 q 756 121 756 147 q 733 79 756 96 q 616 18 686 42 q 482 -6 546 -6 q 278 44 368 -6 q 137 181 188 93 q 86 379 86 268 q 134 578 86 490 q 267 716 182 667 q 461 765 353 765 q 646 718 568 765 q 765 586 724 671 q 807 392 807 501 m 461 646 q 297 590 360 646 q 217 442 233 535 l 679 442 q 610 590 667 535 q 461 646 553 646 m 447 840 q 334 863 386 840 q 251 926 282 886 q 221 1014 221 965 q 240 1065 221 1044 q 288 1085 258 1085 q 334 1069 314 1085 q 354 1028 354 1053 q 383 976 354 997 q 447 954 413 954 q 514 974 489 954 q 539 1028 539 994 q 559 1069 539 1053 q 607 1085 579 1085 q 654 1065 636 1085 q 672 1014 672 1044 q 642 926 672 965 q 560 863 611 886 q 447 840 508 840 z "},"ě":{"ha":863,"x_min":86,"x_max":807,"o":"m 807 392 q 789 348 807 365 q 743 331 771 331 l 215 331 q 303 174 231 233 q 482 114 376 114 q 569 129 524 114 q 643 167 614 144 q 689 182 663 182 q 731 168 715 182 q 756 121 756 147 q 733 79 756 96 q 616 18 686 42 q 482 -6 546 -6 q 278 44 368 -6 q 137 181 188 93 q 86 379 86 268 q 134 578 86 490 q 267 716 182 667 q 461 765 353 765 q 646 718 568 765 q 765 586 724 671 q 807 392 807 501 m 461 646 q 297 590 360 646 q 217 442 233 535 l 679 442 q 610 590 667 535 q 461 646 553 646 m 447 868 q 411 879 426 868 l 256 982 q 222 1042 222 1007 q 237 1072 222 1060 q 275 1085 251 1085 q 338 1063 306 1085 l 447 989 l 557 1063 q 622 1086 592 1086 q 659 1073 646 1086 q 672 1042 672 1060 q 639 982 672 1007 l 485 879 q 447 868 468 868 z "},"ê":{"ha":863,"x_min":86,"x_max":807,"o":"m 807 392 q 789 348 807 365 q 743 331 771 331 l 215 331 q 303 174 231 233 q 482 114 376 114 q 569 129 524 114 q 643 167 614 144 q 689 182 663 182 q 731 168 715 182 q 756 121 756 147 q 733 79 756 96 q 616 18 686 42 q 482 -6 546 -6 q 278 44 368 -6 q 137 181 188 93 q 86 379 86 268 q 134 578 86 490 q 267 716 182 667 q 461 765 353 765 q 646 718 568 765 q 765 586 724 671 q 807 392 807 501 m 461 646 q 297 590 360 646 q 217 442 233 535 l 679 442 q 610 590 667 535 q 461 646 553 646 m 293 854 q 242 870 263 854 q 222 911 222 886 q 256 972 222 947 l 411 1074 q 447 1085 429 1085 q 485 1074 468 1085 l 639 972 q 672 911 672 947 q 653 870 672 886 q 603 854 633 854 q 557 869 578 854 l 447 947 l 338 869 q 293 854 318 854 z "},"ế":{"ha":863,"x_min":86,"x_max":807,"o":"m 807 392 q 789 348 807 365 q 743 331 771 331 l 215 331 q 303 174 231 233 q 482 114 376 114 q 569 129 524 114 q 643 167 614 144 q 689 182 663 182 q 731 168 715 182 q 756 121 756 147 q 733 79 756 96 q 616 18 686 42 q 482 -6 546 -6 q 278 44 368 -6 q 137 181 188 93 q 86 379 86 268 q 134 578 86 490 q 267 716 182 667 q 461 765 353 765 q 646 718 568 765 q 765 586 724 671 q 807 392 807 501 m 461 646 q 297 590 360 646 q 217 442 233 535 l 679 442 q 610 590 667 535 q 461 646 553 646 m 293 854 q 242 870 263 854 q 222 911 222 886 q 256 972 222 947 l 411 1074 q 447 1085 429 1085 q 485 1074 468 1085 l 639 972 q 672 911 672 947 q 653 870 672 886 q 603 854 633 854 q 557 869 578 854 l 447 947 l 338 869 q 293 854 318 854 m 597 1079 q 546 1099 565 1079 q 526 1150 526 1119 q 543 1197 526 1179 l 679 1333 q 729 1354 700 1354 q 780 1333 760 1354 q 800 1282 800 1313 q 781 1233 800 1251 l 646 1099 q 597 1079 626 1079 z "},"ệ":{"ha":863,"x_min":86,"x_max":807,"o":"m 807 392 q 789 348 807 365 q 743 331 771 331 l 215 331 q 303 174 231 233 q 482 114 376 114 q 569 129 524 114 q 643 167 614 144 q 689 182 663 182 q 731 168 715 182 q 756 121 756 147 q 733 79 756 96 q 616 18 686 42 q 482 -6 546 -6 q 278 44 368 -6 q 137 181 188 93 q 86 379 86 268 q 134 578 86 490 q 267 716 182 667 q 461 765 353 765 q 646 718 568 765 q 765 586 724 671 q 807 392 807 501 m 461 646 q 297 590 360 646 q 217 442 233 535 l 679 442 q 610 590 667 535 q 461 646 553 646 m 293 854 q 242 870 263 854 q 222 911 222 886 q 256 972 222 947 l 411 1074 q 447 1085 429 1085 q 485 1074 468 1085 l 639 972 q 672 911 672 947 q 653 870 672 886 q 603 854 633 854 q 557 869 578 854 l 447 947 l 338 869 q 293 854 318 854 m 447 -311 q 383 -284 410 -311 q 356 -219 356 -257 q 383 -155 356 -182 q 447 -128 410 -128 q 512 -155 485 -128 q 539 -219 539 -182 q 512 -284 539 -257 q 447 -311 485 -311 z "},"ề":{"ha":863,"x_min":86,"x_max":807,"o":"m 807 392 q 789 348 807 365 q 743 331 771 331 l 215 331 q 303 174 231 233 q 482 114 376 114 q 569 129 524 114 q 643 167 614 144 q 689 182 663 182 q 731 168 715 182 q 756 121 756 147 q 733 79 756 96 q 616 18 686 42 q 482 -6 546 -6 q 278 44 368 -6 q 137 181 188 93 q 86 379 86 268 q 134 578 86 490 q 267 716 182 667 q 461 765 353 765 q 646 718 568 765 q 765 586 724 671 q 807 392 807 501 m 461 646 q 297 590 360 646 q 217 442 233 535 l 679 442 q 610 590 667 535 q 461 646 553 646 m 293 854 q 242 870 263 854 q 222 911 222 886 q 256 972 222 947 l 411 1074 q 447 1085 429 1085 q 485 1074 468 1085 l 639 972 q 672 911 672 947 q 653 870 672 886 q 603 854 633 854 q 557 869 578 854 l 447 947 l 338 869 q 293 854 318 854 m 588 1079 q 539 1099 557 1079 l 403 1233 q 385 1282 385 1251 q 404 1333 385 1313 q 454 1354 424 1354 q 506 1333 483 1354 l 640 1197 q 658 1150 658 1179 q 638 1099 658 1119 q 588 1079 618 1079 z "},"ể":{"ha":863,"x_min":86,"x_max":807,"o":"m 807 392 q 789 348 807 365 q 743 331 771 331 l 215 331 q 303 174 231 233 q 482 114 376 114 q 569 129 524 114 q 643 167 614 144 q 689 182 663 182 q 731 168 715 182 q 756 121 756 147 q 733 79 756 96 q 616 18 686 42 q 482 -6 546 -6 q 278 44 368 -6 q 137 181 188 93 q 86 379 86 268 q 134 578 86 490 q 267 716 182 667 q 461 765 353 765 q 646 718 568 765 q 765 586 724 671 q 807 392 807 501 m 461 646 q 297 590 360 646 q 217 442 233 535 l 679 442 q 610 590 667 535 q 461 646 553 646 m 300 854 q 249 870 269 854 q 229 911 229 886 q 263 972 229 947 l 418 1074 q 454 1085 436 1085 q 492 1074 475 1085 l 646 972 q 679 911 679 947 q 660 870 679 886 q 610 854 640 854 q 564 869 585 854 l 454 947 l 344 869 q 300 854 325 854 m 599 1035 q 554 1053 572 1035 q 536 1097 536 1071 l 536 1128 q 592 1196 536 1183 l 628 1204 q 669 1224 653 1210 q 685 1260 685 1239 q 669 1299 685 1286 q 625 1313 653 1313 q 589 1306 607 1313 q 560 1290 571 1300 q 539 1279 551 1283 q 514 1275 526 1275 q 477 1288 492 1275 q 463 1324 463 1300 q 485 1372 463 1354 q 622 1418 542 1418 q 744 1374 697 1418 q 792 1264 792 1331 q 635 1122 793 1143 l 661 1125 q 644 1058 661 1081 q 599 1035 626 1035 z "},"ễ":{"ha":863,"x_min":86,"x_max":807,"o":"m 807 392 q 789 348 807 365 q 743 331 771 331 l 215 331 q 303 174 231 233 q 482 114 376 114 q 569 129 524 114 q 643 167 614 144 q 689 182 663 182 q 731 168 715 182 q 756 121 756 147 q 733 79 756 96 q 616 18 686 42 q 482 -6 546 -6 q 278 44 368 -6 q 137 181 188 93 q 86 379 86 268 q 134 578 86 490 q 267 716 182 667 q 461 765 353 765 q 646 718 568 765 q 765 586 724 671 q 807 392 807 501 m 461 646 q 297 590 360 646 q 217 442 233 535 l 679 442 q 610 590 667 535 q 461 646 553 646 m 300 854 q 249 870 269 854 q 229 911 229 886 q 263 972 229 947 l 418 1074 q 454 1085 436 1085 q 492 1074 475 1085 l 646 972 q 679 911 679 947 q 660 870 679 886 q 610 854 640 854 q 564 869 585 854 l 454 947 l 344 869 q 300 854 325 854 m 535 1119 q 414 1176 474 1119 q 383 1203 393 1196 q 361 1210 374 1210 q 338 1201 347 1210 q 317 1171 329 1192 q 292 1147 307 1156 q 260 1138 276 1138 q 236 1142 249 1138 q 210 1163 219 1149 q 200 1193 200 1176 q 208 1222 200 1208 q 350 1324 265 1324 q 413 1309 388 1324 q 453 1281 438 1294 q 472 1263 468 1267 q 519 1238 501 1238 q 550 1258 535 1238 q 611 1294 575 1294 q 633 1290 622 1294 q 661 1268 651 1282 q 671 1238 671 1254 q 661 1207 671 1224 q 603 1140 635 1161 q 535 1119 572 1119 z "},"ȅ":{"ha":863,"x_min":86,"x_max":807,"o":"m 807 392 q 789 348 807 365 q 743 331 771 331 l 215 331 q 303 174 231 233 q 482 114 376 114 q 569 129 524 114 q 643 167 614 144 q 689 182 663 182 q 731 168 715 182 q 756 121 756 147 q 733 79 756 96 q 616 18 686 42 q 482 -6 546 -6 q 278 44 368 -6 q 137 181 188 93 q 86 379 86 268 q 134 578 86 490 q 267 716 182 667 q 461 765 353 765 q 646 718 568 765 q 765 586 724 671 q 807 392 807 501 m 461 646 q 297 590 360 646 q 217 442 233 535 l 679 442 q 610 590 667 535 q 461 646 553 646 m 388 857 q 333 893 353 857 l 257 1057 q 251 1072 253 1064 q 250 1083 250 1081 q 271 1133 250 1113 q 322 1154 292 1154 q 363 1141 344 1154 q 388 1110 382 1128 l 442 938 l 444 915 q 427 873 444 889 q 388 857 410 857 m 586 857 q 533 893 550 857 l 456 1057 q 450 1083 450 1069 q 471 1133 450 1113 q 522 1154 492 1154 q 563 1141 544 1154 q 588 1110 582 1128 l 640 938 q 644 915 644 925 q 626 873 644 889 q 586 857 608 857 z "},"ë":{"ha":863,"x_min":86,"x_max":807,"o":"m 807 392 q 789 348 807 365 q 743 331 771 331 l 215 331 q 303 174 231 233 q 482 114 376 114 q 569 129 524 114 q 643 167 614 144 q 689 182 663 182 q 731 168 715 182 q 756 121 756 147 q 733 79 756 96 q 616 18 686 42 q 482 -6 546 -6 q 278 44 368 -6 q 137 181 188 93 q 86 379 86 268 q 134 578 86 490 q 267 716 182 667 q 461 765 353 765 q 646 718 568 765 q 765 586 724 671 q 807 392 807 501 m 461 646 q 297 590 360 646 q 217 442 233 535 l 679 442 q 610 590 667 535 q 461 646 553 646 m 293 876 q 233 901 257 876 q 208 960 208 925 q 233 1018 208 993 q 293 1043 258 1043 q 351 1018 326 1043 q 376 960 376 993 q 351 901 376 925 q 293 876 326 876 m 601 876 q 542 901 565 876 q 518 960 518 925 q 542 1018 518 993 q 601 1043 567 1043 q 660 1018 635 1043 q 685 960 685 993 q 660 901 685 925 q 601 876 635 876 z "},"ė":{"ha":863,"x_min":86,"x_max":807,"o":"m 807 392 q 789 348 807 365 q 743 331 771 331 l 215 331 q 303 174 231 233 q 482 114 376 114 q 569 129 524 114 q 643 167 614 144 q 689 182 663 182 q 731 168 715 182 q 756 121 756 147 q 733 79 756 96 q 616 18 686 42 q 482 -6 546 -6 q 278 44 368 -6 q 137 181 188 93 q 86 379 86 268 q 134 578 86 490 q 267 716 182 667 q 461 765 353 765 q 646 718 568 765 q 765 586 724 671 q 807 392 807 501 m 461 646 q 297 590 360 646 q 217 442 233 535 l 679 442 q 610 590 667 535 q 461 646 553 646 m 447 883 q 383 910 410 883 q 356 975 356 938 q 383 1040 356 1013 q 447 1067 410 1067 q 512 1040 485 1067 q 539 975 539 1013 q 512 910 539 938 q 447 883 485 883 z "},"ẹ":{"ha":863,"x_min":86,"x_max":807,"o":"m 807 392 q 789 348 807 365 q 743 331 771 331 l 215 331 q 303 174 231 233 q 482 114 376 114 q 569 129 524 114 q 643 167 614 144 q 689 182 663 182 q 731 168 715 182 q 756 121 756 147 q 733 79 756 96 q 616 18 686 42 q 482 -6 546 -6 q 278 44 368 -6 q 137 181 188 93 q 86 379 86 268 q 134 578 86 490 q 267 716 182 667 q 461 765 353 765 q 646 718 568 765 q 765 586 724 671 q 807 392 807 501 m 461 646 q 297 590 360 646 q 217 442 233 535 l 679 442 q 610 590 667 535 q 461 646 553 646 m 447 -311 q 383 -284 410 -311 q 356 -219 356 -257 q 383 -155 356 -182 q 447 -128 410 -128 q 512 -155 485 -128 q 539 -219 539 -182 q 512 -284 539 -257 q 447 -311 485 -311 z "},"è":{"ha":863,"x_min":86,"x_max":807,"o":"m 807 392 q 789 348 807 365 q 743 331 771 331 l 215 331 q 303 174 231 233 q 482 114 376 114 q 569 129 524 114 q 643 167 614 144 q 689 182 663 182 q 731 168 715 182 q 756 121 756 147 q 733 79 756 96 q 616 18 686 42 q 482 -6 546 -6 q 278 44 368 -6 q 137 181 188 93 q 86 379 86 268 q 134 578 86 490 q 267 716 182 667 q 461 765 353 765 q 646 718 568 765 q 765 586 724 671 q 807 392 807 501 m 461 646 q 297 590 360 646 q 217 442 233 535 l 679 442 q 610 590 667 535 q 461 646 553 646 m 443 879 q 394 899 413 879 l 258 1033 q 240 1082 240 1051 q 260 1133 240 1113 q 310 1154 279 1154 q 361 1133 339 1154 l 496 997 q 514 950 514 979 q 494 899 514 919 q 443 879 474 879 z "},"ẻ":{"ha":863,"x_min":86,"x_max":807,"o":"m 807 392 q 789 348 807 365 q 743 331 771 331 l 215 331 q 303 174 231 233 q 482 114 376 114 q 569 129 524 114 q 643 167 614 144 q 689 182 663 182 q 731 168 715 182 q 756 121 756 147 q 733 79 756 96 q 616 18 686 42 q 482 -6 546 -6 q 278 44 368 -6 q 137 181 188 93 q 86 379 86 268 q 134 578 86 490 q 267 716 182 667 q 461 765 353 765 q 646 718 568 765 q 765 586 724 671 q 807 392 807 501 m 461 646 q 297 590 360 646 q 217 442 233 535 l 679 442 q 610 590 667 535 q 461 646 553 646 m 447 835 q 403 853 421 835 q 385 897 385 871 l 385 928 q 440 996 385 983 l 476 1004 q 517 1024 501 1010 q 533 1060 533 1039 q 517 1099 533 1086 q 474 1113 501 1113 q 438 1106 456 1113 q 408 1090 419 1100 q 388 1079 400 1083 q 363 1075 375 1075 q 326 1088 340 1075 q 311 1124 311 1100 q 333 1172 311 1154 q 471 1218 390 1218 q 593 1174 546 1218 q 640 1064 640 1131 q 483 922 642 943 l 510 925 q 492 858 510 881 q 447 835 475 835 z "},"ȇ":{"ha":863,"x_min":86,"x_max":807,"o":"m 807 392 q 789 348 807 365 q 743 331 771 331 l 215 331 q 303 174 231 233 q 482 114 376 114 q 569 129 524 114 q 643 167 614 144 q 689 182 663 182 q 731 168 715 182 q 756 121 756 147 q 733 79 756 96 q 616 18 686 42 q 482 -6 546 -6 q 278 44 368 -6 q 137 181 188 93 q 86 379 86 268 q 134 578 86 490 q 267 716 182 667 q 461 765 353 765 q 646 718 568 765 q 765 586 724 671 q 807 392 807 501 m 461 646 q 297 590 360 646 q 217 442 233 535 l 679 442 q 610 590 667 535 q 461 646 553 646 m 447 1085 q 560 1062 508 1085 q 642 999 611 1039 q 672 911 672 960 q 654 860 672 881 q 607 840 636 840 q 559 856 579 840 q 539 897 539 872 q 514 951 539 931 q 447 971 489 971 q 383 949 413 971 q 354 897 354 928 q 334 856 354 872 q 288 840 314 840 q 240 860 258 840 q 221 911 221 881 q 251 999 221 960 q 334 1062 282 1039 q 447 1085 386 1085 z "},"ē":{"ha":863,"x_min":86,"x_max":807,"o":"m 807 392 q 789 348 807 365 q 743 331 771 331 l 215 331 q 303 174 231 233 q 482 114 376 114 q 569 129 524 114 q 643 167 614 144 q 689 182 663 182 q 731 168 715 182 q 756 121 756 147 q 733 79 756 96 q 616 18 686 42 q 482 -6 546 -6 q 278 44 368 -6 q 137 181 188 93 q 86 379 86 268 q 134 578 86 490 q 267 716 182 667 q 461 765 353 765 q 646 718 568 765 q 765 586 724 671 q 807 392 807 501 m 461 646 q 297 590 360 646 q 217 442 233 535 l 679 442 q 610 590 667 535 q 461 646 553 646 m 272 899 q 221 915 240 899 q 201 963 201 932 q 221 1008 201 992 q 272 1024 240 1024 l 619 1024 q 672 1008 651 1024 q 692 963 692 992 q 672 915 692 932 q 619 899 651 899 l 272 899 z "},"ę":{"ha":863,"x_min":86,"x_max":807,"o":"m 807 392 q 789 348 807 365 q 743 331 771 331 l 215 331 q 303 174 231 233 q 482 114 376 114 q 544 122 514 114 q 565 129 558 128 q 643 167 611 143 q 689 182 663 182 q 731 168 715 182 q 756 121 756 147 q 733 79 756 96 q 642 28 700 51 q 558 -67 625 -19 q 544 -94 544 -79 q 553 -117 544 -108 q 576 -126 563 -126 q 593 -121 588 -126 l 636 -89 q 679 -75 657 -75 q 730 -95 710 -75 q 750 -146 750 -115 q 725 -203 750 -181 l 672 -237 q 576 -268 629 -268 q 490 -244 531 -268 q 426 -181 450 -221 q 403 -94 403 -142 q 429 -3 403 -47 q 250 60 328 8 q 129 194 172 111 q 86 379 86 276 q 134 578 86 490 q 267 716 182 667 q 461 765 353 765 q 646 718 568 765 q 765 586 724 671 q 807 392 807 501 m 461 646 q 297 590 360 646 q 217 442 233 535 l 679 442 q 610 590 667 535 q 461 646 553 646 z "},"ẽ":{"ha":863,"x_min":86,"x_max":807,"o":"m 807 392 q 789 348 807 365 q 743 331 771 331 l 215 331 q 303 174 231 233 q 482 114 376 114 q 569 129 524 114 q 643 167 614 144 q 689 182 663 182 q 731 168 715 182 q 756 121 756 147 q 733 79 756 96 q 616 18 686 42 q 482 -6 546 -6 q 278 44 368 -6 q 137 181 188 93 q 86 379 86 268 q 134 578 86 490 q 267 716 182 667 q 461 765 353 765 q 646 718 568 765 q 765 586 724 671 q 807 392 807 501 m 461 646 q 297 590 360 646 q 217 442 233 535 l 679 442 q 610 590 667 535 q 461 646 553 646 m 596 864 q 522 876 554 864 q 454 907 490 888 q 363 939 396 939 q 326 931 342 939 q 296 901 311 924 q 233 864 268 864 q 206 871 222 864 q 188 889 194 876 q 181 917 181 901 q 193 956 181 938 q 272 1026 225 1001 q 372 1050 318 1050 q 441 1039 411 1050 q 508 1008 471 1028 q 558 983 542 989 q 592 976 574 976 q 647 1000 624 976 q 674 1022 663 1015 q 699 1029 685 1029 q 729 1019 714 1029 q 751 974 751 1006 q 736 929 751 949 q 596 864 683 864 z "},"ə":{"ha":863,"x_min":56,"x_max":776,"o":"m 381 765 q 585 716 494 765 q 726 579 675 667 q 776 381 776 492 q 728 181 776 269 q 595 44 681 93 q 401 -6 510 -6 q 217 42 294 -6 q 97 174 139 89 q 56 368 56 258 q 74 412 56 394 q 119 429 92 429 l 647 429 q 559 586 632 526 q 381 646 486 646 q 294 631 339 646 q 219 593 249 615 q 174 578 200 578 q 132 592 147 578 q 107 639 107 613 q 129 681 107 664 q 247 742 176 718 q 381 765 317 765 m 401 114 q 566 169 503 114 q 646 318 629 225 l 183 318 q 253 169 196 225 q 401 114 310 114 z "},"f":{"ha":510,"x_min":14,"x_max":524,"o":"m 453 957 q 328 906 375 957 q 281 769 281 854 l 281 732 l 422 732 q 469 715 451 732 q 488 671 488 699 q 469 629 488 646 q 422 613 451 613 l 281 613 l 281 71 q 261 19 281 39 q 207 0 242 0 q 159 19 179 0 q 139 71 139 39 l 139 613 l 79 613 q 32 629 50 613 q 14 671 14 646 q 32 715 14 699 q 79 732 50 732 l 139 732 l 139 756 q 178 928 139 854 q 290 1044 218 1003 q 453 1085 361 1085 q 503 1067 483 1085 q 524 1021 524 1049 q 503 975 524 993 q 453 957 483 957 z "},"g":{"ha":938,"x_min":86,"x_max":851,"o":"m 469 765 q 666 716 579 765 q 802 579 753 667 q 851 379 851 492 l 851 79 q 803 -121 851 -31 q 666 -263 754 -211 q 467 -315 578 -315 q 281 -276 367 -315 q 136 -162 194 -236 q 121 -124 121 -143 q 150 -74 121 -94 q 189 -61 169 -61 q 246 -90 224 -61 q 340 -165 283 -139 q 469 -190 397 -190 q 593 -158 538 -190 q 682 -62 649 -125 q 715 89 715 1 l 715 157 q 601 38 672 81 q 442 -6 531 -6 q 258 44 339 -6 q 131 181 176 93 q 86 379 86 268 q 135 579 86 492 q 271 716 183 667 q 469 765 358 765 m 469 119 q 597 153 540 119 q 684 245 653 186 q 715 379 715 304 q 684 514 715 454 q 597 607 653 574 q 469 640 540 640 q 342 607 399 640 q 254 514 286 574 q 222 379 222 454 q 254 245 222 304 q 342 153 286 186 q 469 119 399 119 z "}}}
